{
.appVersion = "1265";
DisplayStrings = (
"Wd Wi Wm Wr Wt WTFGrumpyAu WThnTnhFy W. W, W; W:",
"/Er-cy/a-cy/ze-cy/hardsign-cy/ia-cy/er-cy/ie-cy/yeru-cy/iishort-cy  /che-cy/te-cy/ie-cy/tse-cy  /ereversed-cy/ge-cy/o-cy/ii-cy/es-cy/te-cy/ii-cy/che-cy/o-cy  /softsign-cy/io-cy/te-cy  /ia-cy/te-cy/softsign-cy/iu-cy  /zhe-cy/ie-cy/er-cy/de-cy/ia-cy/em-cy/ii-cy  /sha-cy/u-cy/es-cy/te-cy/er-cy/o-cy/ge-cy/o-cy  /ef-cy/ie-cy/ha-cy/te-cy/o-cy/ve-cy/a-cy/el-cy/softsign-cy/shcha-cy/ii-cy/ka-cy/a-cy .\012/En-cy/a-cy/sha-cy  /a-cy/ka-cy  /ve-cy/che-cy/ie-cy/er-cy/a-cy  /zhe-cy/ie-cy  /ve-cy/yeru-cy/el-cy/a-cy/te-cy/ii-cy/el-cy  /Ef-cy ./Ia-cy . /Ereversed-cy/iishort-cy/ha-cy/ge-cy/o-cy/el-cy/softsign-cy/de-cy/u-cy  /ka-cy/o-cy/em-cy/ii-cy/es-cy/es-cy/ii-cy/iu-cy  /ze-cy/a-cy  /tse-cy e/ie-cy/yeru-cy/ie-cy  /ve-cy/ie-cy/shcha-cy/ii-cy .",
"ILorem ipsum B.lor sit amet, consectetur adipisicing elit, sed do eiusmod tempor incididunt ut labore et dolore magna aliqua. Ut enim ad minim veniam, quis nostrud exercitation ullamco laboris nisi ut aliquip ex ea commodo consequat. Duis aute irure dolor in reprehenderit in voluptate velit esse cillum dolore eu fugiat nulla pariatur. Excepteur sint occaecat cupidatat non proident, sunt in culpa qui officia deserunt mollit anim id est laborum.'eëé/Istroke",
"anHiIbiographyOAil¯/strokeshortcomb",
"¯/strokeshortcomb/slashshortcomb",
"/Lslash",
"/N.ss01",
"/caroncomb.case/Ncaron",
"/engtail/Eng",
"/Eng.ss01",
"/engtail/Eng.ss01",
"N/Eng",
"/Eng",
"/Nhookleft",
"/top_swash/top_swash/N.swsh",
"/tilde/tildecomb.case ¯/macroncomb.case/Otildemacron",
"/tildecomb.narrow",
"/Ocircumflexhookabove",
"O/horncomb/horncomb/horncomb/Ohorn",
"/horn/horncomb OO/Ohorn",
"OÕ",
"/R.ss01",
"/Germandbls",
"C/Schwa",
"/brevecomb.case/Gbreve.ss01",
"/OE",
"/J.ss01",
"T/Tbar",
"/U.swsh",
"/Ubar.ss01",
"U/Ubar",
"U/horn/horncomb U/horn/horncomb U/horncomb/horn/horncomb U/Uhorn",
"U/Uhorn.ss01",
V,
W,

glyphs = (
{
glyphname = A;
lastChange = "2019-09-24 06:42:05 +0000";
layers = (
{
anchors = (
{
name = bottom;
position = "{427, 0}";
},
{
name = ogonek;
position = "{732, 0}";
},
{
name = top;
position = "{427, 684}";
}
);
layerId = "873CAA12-270D-4223-A88E-AE8E101FDBE8";
paths = (
{
closed = 1;
nodes = (
"156 -13 OFFCURVE",
"190 6 OFFCURVE",
"204 41 CURVE SMOOTH",
"279 227 LINE",
"574 227 LINE",
"669 0 LINE",
"733 0 LINE",
"436 693 LINE",
"417 693 LINE",
"151 66 LINE SMOOTH",
"146 54 OFFCURVE",
"136 43 OFFCURVE",
"121 43 CURVE SMOOTH",
"103 43 OFFCURVE",
"88 58 OFFCURVE",
"84 73 CURVE",
"31 62 LINE",
"39 18 OFFCURVE",
"79 -13 OFFCURVE",
"122 -13 CURVE SMOOTH"
);
},
{
closed = 1;
nodes = (
"416 552 LINE",
"426 592 LINE",
"437 552 LINE",
"550 284 LINE",
"303 284 LINE"
);
}
);
width = 766;
},
{
anchors = (
{
name = bottom;
position = "{430, 11}";
},
{
name = ogonek;
position = "{744, -1}";
},
{
name = top;
position = "{428, 684}";
}
);
layerId = "0CAF3BED-C4AC-4024-B3E1-4C69D1EF7EC0";
paths = (
{
closed = 1;
nodes = (
"169 -9 OFFCURVE",
"207 13 OFFCURVE",
"223 50 CURVE SMOOTH",
"294 220 LINE",
"565 220 LINE",
"657 -1 LINE",
"744 -1 LINE",
"446 688 LINE",
"412 688 LINE",
"156 94 LINE SMOOTH",
"150 79 OFFCURVE",
"143 65 OFFCURVE",
"129 65 CURVE SMOOTH",
"113 65 OFFCURVE",
"101 81 OFFCURVE",
"99 98 CURVE",
"32 84 LINE",
"34 32 OFFCURVE",
"78 -9 OFFCURVE",
"133 -9 CURVE SMOOTH"
);
},
{
closed = 1;
nodes = (
"440 579 LINE",
"419 576 LINE",
"531 294 LINE",
"324 291 LINE"
);
}
);
width = 777;
},
{
anchors = (
{
name = bottom;
position = "{420, -6}";
},
{
name = ogonek;
position = "{721, 1}";
},
{
name = top;
position = "{420, 684}";
}
);
layerId = "49C16FD3-6177-408B-A733-AEB3898BB77C";
paths = (
{
closed = 1;
nodes = (
"143 -9 OFFCURVE",
"173 8 OFFCURVE",
"187 42 CURVE SMOOTH",
"264 233 LINE",
"575 233 LINE",
"672 1 LINE",
"721 1 LINE",
"425 692 LINE",
"415 692 LINE",
"146 62 LINE SMOOTH",
"141 48 OFFCURVE",
"128 34 OFFCURVE",
"110 34 CURVE SMOOTH",
"91 34 OFFCURVE",
"74 48 OFFCURVE",
"68 62 CURVE",
"26 55 LINE",
"36 16 OFFCURVE",
"71 -9 OFFCURVE",
"110 -9 CURVE SMOOTH"
);
},
{
closed = 1;
nodes = (
"402 560 LINE",
"402 559 LINE",
"419 619 LINE",
"437 559 LINE",
"437 560 LINE",
"556 277 LINE",
"283 277 LINE"
);
}
);
width = 749;
}
);
leftKerningGroup = A;
rightKerningGroup = A;
unicode = 0041;
userData = {
position = 666;
width = 20;
};
},
{
glyphname = A.ss01;
lastChange = "2019-09-25 07:51:19 +0000";
layers = (
{
anchors = (
{
name = bottom;
position = "{341, 0}";
},
{
name = ogonek;
position = "{648, 0}";
},
{
name = top;
position = "{330, 703}";
}
);
layerId = "873CAA12-270D-4223-A88E-AE8E101FDBE8";
paths = (
{
closed = 1;
nodes = (
"97 0 LINE",
"192 227 LINE",
"487 227 LINE",
"584 0 LINE",
"648 0 LINE",
"349 703 LINE",
"330 703 LINE",
"33 0 LINE"
);
},
{
closed = 1;
nodes = (
"315 517 LINE SMOOTH",
"325 541 OFFCURVE",
"334 573 OFFCURVE",
"339 595 CURVE",
"344 574 OFFCURVE",
"353 542 OFFCURVE",
"364 517 CURVE SMOOTH",
"463 284 LINE",
"216 284 LINE"
);
}
);
width = 681;
},
{
anchors = (
{
name = bottom;
position = "{349, 0}";
},
{
name = ogonek;
position = "{664, -1}";
},
{
name = top;
position = "{352, 701}";
}
);
layerId = "0CAF3BED-C4AC-4024-B3E1-4C69D1EF7EC0";
paths = (
{
closed = 1;
nodes = (
"120 -1 LINE",
"212 220 LINE",
"483 220 LINE",
"577 -1 LINE",
"664 -1 LINE",
"364 705 LINE",
"331 705 LINE",
"33 -1 LINE"
);
},
{
closed = 1;
nodes = (
"334 508 LINE SMOOTH",
"339 519 OFFCURVE",
"343 552 OFFCURVE",
"347 564 CURVE",
"351 552 OFFCURVE",
"356 519 OFFCURVE",
"361 508 CURVE SMOOTH",
"450 298 LINE",
"245 298 LINE"
);
}
);
width = 697;
},
{
anchors = (
{
name = bottom;
position = "{332, 0}";
},
{
name = ogonek;
position = "{635, 1}";
},
{
name = top;
position = "{336, 704}";
}
);
layerId = "49C16FD3-6177-408B-A733-AEB3898BB77C";
paths = (
{
closed = 1;
nodes = (
"79 1 LINE",
"176 233 LINE",
"486 233 LINE",
"585 1 LINE",
"635 1 LINE",
"336 704 LINE",
"326 704 LINE",
"29 1 LINE"
);
},
{
closed = 1;
nodes = (
"299 524 LINE SMOOTH",
"313 558 OFFCURVE",
"325 607 OFFCURVE",
"330 623 CURVE",
"335 608 OFFCURVE",
"347 559 OFFCURVE",
"362 524 CURVE SMOOTH",
"468 277 LINE",
"194 277 LINE"
);
}
);
width = 663;
}
);
leftKerningGroup = Atext;
rightKerningGroup = A;
userData = {
position = 10;
width = 615;
};
},
{
glyphname = A.swsh;
lastChange = "2019-09-24 12:31:56 +0000";
layers = (
{
anchors = (
{
name = bottom;
position = "{432, 0}";
},
{
name = ogonek;
position = "{737, 0}";
},
{
name = top;
position = "{432, 684}";
}
);
layerId = "873CAA12-270D-4223-A88E-AE8E101FDBE8";
paths = (
{
closed = 1;
nodes = (
"225 80 LINE",
"284 227 LINE",
"579 227 LINE",
"674 0 LINE",
"738 0 LINE",
"441 693 LINE",
"422 693 LINE",
"162 81 LINE"
);
},
{
closed = 1;
nodes = (
"421 552 LINE",
"431 592 LINE",
"442 552 LINE",
"555 284 LINE",
"308 284 LINE"
);
},
{
closed = 1;
nodes = (
"166 92 LINE SMOOTH",
"156 69 OFFCURVE",
"151 58 OFFCURVE",
"144 51 CURVE SMOOTH",
"124 30 OFFCURVE",
"79 52 OFFCURVE",
"94 84 CURVE",
"43 107 LINE",
"16 46 OFFCURVE",
"62 -13 OFFCURVE",
"126 -12 CURVE SMOOTH",
"172 -11 OFFCURVE",
"197 8 OFFCURVE",
"221 70 CURVE SMOOTH",
"278 212 LINE",
"225 229 LINE"
);
}
);
width = 771;
},
{
anchors = (
{
name = bottom;
position = "{438, 11}";
},
{
name = ogonek;
position = "{752, -1}";
},
{
name = top;
position = "{436, 684}";
}
);
layerId = "0CAF3BED-C4AC-4024-B3E1-4C69D1EF7EC0";
paths = (
{
closed = 1;
nodes = (
"239 69 LINE",
"302 220 LINE",
"573 220 LINE",
"665 -1 LINE",
"752 -1 LINE",
"454 688 LINE",
"420 688 LINE",
"172 113 LINE"
);
},
{
closed = 1;
nodes = (
"448 579 LINE",
"427 576 LINE",
"539 294 LINE",
"332 291 LINE"
);
},
{
closed = 1;
nodes = (
"123 61 OFFCURVE",
"108 75 OFFCURVE",
"116 94 CURVE",
"52 133 LINE",
"7 54 OFFCURVE",
"71 -14 OFFCURVE",
"138 -14 CURVE SMOOTH",
"189 -14 OFFCURVE",
"217 19 OFFCURVE",
"238 65 CURVE",
"286 182 LINE",
"219 222 LINE",
"170 108 LINE SMOOTH",
"160 84 OFFCURVE",
"153 63 OFFCURVE",
"137 62 CURVE SMOOTH"
);
}
);
width = 785;
},
{
anchors = (
{
name = bottom;
position = "{424, -6}";
},
{
name = ogonek;
position = "{725, 1}";
},
{
name = top;
position = "{424, 684}";
}
);
layerId = "49C16FD3-6177-408B-A733-AEB3898BB77C";
paths = (
{
closed = 1;
nodes = (
"194 49 LINE",
"268 233 LINE",
"579 233 LINE",
"676 1 LINE",
"725 1 LINE",
"429 692 LINE",
"419 692 LINE",
"154 70 LINE"
);
},
{
closed = 1;
nodes = (
"406 560 LINE",
"406 559 LINE",
"423 619 LINE",
"441 559 LINE",
"441 560 LINE",
"560 277 LINE",
"287 277 LINE"
);
},
{
closed = 1;
nodes = (
"154 70 LINE",
"142 44 OFFCURVE",
"132 35 OFFCURVE",
"116 33 CURVE",
"89 29 OFFCURVE",
"65 54 OFFCURVE",
"77 82 CURVE",
"38 100 LINE",
"-3 7 OFFCURVE",
"131 -58 OFFCURVE",
"185 31 CURVE",
"188 36 OFFCURVE",
"190 40 OFFCURVE",
"194 49 CURVE",
"268 233 LINE",
"217 219 LINE"
);
}
);
width = 753;
}
);
leftKerningGroup = A;
rightKerningGroup = A;
userData = {
position = 666;
width = 20;
};
},
{
glyphname = AE;
lastChange = "2019-09-25 07:53:25 +0000";
layers = (
{
anchors = (
{
name = bottom;
position = "{563, 0}";
},
{
name = top;
position = "{573, 682}";
}
);
layerId = "873CAA12-270D-4223-A88E-AE8E101FDBE8";
paths = (
{
closed = 1;
nodes = (
"300 227 LINE",
"512 227 LINE",
"512 0 LINE",
"960 0 LINE",
"960 57 LINE",
"573 57 LINE",
"573 333 LINE",
"840 333 LINE",
"840 390 LINE",
"573 390 LINE",
"573 627 LINE",
"940 627 LINE",
"940 684 LINE",
"489 684 LINE",
"152 62 LINE SMOOTH",
"146 51 OFFCURVE",
"134 41 OFFCURVE",
"119 43 CURVE SMOOTH",
"101 45 OFFCURVE",
"88 62 OFFCURVE",
"86 77 CURVE",
"32 73 LINE",
"35 28 OFFCURVE",
"71 -7 OFFCURVE",
"113 -13 CURVE SMOOTH",
"147 -18 OFFCURVE",
"183 -4 OFFCURVE",
"201 31 CURVE SMOOTH"
);
},
{
closed = 1;
nodes = (
"501 587 LINE",
"512 623 LINE",
"512 284 LINE",
"327 284 LINE"
);
}
);
width = 1002;
},
{
anchors = (
{
name = bottom;
position = "{559, 0}";
},
{
name = top;
position = "{570, 673}";
}
);
layerId = "0CAF3BED-C4AC-4024-B3E1-4C69D1EF7EC0";
paths = (
{
closed = 1;
nodes = (
"312 220 LINE",
"499 220 LINE",
"499 -1 LINE",
"957 -1 LINE",
"957 78 LINE",
"582 78 LINE",
"582 322 LINE",
"839 322 LINE",
"839 401 LINE",
"582 401 LINE",
"582 608 LINE",
"937 608 LINE",
"937 686 LINE",
"482 686 LINE",
"151 79 LINE",
"147 70 OFFCURVE",
"138 64 OFFCURVE",
"129 65 CURVE SMOOTH",
"113 67 OFFCURVE",
"101 79 OFFCURVE",
"100 96 CURVE",
"32 84 LINE",
"32 32 OFFCURVE",
"80 -11 OFFCURVE",
"130 -12 CURVE SMOOTH",
"166 -13 OFFCURVE",
"205 7 OFFCURVE",
"222 44 CURVE"
);
},
{
closed = 1;
nodes = (
"503 563 LINE",
"499 538 LINE",
"499 298 LINE",
"350 298 LINE"
);
}
);
width = 1003;
},
{
anchors = (
{
name = bottom;
position = "{548, 0}";
},
{
name = top;
position = "{556, 690}";
}
);
layerId = "49C16FD3-6177-408B-A733-AEB3898BB77C";
paths = (
{
closed = 1;
nodes = (
"284 233 LINE",
"501 233 LINE",
"501 1 LINE",
"944 1 LINE",
"944 45 LINE",
"549 45 LINE",
"549 341 LINE",
"822 341 LINE",
"822 385 LINE",
"549 385 LINE",
"549 641 LINE",
"924 641 LINE",
"924 685 LINE",
"475 685 LINE",
"147 75 LINE",
"137 60 OFFCURVE",
"129 44 OFFCURVE",
"112 40 CURVE SMOOTH",
"93 36 OFFCURVE",
"73 48 OFFCURVE",
"65 60 CURVE",
"25 45 LINE",
"42 8 OFFCURVE",
"82 -10 OFFCURVE",
"120 -2 CURVE SMOOTH",
"152 5 OFFCURVE",
"167 27 OFFCURVE",
"191 63 CURVE"
);
},
{
closed = 1;
nodes = (
"476 595 LINE",
"500 643 LINE",
"501 277 LINE",
"304 277 LINE"
);
}
);
width = 979;
}
);
leftKerningGroup = A;
unicode = 00C6;
userData = {
position = 422;
width = 61;
};
},
{
glyphname = AE.ss01;
lastChange = "2019-09-25 07:54:07 +0000";
layers = (
{
anchors = (
{
name = bottom;
position = "{484, 0}";
},
{
name = top;
position = "{494, 682}";
}
);
layerId = "873CAA12-270D-4223-A88E-AE8E101FDBE8";
paths = (
{
closed = 1;
nodes = (
"104 0 LINE",
"221 227 LINE",
"433 227 LINE",
"433 0 LINE",
"881 0 LINE",
"881 57 LINE",
"494 57 LINE",
"494 333 LINE",
"761 333 LINE",
"761 390 LINE",
"494 390 LINE",
"494 627 LINE",
"861 627 LINE",
"861 684 LINE",
"410 684 LINE",
"31 0 LINE"
);
},
{
closed = 1;
nodes = (
"422 587 LINE",
"433 623 LINE",
"433 284 LINE",
"248 284 LINE"
);
}
);
width = 923;
},
{
anchors = (
{
name = bottom;
position = "{489, 0}";
},
{
name = top;
position = "{500, 673}";
}
);
layerId = "0CAF3BED-C4AC-4024-B3E1-4C69D1EF7EC0";
paths = (
{
closed = 1;
nodes = (
"128 -1 LINE",
"242 220 LINE",
"429 220 LINE",
"429 -1 LINE",
"887 -1 LINE",
"887 78 LINE",
"512 78 LINE",
"512 322 LINE",
"769 322 LINE",
"769 401 LINE",
"512 401 LINE",
"512 608 LINE",
"867 608 LINE",
"867 686 LINE",
"412 686 LINE",
"31 -1 LINE"
);
},
{
closed = 1;
nodes = (
"429 584 LINE",
"429 298 LINE",
"280 298 LINE"
);
}
);
width = 933;
},
{
anchors = (
{
name = bottom;
position = "{478, 0}";
},
{
name = top;
position = "{486, 690}";
}
);
layerId = "49C16FD3-6177-408B-A733-AEB3898BB77C";
paths = (
{
closed = 1;
nodes = (
"84 1 LINE",
"204 233 LINE",
"431 233 LINE",
"431 1 LINE",
"874 1 LINE",
"874 45 LINE",
"479 45 LINE",
"479 341 LINE",
"752 341 LINE",
"752 385 LINE",
"479 385 LINE",
"479 641 LINE",
"854 641 LINE",
"854 685 LINE",
"405 685 LINE",
"26 1 LINE"
);
},
{
closed = 1;
nodes = (
"406 595 LINE",
"431 654 LINE",
"431 277 LINE",
"224 277 LINE"
);
}
);
width = 909;
}
);
leftKerningGroup = Atext;
userData = {
position = 422;
width = 61;
};
},
{
glyphname = B;
lastChange = "2019-09-25 07:46:00 +0000";
layers = (
{
anchors = (
{
name = bottom;
position = "{323, 0}";
},
{
name = top;
position = "{323, 684}";
}
);
layerId = "873CAA12-270D-4223-A88E-AE8E101FDBE8";
paths = (
{
closed = 1;
nodes = (
"482 -10 OFFCURVE",
"591 47 OFFCURVE",
"591 182 CURVE SMOOTH",
"591 262 OFFCURVE",
"553 322 OFFCURVE",
"486 358 CURVE",
"454 368 LINE",
"477 375 OFFCURVE",
"482 378 OFFCURVE",
"484 379 CURVE SMOOTH",
"530 403 OFFCURVE",
"560 452 OFFCURVE",
"560 515 CURVE SMOOTH",
"560 622 OFFCURVE",
"474 695 OFFCURVE",
"358 695 CURVE SMOOTH",
"136 695 LINE SMOOTH",
"107 695 OFFCURVE",
"83 683 OFFCURVE",
"63 663 CURVE SMOOTH",
"44 644 OFFCURVE",
"33 619 OFFCURVE",
"33 590 CURVE",
"89 590 LINE",
"89 600 OFFCURVE",
"94 616 OFFCURVE",
"104 626 CURVE SMOOTH",
"113 635 OFFCURVE",
"126 639 OFFCURVE",
"157 639 CURVE",
"157 1 LINE",
"210 -5 LINE SMOOTH",
"251 -9 OFFCURVE",
"307 -10 OFFCURVE",
"327 -10 CURVE SMOOTH"
);
},
{
closed = 1;
nodes = (
"311 45 OFFCURVE",
"307 46 OFFCURVE",
"218 50 CURVE",
"218 639 LINE",
"372 639 LINE",
"447 635 OFFCURVE",
"500 595 OFFCURVE",
"500 515 CURVE SMOOTH",
"500 476 OFFCURVE",
"487 445 OFFCURVE",
"461 423 CURVE SMOOTH",
"436 402 OFFCURVE",
"399 390 OFFCURVE",
"357 390 CURVE SMOOTH",
"269 390 LINE",
"269 335 LINE",
"364 335 LINE SMOOTH",
"456 335 OFFCURVE",
"532 281 OFFCURVE",
"532 183 CURVE SMOOTH",
"532 81 OFFCURVE",
"451 45 OFFCURVE",
"331 45 CURVE SMOOTH"
);
}
);
width = 647;
},
{
anchors = (
{
name = bottom;
position = "{328, 0}";
},
{
name = top;
position = "{328, 684}";
}
);
layerId = "0CAF3BED-C4AC-4024-B3E1-4C69D1EF7EC0";
paths = (
{
closed = 1;
nodes = (
"485 -10 OFFCURVE",
"599 50 OFFCURVE",
"599 188 CURVE SMOOTH",
"599 269 OFFCURVE",
"559 333 OFFCURVE",
"490 369 CURVE",
"458 379 LINE",
"458 357 LINE",
"482 364 OFFCURVE",
"488 368 OFFCURVE",
"489 368 CURVE",
"537 393 OFFCURVE",
"569 446 OFFCURVE",
"569 511 CURVE SMOOTH",
"569 620 OFFCURVE",
"479 697 OFFCURVE",
"362 697 CURVE SMOOTH",
"146 697 LINE SMOOTH",
"116 697 OFFCURVE",
"88 683 OFFCURVE",
"67 662 CURVE SMOOTH",
"48 643 OFFCURVE",
"35 615 OFFCURVE",
"35 585 CURVE SMOOTH",
"35 580 OFFCURVE",
"36 576 OFFCURVE",
"36 572 CURVE",
"101 572 LINE",
"101 598 OFFCURVE",
"118 619 OFFCURVE",
"155 619 CURVE",
"155 2 LINE",
"217 -5 LINE SMOOTH",
"257 -9 OFFCURVE",
"312 -10 OFFCURVE",
"332 -10 CURVE SMOOTH"
);
},
{
closed = 1;
nodes = (
"318 66 OFFCURVE",
"288 69 OFFCURVE",
"238 71 CURVE",
"238 619 LINE",
"375 619 LINE SMOOTH",
"442 616 OFFCURVE",
"488 580 OFFCURVE",
"488 511 CURVE SMOOTH",
"488 475 OFFCURVE",
"477 450 OFFCURVE",
"454 430 CURVE SMOOTH",
"432 411 OFFCURVE",
"400 400 OFFCURVE",
"361 400 CURVE SMOOTH",
"265 399 LINE",
"264 325 LINE",
"368 325 LINE SMOOTH",
"451 325 OFFCURVE",
"519 276 OFFCURVE",
"519 189 CURVE SMOOTH",
"519 99 OFFCURVE",
"448 66 OFFCURVE",
"336 66 CURVE SMOOTH"
);
}
);
width = 655;
},
{
anchors = (
{
name = bottom;
position = "{321, 0}";
},
{
name = top;
position = "{321, 684}";
}
);
layerId = "49C16FD3-6177-408B-A733-AEB3898BB77C";
paths = (
{
closed = 1;
nodes = (
"477 -9 OFFCURVE",
"582 46 OFFCURVE",
"582 180 CURVE SMOOTH",
"582 259 OFFCURVE",
"546 317 OFFCURVE",
"480 353 CURVE",
"425 370 LINE",
"468 381 OFFCURVE",
"474 385 OFFCURVE",
"477 387 CURVE SMOOTH",
"522 410 OFFCURVE",
"551 457 OFFCURVE",
"551 519 CURVE SMOOTH",
"551 625 OFFCURVE",
"467 696 OFFCURVE",
"352 696 CURVE SMOOTH",
"125 696 LINE SMOOTH",
"97 696 OFFCURVE",
"76 685 OFFCURVE",
"56 665 CURVE SMOOTH",
"39 648 OFFCURVE",
"29 628 OFFCURVE",
"28 603 CURVE",
"71 603 LINE",
"73 614 OFFCURVE",
"78 628 OFFCURVE",
"88 638 CURVE SMOOTH",
"99 649 OFFCURVE",
"118 654 OFFCURVE",
"156 653 CURVE",
"156 1 LINE",
"202 -4 LINE SMOOTH",
"243 -8 OFFCURVE",
"300 -9 OFFCURVE",
"320 -9 CURVE SMOOTH"
);
},
{
closed = 1;
nodes = (
"302 33 OFFCURVE",
"299 34 OFFCURVE",
"202 38 CURVE",
"202 653 LINE",
"366 653 LINE",
"445 649 OFFCURVE",
"504 604 OFFCURVE",
"504 519 CURVE SMOOTH",
"504 478 OFFCURVE",
"489 444 OFFCURVE",
"461 420 CURVE SMOOTH",
"435 398 OFFCURVE",
"395 385 OFFCURVE",
"351 385 CURVE SMOOTH",
"268 385 LINE",
"268 343 LINE",
"358 343 LINE SMOOTH",
"454 343 OFFCURVE",
"536 284 OFFCURVE",
"536 181 CURVE SMOOTH",
"536 72 OFFCURVE",
"448 33 OFFCURVE",
"324 33 CURVE SMOOTH"
);
}
);
width = 633;
}
);
leftKerningGroup = E;
rightKerningGroup = B;
unicode = 0042;
userData = {
position = 514;
width = 59;
};
},
{
glyphname = B.ss01;
lastChange = "2019-09-24 13:19:03 +0000";
layers = (
{
anchors = (
{
name = bottom;
position = "{295, 0}";
},
{
name = top;
position = "{295, 684}";
}
);
layerId = "873CAA12-270D-4223-A88E-AE8E101FDBE8";
paths = (
{
closed = 1;
nodes = (
"333 -10 OFFCURVE",
"368 -6 OFFCURVE",
"399 4 CURVE SMOOTH",
"489 33 OFFCURVE",
"533 106 OFFCURVE",
"533 185 CURVE SMOOTH",
"533 261 OFFCURVE",
"493 324 OFFCURVE",
"428 358 CURVE SMOOTH",
"423 361 OFFCURVE",
"417 363 OFFCURVE",
"396 368 CURVE",
"419 375 OFFCURVE",
"424 378 OFFCURVE",
"426 379 CURVE SMOOTH",
"479 409 OFFCURVE",
"502 456 OFFCURVE",
"502 514 CURVE SMOOTH",
"502 594 OFFCURVE",
"457 655 OFFCURVE",
"382 682 CURVE SMOOTH",
"357 691 OFFCURVE",
"330 695 OFFCURVE",
"300 695 CURVE SMOOTH",
"99 695 LINE",
"99 639 LINE",
"314 639 LINE",
"395 633 OFFCURVE",
"442 592 OFFCURVE",
"442 518 CURVE SMOOTH",
"442 433 OFFCURVE",
"381 390 OFFCURVE",
"299 390 CURVE SMOOTH",
"141 390 LINE",
"141 335 LINE",
"306 335 LINE SMOOTH",
"415 335 OFFCURVE",
"474 270 OFFCURVE",
"474 185 CURVE SMOOTH",
"474 92 OFFCURVE",
"403 45 OFFCURVE",
"292 45 CURVE SMOOTH",
"276 45 OFFCURVE",
"249 46 OFFCURVE",
"225 47 CURVE SMOOTH",
"160 50 LINE",
"160 652 LINE",
"99 652 LINE",
"99 1 LINE",
"152 -5 LINE SMOOTH",
"189 -9 OFFCURVE",
"257 -10 OFFCURVE",
"282 -10 CURVE SMOOTH"
);
}
);
width = 589;
},
{
anchors = (
{
name = bottom;
position = "{300, 0}";
},
{
name = top;
position = "{300, 684}";
}
);
layerId = "0CAF3BED-C4AC-4024-B3E1-4C69D1EF7EC0";
paths = (
{
closed = 1;
nodes = (
"338 -10 OFFCURVE",
"374 -6 OFFCURVE",
"405 4 CURVE SMOOTH",
"496 33 OFFCURVE",
"543 111 OFFCURVE",
"543 191 CURVE SMOOTH",
"543 268 OFFCURVE",
"510 323 OFFCURVE",
"447 357 CURVE SMOOTH",
"437 363 OFFCURVE",
"419 369 OFFCURVE",
"411 369 CURVE",
"423 373 OFFCURVE",
"428 375 OFFCURVE",
"432 377 CURVE SMOOTH",
"487 407 OFFCURVE",
"513 451 OFFCURVE",
"513 510 CURVE SMOOTH",
"513 591 OFFCURVE",
"465 656 OFFCURVE",
"389 684 CURVE SMOOTH",
"363 693 OFFCURVE",
"335 697 OFFCURVE",
"305 697 CURVE SMOOTH",
"99 697 LINE",
"99 619 LINE",
"318 619 LINE",
"391 614 OFFCURVE",
"431 578 OFFCURVE",
"431 514 CURVE SMOOTH",
"431 439 OFFCURVE",
"378 401 OFFCURVE",
"304 401 CURVE SMOOTH",
"139 401 LINE",
"139 324 LINE",
"311 324 LINE SMOOTH",
"410 324 OFFCURVE",
"462 267 OFFCURVE",
"462 191 CURVE SMOOTH",
"462 109 OFFCURVE",
"400 66 OFFCURVE",
"298 66 CURVE SMOOTH",
"282 66 OFFCURVE",
"256 67 OFFCURVE",
"233 68 CURVE SMOOTH",
"181 71 LINE",
"181 655 LINE",
"99 655 LINE",
"99 2 LINE",
"160 -5 LINE SMOOTH",
"197 -9 OFFCURVE",
"264 -10 OFFCURVE",
"288 -10 CURVE SMOOTH"
);
}
);
width = 599;
},
{
anchors = (
{
name = bottom;
position = "{285, 0}";
},
{
name = top;
position = "{285, 684}";
}
);
layerId = "49C16FD3-6177-408B-A733-AEB3898BB77C";
paths = (
{
closed = 1;
nodes = (
"325 -9 OFFCURVE",
"360 -5 OFFCURVE",
"391 5 CURVE SMOOTH",
"480 34 OFFCURVE",
"523 104 OFFCURVE",
"523 183 CURVE SMOOTH",
"523 258 OFFCURVE",
"484 319 OFFCURVE",
"419 353 CURVE",
"413 357 OFFCURVE",
"406 358 OFFCURVE",
"362 369 CURVE",
"408 381 OFFCURVE",
"414 385 OFFCURVE",
"417 387 CURVE SMOOTH",
"469 416 OFFCURVE",
"491 461 OFFCURVE",
"491 518 CURVE SMOOTH",
"491 598 OFFCURVE",
"448 656 OFFCURVE",
"373 683 CURVE SMOOTH",
"348 692 OFFCURVE",
"322 696 OFFCURVE",
"292 696 CURVE SMOOTH",
"94 696 LINE",
"94 653 LINE",
"307 653 LINE",
"392 647 OFFCURVE",
"444 601 OFFCURVE",
"444 522 CURVE SMOOTH",
"444 432 OFFCURVE",
"377 385 OFFCURVE",
"291 385 CURVE SMOOTH",
"137 385 LINE",
"137 343 LINE",
"298 343 LINE SMOOTH",
"413 343 OFFCURVE",
"477 272 OFFCURVE",
"477 183 CURVE SMOOTH",
"477 84 OFFCURVE",
"399 33 OFFCURVE",
"284 33 CURVE SMOOTH",
"267 33 OFFCURVE",
"240 34 OFFCURVE",
"215 35 CURVE SMOOTH",
"142 38 LINE",
"142 662 LINE",
"94 662 LINE",
"94 11 LINE",
"142 -4 LINE SMOOTH",
"178 -15 OFFCURVE",
"248 -9 OFFCURVE",
"274 -9 CURVE SMOOTH"
);
}
);
width = 573;
}
);
leftKerningGroup = L;
rightKerningGroup = B;
userData = {
position = 494;
width = 59;
};
},
{
glyphname = B.swsh;
lastChange = "2019-09-25 07:54:36 +0000";
layers = (
{
anchors = (
{
name = bottom;
position = "{326, 0}";
},
{
name = top;
position = "{326, 684}";
}
);
layerId = "873CAA12-270D-4223-A88E-AE8E101FDBE8";
paths = (
{
closed = 1;
nodes = (
"497 -10 OFFCURVE",
"596 48 OFFCURVE",
"596 181 CURVE SMOOTH",
"596 267 OFFCURVE",
"554 324 OFFCURVE",
"491 358 CURVE SMOOTH",
"488 360 OFFCURVE",
"482 362 OFFCURVE",
"459 368 CURVE",
"481 375 OFFCURVE",
"484 376 OFFCURVE",
"489 379 CURVE SMOOTH",
"537 407 OFFCURVE",
"565 453 OFFCURVE",
"565 514 CURVE SMOOTH",
"565 574 OFFCURVE",
"537 650 OFFCURVE",
"445 682 CURVE SMOOTH",
"419 691 OFFCURVE",
"392 695 OFFCURVE",
"363 695 CURVE SMOOTH",
"141 695 LINE SMOOTH",
"85 695 OFFCURVE",
"38 648 OFFCURVE",
"38 589 CURVE SMOOTH",
"38 552 OFFCURVE",
"56 519 OFFCURVE",
"88 500 CURVE",
"117 548 LINE",
"103 557 OFFCURVE",
"94 571 OFFCURVE",
"94 589 CURVE SMOOTH",
"94 617 OFFCURVE",
"117 639 OFFCURVE",
"143 639 CURVE SMOOTH",
"377 639 LINE",
"456 634 OFFCURVE",
"505 593 OFFCURVE",
"505 517 CURVE SMOOTH",
"505 432 OFFCURVE",
"444 390 OFFCURVE",
"362 390 CURVE SMOOTH",
"274 390 LINE",
"274 335 LINE",
"369 335 LINE SMOOTH",
"459 335 OFFCURVE",
"537 284 OFFCURVE",
"537 185 CURVE SMOOTH",
"537 89 OFFCURVE",
"465 45 OFFCURVE",
"339 45 CURVE SMOOTH",
"320 45 OFFCURVE",
"308 46 OFFCURVE",
"288 47 CURVE SMOOTH",
"223 50 LINE",
"223 592 LINE",
"162 592 LINE",
"162 1 LINE",
"215 -5 LINE SMOOTH",
"250 -7 OFFCURVE",
"279 -10 OFFCURVE",
"319 -10 CURVE SMOOTH"
);
}
);
width = 652;
},
{
anchors = (
{
name = bottom;
position = "{334, 0}";
},
{
name = top;
position = "{334, 684}";
}
);
layerId = "0CAF3BED-C4AC-4024-B3E1-4C69D1EF7EC0";
paths = (
{
closed = 1;
nodes = (
"508 -10 OFFCURVE",
"612 51 OFFCURVE",
"612 187 CURVE SMOOTH",
"612 267 OFFCURVE",
"574 331 OFFCURVE",
"505 368 CURVE",
"505 368 OFFCURVE",
"504 368 OFFCURVE",
"503 369 CURVE",
"552 397 OFFCURVE",
"582 447 OFFCURVE",
"582 510 CURVE SMOOTH",
"582 570 OFFCURVE",
"553 651 OFFCURVE",
"458 684 CURVE SMOOTH",
"432 693 OFFCURVE",
"404 697 OFFCURVE",
"375 697 CURVE SMOOTH",
"149 697 LINE SMOOTH",
"90 697 OFFCURVE",
"38 645 OFFCURVE",
"38 582 CURVE SMOOTH",
"38 540 OFFCURVE",
"62 499 OFFCURVE",
"102 481 CURVE",
"142 547 LINE",
"124 556 OFFCURVE",
"116 565 OFFCURVE",
"116 582 CURVE SMOOTH",
"116 603 OFFCURVE",
"133 619 OFFCURVE",
"151 619 CURVE SMOOTH",
"388 619 LINE",
"458 615 OFFCURVE",
"501 579 OFFCURVE",
"501 513 CURVE SMOOTH",
"501 438 OFFCURVE",
"448 401 OFFCURVE",
"374 401 CURVE SMOOTH",
"277 401 LINE",
"277 324 LINE",
"381 324 LINE SMOOTH",
"462 324 OFFCURVE",
"532 278 OFFCURVE",
"532 191 CURVE SMOOTH",
"532 106 OFFCURVE",
"468 66 OFFCURVE",
"352 66 CURVE SMOOTH",
"334 66 OFFCURVE",
"322 67 OFFCURVE",
"302 68 CURVE SMOOTH",
"251 71 LINE",
"251 569 LINE",
"168 569 LINE",
"168 2 LINE",
"230 -5 LINE",
"231 -5 LINE SMOOTH",
"264 -7 OFFCURVE",
"293 -10 OFFCURVE",
"332 -10 CURVE SMOOTH"
);
}
);
width = 668;
},
{
anchors = (
{
name = bottom;
position = "{323, 0}";
},
{
name = top;
position = "{323, 684}";
}
);
layerId = "49C16FD3-6177-408B-A733-AEB3898BB77C";
paths = (
{
closed = 1;
nodes = (
"493 -9 OFFCURVE",
"588 47 OFFCURVE",
"588 179 CURVE SMOOTH",
"588 264 OFFCURVE",
"548 319 OFFCURVE",
"485 353 CURVE SMOOTH",
"481 355 OFFCURVE",
"475 357 OFFCURVE",
"430 369 CURVE",
"475 383 OFFCURVE",
"477 383 OFFCURVE",
"483 387 CURVE SMOOTH",
"530 414 OFFCURVE",
"557 458 OFFCURVE",
"557 518 CURVE SMOOTH",
"557 578 OFFCURVE",
"530 651 OFFCURVE",
"439 683 CURVE SMOOTH",
"413 692 OFFCURVE",
"387 696 OFFCURVE",
"358 696 CURVE SMOOTH",
"131 696 LINE SMOOTH",
"77 696 OFFCURVE",
"33 652 OFFCURVE",
"33 595 CURVE SMOOTH",
"33 561 OFFCURVE",
"48 533 OFFCURVE",
"75 514 CURVE",
"97 551 LINE",
"85 561 OFFCURVE",
"76 577 OFFCURVE",
"76 595 CURVE SMOOTH",
"76 626 OFFCURVE",
"104 653 OFFCURVE",
"133 653 CURVE SMOOTH",
"372 653 LINE",
"455 648 OFFCURVE",
"510 602 OFFCURVE",
"510 521 CURVE SMOOTH",
"510 431 OFFCURVE",
"443 385 OFFCURVE",
"357 385 CURVE SMOOTH",
"274 385 LINE",
"274 343 LINE",
"364 343 LINE SMOOTH",
"458 343 OFFCURVE",
"542 288 OFFCURVE",
"542 183 CURVE SMOOTH",
"542 81 OFFCURVE",
"464 33 OFFCURVE",
"333 33 CURVE SMOOTH",
"314 33 OFFCURVE",
"301 34 OFFCURVE",
"281 34 CURVE SMOOTH",
"208 38 LINE",
"208 591 LINE",
"160 591 LINE",
"160 1 LINE",
"208 -4 LINE SMOOTH",
"243 -6 OFFCURVE",
"272 -9 OFFCURVE",
"313 -9 CURVE SMOOTH"
);
}
);
width = 639;
}
);
leftKerningGroup = Swash;
rightKerningGroup = B;
userData = {
position = 514;
width = 59;
};
},
{
glyphname = C;
lastChange = "2019-09-24 06:42:06 +0000";
layers = (
{
anchors = (
{
name = bottom;
position = "{386, -21}";
},
{
name = top;
position = "{386, 713}";
}
);
layerId = "873CAA12-270D-4223-A88E-AE8E101FDBE8";
paths = (
{
closed = 1;
nodes = (
"510 -22 OFFCURVE",
"618 26 OFFCURVE",
"685 124 CURVE",
"640 155 LINE",
"589 79 OFFCURVE",
"500 33 OFFCURVE",
"404 33 CURVE SMOOTH",
"236 33 OFFCURVE",
"109 171 OFFCURVE",
"109 336 CURVE SMOOTH",
"109 506 OFFCURVE",
"244 655 OFFCURVE",
"410 655 CURVE SMOOTH",
"461 655 OFFCURVE",
"531 641 OFFCURVE",
"568 602 CURVE SMOOTH",
"580 589 OFFCURVE",
"586 576 OFFCURVE",
"586 561 CURVE SMOOTH",
"586 539 OFFCURVE",
"573 521 OFFCURVE",
"554 521 CURVE SMOOTH",
"546 521 OFFCURVE",
"539 524 OFFCURVE",
"531 529 CURVE",
"497 486 LINE",
"513 474 OFFCURVE",
"533 467 OFFCURVE",
"553 467 CURVE SMOOTH",
"603 467 OFFCURVE",
"640 508 OFFCURVE",
"640 560 CURVE SMOOTH",
"640 582 OFFCURVE",
"633 605 OFFCURVE",
"620 625 CURVE SMOOTH",
"579 688 OFFCURVE",
"478 710 OFFCURVE",
"409 710 CURVE SMOOTH",
"216 710 OFFCURVE",
"55 538 OFFCURVE",
"55 336 CURVE SMOOTH",
"55 140 OFFCURVE",
"206 -22 OFFCURVE",
"403 -22 CURVE SMOOTH"
);
}
);
width = 720;
},
{
anchors = (
{
name = bottom;
position = "{387, -9}";
},
{
name = top;
position = "{387, 703}";
}
);
layerId = "0CAF3BED-C4AC-4024-B3E1-4C69D1EF7EC0";
paths = (
{
closed = 1;
nodes = (
"513 -22 OFFCURVE",
"627 30 OFFCURVE",
"693 135 CURVE",
"630 178 LINE",
"583 101 OFFCURVE",
"499 55 OFFCURVE",
"404 55 CURVE SMOOTH",
"248 55 OFFCURVE",
"130 183 OFFCURVE",
"130 337 CURVE SMOOTH",
"130 495 OFFCURVE",
"256 635 OFFCURVE",
"410 635 CURVE SMOOTH",
"458 635 OFFCURVE",
"522 622 OFFCURVE",
"555 587 CURVE SMOOTH",
"565 576 OFFCURVE",
"569 567 OFFCURVE",
"569 555 CURVE SMOOTH",
"569 540 OFFCURVE",
"560 528 OFFCURVE",
"550 528 CURVE SMOOTH",
"543 528 OFFCURVE",
"538 531 OFFCURVE",
"525 540 CURVE",
"479 481 LINE",
"496 464 OFFCURVE",
"523 452 OFFCURVE",
"549 452 CURVE SMOOTH",
"603 452 OFFCURVE",
"645 499 OFFCURVE",
"645 554 CURVE SMOOTH",
"645 577 OFFCURVE",
"637 603 OFFCURVE",
"624 624 CURVE SMOOTH",
"581 689 OFFCURVE",
"477 711 OFFCURVE",
"409 711 CURVE SMOOTH",
"217 711 OFFCURVE",
"54 538 OFFCURVE",
"54 337 CURVE SMOOTH",
"54 142 OFFCURVE",
"207 -22 OFFCURVE",
"403 -22 CURVE SMOOTH"
);
}
);
width = 728;
},
{
anchors = (
{
name = bottom;
position = "{380, -27}";
},
{
name = top;
position = "{380, 721}";
}
);
layerId = "49C16FD3-6177-408B-A733-AEB3898BB77C";
paths = (
{
closed = 1;
nodes = (
"503 -21 OFFCURVE",
"608 24 OFFCURVE",
"675 119 CURVE",
"641 142 LINE",
"588 67 OFFCURVE",
"496 20 OFFCURVE",
"399 20 CURVE SMOOTH",
"224 20 OFFCURVE",
"91 166 OFFCURVE",
"91 337 CURVE SMOOTH",
"91 513 OFFCURVE",
"232 669 OFFCURVE",
"405 669 CURVE SMOOTH",
"458 669 OFFCURVE",
"532 654 OFFCURVE",
"571 613 CURVE SMOOTH",
"584 599 OFFCURVE",
"592 583 OFFCURVE",
"592 566 CURVE SMOOTH",
"592 541 OFFCURVE",
"575 518 OFFCURVE",
"552 518 CURVE SMOOTH",
"544 518 OFFCURVE",
"537 521 OFFCURVE",
"530 524 CURVE",
"504 491 LINE",
"518 482 OFFCURVE",
"534 477 OFFCURVE",
"551 477 CURVE SMOOTH",
"598 477 OFFCURVE",
"632 515 OFFCURVE",
"632 565 CURVE SMOOTH",
"632 587 OFFCURVE",
"626 608 OFFCURVE",
"613 628 CURVE SMOOTH",
"573 689 OFFCURVE",
"473 711 OFFCURVE",
"404 711 CURVE SMOOTH",
"210 711 OFFCURVE",
"50 540 OFFCURVE",
"50 337 CURVE SMOOTH",
"50 140 OFFCURVE",
"200 -21 OFFCURVE",
"398 -21 CURVE SMOOTH"
);
}
);
width = 705;
}
);
leftKerningGroup = O;
rightKerningGroup = C;
unicode = 0043;
userData = {
position = 570;
width = 54;
};
},
{
glyphname = C.ss01;
lastChange = "2019-09-24 13:19:03 +0000";
layers = (
{
anchors = (
{
name = bottom;
position = "{386, -21}";
},
{
name = top;
position = "{386, 713}";
}
);
layerId = "873CAA12-270D-4223-A88E-AE8E101FDBE8";
paths = (
{
closed = 1;
nodes = (
"510 -22 OFFCURVE",
"618 26 OFFCURVE",
"685 124 CURVE",
"640 155 LINE",
"589 79 OFFCURVE",
"500 33 OFFCURVE",
"404 33 CURVE SMOOTH",
"236 33 OFFCURVE",
"109 172 OFFCURVE",
"109 333 CURVE SMOOTH",
"109 500 OFFCURVE",
"244 655 OFFCURVE",
"402 655 CURVE SMOOTH",
"459 655 OFFCURVE",
"579 640 OFFCURVE",
"586 540 CURVE",
"640 540 LINE",
"633 681 OFFCURVE",
"492 710 OFFCURVE",
"407 710 CURVE SMOOTH",
"217 710 OFFCURVE",
"55 538 OFFCURVE",
"55 336 CURVE SMOOTH",
"55 140 OFFCURVE",
"206 -22 OFFCURVE",
"403 -22 CURVE SMOOTH"
);
}
);
width = 719;
},
{
anchors = (
{
name = bottom;
position = "{388, -9}";
},
{
name = top;
position = "{388, 703}";
}
);
layerId = "0CAF3BED-C4AC-4024-B3E1-4C69D1EF7EC0";
paths = (
{
closed = 1;
nodes = (
"514 -22 OFFCURVE",
"628 30 OFFCURVE",
"694 135 CURVE",
"631 178 LINE",
"584 101 OFFCURVE",
"500 55 OFFCURVE",
"405 55 CURVE SMOOTH",
"249 55 OFFCURVE",
"131 184 OFFCURVE",
"131 334 CURVE SMOOTH",
"131 490 OFFCURVE",
"257 635 OFFCURVE",
"403 635 CURVE SMOOTH",
"460 635 OFFCURVE",
"573 620 OFFCURVE",
"571 523 CURVE",
"646 523 LINE",
"647 680 OFFCURVE",
"494 711 OFFCURVE",
"408 711 CURVE SMOOTH",
"219 711 OFFCURVE",
"55 538 OFFCURVE",
"55 337 CURVE SMOOTH",
"55 142 OFFCURVE",
"208 -22 OFFCURVE",
"404 -22 CURVE SMOOTH"
);
}
);
width = 729;
},
{
anchors = (
{
name = bottom;
position = "{381, -27}";
},
{
name = top;
position = "{381, 721}";
}
);
layerId = "49C16FD3-6177-408B-A733-AEB3898BB77C";
paths = (
{
closed = 1;
nodes = (
"504 -21 OFFCURVE",
"609 24 OFFCURVE",
"676 119 CURVE",
"642 142 LINE",
"589 67 OFFCURVE",
"497 20 OFFCURVE",
"400 20 CURVE SMOOTH",
"225 20 OFFCURVE",
"92 167 OFFCURVE",
"92 334 CURVE SMOOTH",
"92 507 OFFCURVE",
"233 669 OFFCURVE",
"398 669 CURVE SMOOTH",
"455 669 OFFCURVE",
"580 654 OFFCURVE",
"592 552 CURVE",
"633 552 LINE",
"621 684 OFFCURVE",
"487 711 OFFCURVE",
"403 711 CURVE SMOOTH",
"212 711 OFFCURVE",
"51 540 OFFCURVE",
"51 337 CURVE SMOOTH",
"51 140 OFFCURVE",
"201 -21 OFFCURVE",
"399 -21 CURVE SMOOTH"
);
}
);
width = 705;
}
);
leftKerningGroup = O;
rightKerningGroup = C;
userData = {
position = 570;
width = 54;
};
},
{
glyphname = D;
lastChange = "2019-09-24 13:24:52 +0000";
layers = (
{
anchors = (
{
name = bottom;
position = "{404, 0}";
},
{
name = center;
position = "{221, 367}";
},
{
name = top;
position = "{422, 684}";
}
);
layerId = "873CAA12-270D-4223-A88E-AE8E101FDBE8";
paths = (
{
closed = 1;
nodes = (
"603 -9 OFFCURVE",
"753 93 OFFCURVE",
"753 329 CURVE SMOOTH",
"753 539 OFFCURVE",
"634 672 OFFCURVE",
"436 689 CURVE",
"137 690 LINE SMOOTH",
"107 690 OFFCURVE",
"82 677 OFFCURVE",
"64 659 CURVE SMOOTH",
"41 637 OFFCURVE",
"33 612 OFFCURVE",
"33 585 CURVE",
"89 585 LINE",
"89 591 OFFCURVE",
"90 606 OFFCURVE",
"102 618 CURVE SMOOTH",
"114 630 OFFCURVE",
"135 634 OFFCURVE",
"158 634 CURVE",
"158 0 LINE",
"205 -5 LINE SMOOTH",
"216 -6 OFFCURVE",
"270 -9 OFFCURVE",
"319 -9 CURVE SMOOTH"
);
},
{
closed = 1;
nodes = (
"320 45 OFFCURVE",
"244 49 OFFCURVE",
"219 50 CURVE",
"219 634 LINE",
"426 634 LINE",
"589 626 OFFCURVE",
"693 512 OFFCURVE",
"693 338 CURVE SMOOTH",
"693 149 OFFCURVE",
"575 45 OFFCURVE",
"355 45 CURVE SMOOTH"
);
}
);
width = 810;
},
{
anchors = (
{
name = bottom;
position = "{406, 0}";
},
{
name = center;
position = "{239, 367}";
},
{
name = top;
position = "{424, 675}";
}
);
layerId = "0CAF3BED-C4AC-4024-B3E1-4C69D1EF7EC0";
paths = (
{
closed = 1;
nodes = (
"620 -9 OFFCURVE",
"757 95 OFFCURVE",
"757 325 CURVE SMOOTH",
"757 542 OFFCURVE",
"635 673 OFFCURVE",
"438 691 CURVE",
"147 692 LINE SMOOTH",
"119 692 OFFCURVE",
"89 679 OFFCURVE",
"68 659 CURVE SMOOTH",
"40 632 OFFCURVE",
"33 594 OFFCURVE",
"35 567 CURVE",
"113 567 LINE",
"113 584 OFFCURVE",
"115 594 OFFCURVE",
"122 602 CURVE SMOOTH",
"129 610 OFFCURVE",
"141 613 OFFCURVE",
"156 614 CURVE",
"156 1 LINE",
"213 -5 LINE SMOOTH",
"223 -6 OFFCURVE",
"276 -9 OFFCURVE",
"326 -9 CURVE SMOOTH"
);
},
{
closed = 1;
nodes = (
"344 66 OFFCURVE",
"275 69 OFFCURVE",
"239 71 CURVE",
"239 614 LINE",
"427 614 LINE",
"577 606 OFFCURVE",
"675 508 OFFCURVE",
"675 333 CURVE SMOOTH",
"675 172 OFFCURVE",
"593 66 OFFCURVE",
"380 66 CURVE SMOOTH"
);
}
);
width = 814;
},
{
anchors = (
{
name = bottom;
position = "{402, 0}";
},
{
name = center;
position = "{202, 367}";
},
{
name = top;
position = "{416, 692}";
}
);
layerId = "49C16FD3-6177-408B-A733-AEB3898BB77C";
paths = (
{
closed = 1;
nodes = (
"599 -8 OFFCURVE",
"747 93 OFFCURVE",
"747 330 CURVE SMOOTH",
"747 541 OFFCURVE",
"629 673 OFFCURVE",
"430 690 CURVE",
"125 691 LINE SMOOTH",
"98 691 OFFCURVE",
"76 681 OFFCURVE",
"56 661 CURVE SMOOTH",
"33 639 OFFCURVE",
"28 617 OFFCURVE",
"27 598 CURVE",
"70 598 LINE",
"71 607 OFFCURVE",
"74 618 OFFCURVE",
"85 629 CURVE SMOOTH",
"99 642 OFFCURVE",
"116 649 OFFCURVE",
"154 648 CURVE",
"154 0 LINE",
"195 -4 LINE SMOOTH",
"206 -5 OFFCURVE",
"263 -8 OFFCURVE",
"312 -8 CURVE SMOOTH"
);
},
{
closed = 1;
nodes = (
"292 35 OFFCURVE",
"248 36 OFFCURVE",
"202 39 CURVE",
"202 648 LINE",
"420 648 LINE",
"590 638 OFFCURVE",
"700 523 OFFCURVE",
"700 334 CURVE SMOOTH",
"700 143 OFFCURVE",
"587 35 OFFCURVE",
"328 35 CURVE SMOOTH"
);
}
);
width = 799;
}
);
leftKerningGroup = E;
rightKerningGroup = O;
unicode = 0044;
userData = {
position = 674;
width = 60;
};
},
{
glyphname = D.ss01;
lastChange = "2019-09-25 07:54:52 +0000";
layers = (
{
anchors = (
{
name = bottom;
position = "{375, 0}";
},
{
name = center;
position = "{154, 341}";
},
{
name = top;
position = "{377, 689}";
}
);
layerId = "873CAA12-270D-4223-A88E-AE8E101FDBE8";
paths = (
{
closed = 1;
nodes = (
"347 -10 LINE SMOOTH",
"550 -10 OFFCURVE",
"694 132 OFFCURVE",
"694 341 CURVE SMOOTH",
"694 535 OFFCURVE",
"570 677 OFFCURVE",
"377 689 CURVE",
"99 690 LINE",
"99 634 LINE",
"367 634 LINE",
"533 625 OFFCURVE",
"634 515 OFFCURVE",
"634 338 CURVE SMOOTH",
"634 161 OFFCURVE",
"532 45 OFFCURVE",
"314 45 CURVE SMOOTH",
"274 45 OFFCURVE",
"190 49 OFFCURVE",
"160 50 CURVE",
"160 655 LINE",
"99 655 LINE",
"99 0 LINE",
"146 -5 LINE SMOOTH",
"229 -10 OFFCURVE",
"253 -10 OFFCURVE",
"295 -10 CURVE SMOOTH"
);
}
);
width = 750;
},
{
anchors = (
{
name = bottom;
position = "{351, -10}";
},
{
name = center;
position = "{181, 367}";
},
{
name = top;
position = "{381, 691}";
}
);
layerId = "0CAF3BED-C4AC-4024-B3E1-4C69D1EF7EC0";
paths = (
{
closed = 1;
nodes = (
"351 -10 LINE SMOOTH",
"553 -10 OFFCURVE",
"699 134 OFFCURVE",
"699 342 CURVE SMOOTH",
"699 534 OFFCURVE",
"573 679 OFFCURVE",
"381 691 CURVE",
"99 692 LINE",
"99 614 LINE",
"370 614 LINE",
"524 606 OFFCURVE",
"618 504 OFFCURVE",
"618 339 CURVE SMOOTH",
"618 174 OFFCURVE",
"523 66 OFFCURVE",
"319 66 CURVE SMOOTH",
"285 66 OFFCURVE",
"216 69 OFFCURVE",
"181 71 CURVE",
"181 658 LINE",
"99 658 LINE",
"99 1 LINE",
"155 -5 LINE SMOOTH",
"236 -10 OFFCURVE",
"260 -10 OFFCURVE",
"301 -10 CURVE SMOOTH"
);
}
);
width = 754;
},
{
anchors = (
{
name = bottom;
position = "{287, -9}";
},
{
name = center;
position = "{120, 356}";
},
{
name = top;
position = "{370, 690}";
}
);
layerId = "49C16FD3-6177-408B-A733-AEB3898BB77C";
paths = (
{
closed = 1;
nodes = (
"340 -9 LINE SMOOTH",
"544 -9 OFFCURVE",
"687 132 OFFCURVE",
"687 342 CURVE SMOOTH",
"687 537 OFFCURVE",
"564 678 OFFCURVE",
"370 690 CURVE",
"94 691 LINE",
"94 648 LINE",
"360 648 LINE",
"533 638 OFFCURVE",
"640 522 OFFCURVE",
"640 339 CURVE SMOOTH",
"640 156 OFFCURVE",
"532 33 OFFCURVE",
"306 33 CURVE SMOOTH",
"262 33 OFFCURVE",
"164 38 OFFCURVE",
"142 38 CURVE",
"142 655 LINE",
"94 655 LINE",
"94 0 LINE",
"136 -4 LINE SMOOTH",
"220 -9 OFFCURVE",
"244 -9 OFFCURVE",
"287 -9 CURVE SMOOTH"
);
}
);
width = 738;
}
);
leftKerningGroup = L;
rightKerningGroup = O;
userData = {
position = 674;
width = 60;
};
},
{
glyphname = D.swsh;
lastChange = "2019-09-25 07:54:44 +0000";
layers = (
{
anchors = (
{
name = bottom;
position = "{406, 0}";
},
{
name = center;
position = "{427, 0}";
},
{
name = top;
position = "{427, 0}";
}
);
layerId = "873CAA12-270D-4223-A88E-AE8E101FDBE8";
paths = (
{
closed = 1;
nodes = (
"411 -10 LINE SMOOTH",
"616 -10 OFFCURVE",
"758 136 OFFCURVE",
"758 341 CURVE SMOOTH",
"758 533 OFFCURVE",
"634 677 OFFCURVE",
"441 689 CURVE",
"142 690 LINE SMOOTH",
"101 690 OFFCURVE",
"38 657 OFFCURVE",
"38 586 CURVE SMOOTH",
"38 548 OFFCURVE",
"56 515 OFFCURVE",
"89 496 CURVE",
"118 544 LINE",
"101 554 OFFCURVE",
"94 568 OFFCURVE",
"94 585 CURVE SMOOTH",
"94 611 OFFCURVE",
"112 630 OFFCURVE",
"138 634 CURVE",
"431 634 LINE",
"587 624 OFFCURVE",
"698 524 OFFCURVE",
"698 336 CURVE SMOOTH",
"698 157 OFFCURVE",
"597 45 OFFCURVE",
"371 45 CURVE SMOOTH",
"334 45 OFFCURVE",
"268 48 OFFCURVE",
"224 50 CURVE",
"224 575 LINE",
"163 575 LINE",
"163 0 LINE",
"210 -5 LINE SMOOTH",
"293 -10 OFFCURVE",
"317 -10 OFFCURVE",
"359 -10 CURVE SMOOTH"
);
}
);
width = 813;
},
{
anchors = (
{
name = bottom;
position = "{412, 0}";
},
{
name = center;
position = "{437, 11}";
},
{
name = top;
position = "{437, 11}";
}
);
layerId = "0CAF3BED-C4AC-4024-B3E1-4C69D1EF7EC0";
paths = (
{
closed = 1;
nodes = (
"421 -10 LINE SMOOTH",
"625 -10 OFFCURVE",
"770 138 OFFCURVE",
"770 342 CURVE SMOOTH",
"770 532 OFFCURVE",
"643 679 OFFCURVE",
"451 691 CURVE",
"150 692 LINE SMOOTH",
"108 692 OFFCURVE",
"38 655 OFFCURVE",
"38 580 CURVE SMOOTH",
"38 536 OFFCURVE",
"62 495 OFFCURVE",
"103 477 CURVE",
"144 543 LINE",
"122 553 OFFCURVE",
"116 562 OFFCURVE",
"116 579 CURVE SMOOTH",
"116 597 OFFCURVE",
"129 611 OFFCURVE",
"148 614 CURVE",
"440 614 LINE",
"585 605 OFFCURVE",
"688 512 OFFCURVE",
"688 337 CURVE SMOOTH",
"688 170 OFFCURVE",
"595 66 OFFCURVE",
"383 66 CURVE SMOOTH",
"350 66 OFFCURVE",
"294 69 OFFCURVE",
"252 71 CURVE",
"252 569 LINE",
"169 569 LINE",
"169 1 LINE",
"226 -5 LINE SMOOTH",
"307 -10 OFFCURVE",
"330 -10 OFFCURVE",
"371 -10 CURVE SMOOTH"
);
}
);
width = 825;
},
{
anchors = (
{
name = bottom;
position = "{405, 0}";
},
{
name = center;
position = "{423, -6}";
},
{
name = top;
position = "{423, -6}";
}
);
layerId = "49C16FD3-6177-408B-A733-AEB3898BB77C";
paths = (
{
closed = 1;
nodes = (
"407 -9 LINE SMOOTH",
"613 -9 OFFCURVE",
"754 136 OFFCURVE",
"754 342 CURVE SMOOTH",
"754 535 OFFCURVE",
"631 678 OFFCURVE",
"437 690 CURVE",
"132 691 LINE SMOOTH",
"92 691 OFFCURVE",
"33 660 OFFCURVE",
"33 592 CURVE SMOOTH",
"33 557 OFFCURVE",
"48 528 OFFCURVE",
"76 510 CURVE",
"98 547 LINE",
"83 558 OFFCURVE",
"76 574 OFFCURVE",
"76 591 CURVE SMOOTH",
"76 620 OFFCURVE",
"99 644 OFFCURVE",
"128 648 CURVE",
"427 648 LINE",
"589 637 OFFCURVE",
"707 532 OFFCURVE",
"707 337 CURVE SMOOTH",
"707 151 OFFCURVE",
"600 33 OFFCURVE",
"366 33 CURVE SMOOTH",
"326 33 OFFCURVE",
"253 36 OFFCURVE",
"209 38 CURVE",
"209 573 LINE",
"161 573 LINE",
"161 0 LINE",
"202 -4 LINE SMOOTH",
"287 -9 OFFCURVE",
"311 -9 OFFCURVE",
"354 -9 CURVE SMOOTH"
);
}
);
width = 805;
}
);
leftKerningGroup = Swash;
rightKerningGroup = O;
userData = {
position = 674;
width = 60;
};
},
{
glyphname = E;
lastChange = "2019-09-24 06:42:04 +0000";
layers = (
{
anchors = (
{
name = bottom;
position = "{379, 0}";
},
{
name = ogonek;
position = "{597, 1}";
},
{
name = top;
position = "{368, 684}";
},
{
name = topleft;
position = "{31, 684}";
}
);
layerId = "873CAA12-270D-4223-A88E-AE8E101FDBE8";
paths = (
{
closed = 1;
nodes = (
"597 0 LINE",
"597 57 LINE",
"210 57 LINE",
"210 333 LINE",
"477 333 LINE",
"477 390 LINE",
"210 390 LINE",
"210 628 LINE",
"597 628 LINE",
"597 684 LINE",
"136 684 LINE SMOOTH",
"106 684 OFFCURVE",
"82 671 OFFCURVE",
"63 652 CURVE SMOOTH",
"44 633 OFFCURVE",
"33 608 OFFCURVE",
"33 579 CURVE",
"89 579 LINE",
"89 592 OFFCURVE",
"95 606 OFFCURVE",
"103 614 CURVE SMOOTH",
"113 624 OFFCURVE",
"123 628 OFFCURVE",
"149 628 CURVE",
"149 0 LINE"
);
}
);
width = 643;
},
{
anchors = (
{
name = bottom;
position = "{382, 11}";
},
{
name = ogonek;
position = "{605, -1}";
},
{
name = top;
position = "{372, 684}";
},
{
name = topleft;
position = "{31, 684}";
}
);
layerId = "0CAF3BED-C4AC-4024-B3E1-4C69D1EF7EC0";
paths = (
{
closed = 1;
nodes = (
"605 -1 LINE",
"605 78 LINE",
"230 78 LINE",
"230 322 LINE",
"489 322 LINE",
"489 401 LINE",
"230 401 LINE",
"230 609 LINE",
"605 609 LINE",
"605 686 LINE",
"146 686 LINE SMOOTH",
"89 686 OFFCURVE",
"35 637 OFFCURVE",
"35 574 CURVE SMOOTH",
"35 569 OFFCURVE",
"36 565 OFFCURVE",
"36 561 CURVE",
"114 561 LINE",
"113 565 OFFCURVE",
"112 569 OFFCURVE",
"112 573 CURVE SMOOTH",
"112 588 OFFCURVE",
"124 608 OFFCURVE",
"147 608 CURVE",
"147 -1 LINE"
);
}
);
width = 656;
},
{
anchors = (
{
name = bottom;
position = "{373, -6}";
},
{
name = ogonek;
position = "{588, 1}";
},
{
name = top;
position = "{362, 692}";
},
{
name = topleft;
position = "{41, 684}";
}
);
layerId = "49C16FD3-6177-408B-A733-AEB3898BB77C";
paths = (
{
closed = 1;
nodes = (
"588 1 LINE",
"588 45 LINE",
"194 45 LINE",
"194 341 LINE",
"466 341 LINE",
"466 385 LINE",
"194 385 LINE",
"194 642 LINE",
"588 642 LINE",
"588 685 LINE",
"125 685 LINE SMOOTH",
"97 685 OFFCURVE",
"75 673 OFFCURVE",
"56 654 CURVE SMOOTH",
"39 637 OFFCURVE",
"29 617 OFFCURVE",
"28 592 CURVE",
"71 592 LINE",
"73 604 OFFCURVE",
"79 618 OFFCURVE",
"87 625 CURVE SMOOTH",
"99 637 OFFCURVE",
"113 642 OFFCURVE",
"146 642 CURVE",
"146 1 LINE"
);
}
);
width = 626;
}
);
leftKerningGroup = E;
unicode = 0045;
userData = {
position = 130;
width = 61;
};
},
{
glyphname = E.ss01;
lastChange = "2019-09-25 07:55:04 +0000";
layers = (
{
anchors = (
{
name = bottom;
position = "{347, 0}";
},
{
name = ogonek;
position = "{567, 0}";
},
{
name = top;
position = "{342, 684}";
},
{
name = topleft;
position = "{33, 684}";
}
);
layerId = "873CAA12-270D-4223-A88E-AE8E101FDBE8";
paths = (
{
closed = 1;
nodes = (
"567 0 LINE",
"567 57 LINE",
"158 57 LINE",
"158 333 LINE",
"447 333 LINE",
"447 390 LINE",
"158 390 LINE",
"158 627 LINE",
"547 627 LINE",
"547 684 LINE",
"99 684 LINE",
"99 0 LINE"
);
}
);
width = 609;
},
{
anchors = (
{
name = bottom;
position = "{335, 0}";
},
{
name = ogonek;
position = "{576, -1}";
},
{
name = top;
position = "{337, 685}";
},
{
name = topleft;
position = "{33, 684}";
}
);
layerId = "0CAF3BED-C4AC-4024-B3E1-4C69D1EF7EC0";
paths = (
{
closed = 1;
nodes = (
"576 -1 LINE",
"576 78 LINE",
"179 78 LINE",
"179 322 LINE",
"460 322 LINE",
"460 401 LINE",
"179 401 LINE",
"179 608 LINE",
"557 608 LINE",
"557 686 LINE",
"99 686 LINE",
"99 -1 LINE"
);
}
);
width = 622;
},
{
anchors = (
{
name = bottom;
position = "{298, -6}";
},
{
name = ogonek;
position = "{544, 4}";
},
{
name = top;
position = "{338, 687}";
},
{
name = topleft;
position = "{28, 684}";
}
);
layerId = "49C16FD3-6177-408B-A733-AEB3898BB77C";
paths = (
{
closed = 1;
nodes = (
"557 1 LINE",
"557 45 LINE",
"140 45 LINE",
"140 341 LINE",
"435 341 LINE",
"435 385 LINE",
"140 385 LINE",
"140 641 LINE",
"537 641 LINE",
"537 685 LINE",
"94 685 LINE",
"94 1 LINE"
);
}
);
width = 592;
}
);
leftKerningGroup = L;
userData = {
position = 95;
width = 61;
};
},
{
glyphname = E.swsh;
lastChange = "2019-09-25 07:55:11 +0000";
layers = (
{
anchors = (
{
name = bottom;
position = "{348, 0}";
},
{
name = ogonek;
position = "{602, 0}";
},
{
name = top;
position = "{348, 0}";
},
{
name = topleft;
position = "{31, 684}";
}
);
layerId = "873CAA12-270D-4223-A88E-AE8E101FDBE8";
paths = (
{
closed = 1;
nodes = (
"602 0 LINE",
"602 57 LINE",
"215 57 LINE",
"215 333 LINE",
"482 333 LINE",
"482 390 LINE",
"215 390 LINE",
"215 572 LINE",
"154 572 LINE",
"154 0 LINE"
);
},
{
closed = 1;
nodes = (
"117 537 LINE",
"103 545 OFFCURVE",
"94 560 OFFCURVE",
"94 578 CURVE SMOOTH",
"94 607 OFFCURVE",
"116 628 OFFCURVE",
"142 628 CURVE SMOOTH",
"602 628 LINE",
"602 684 LINE",
"141 684 LINE SMOOTH",
"97 684 OFFCURVE",
"38 647 OFFCURVE",
"38 578 CURVE SMOOTH",
"38 541 OFFCURVE",
"55 508 OFFCURVE",
"88 489 CURVE"
);
}
);
width = 648;
},
{
anchors = (
{
name = bottom;
position = "{361, 11}";
},
{
name = ogonek;
position = "{619, -1}";
},
{
name = top;
position = "{361, 11}";
},
{
name = topleft;
position = "{32, 684}";
}
);
layerId = "0CAF3BED-C4AC-4024-B3E1-4C69D1EF7EC0";
paths = (
{
closed = 1;
nodes = (
"619 -1 LINE",
"619 78 LINE",
"244 78 LINE",
"244 322 LINE",
"503 322 LINE",
"503 401 LINE",
"244 401 LINE",
"244 569 LINE",
"161 569 LINE",
"161 -1 LINE"
);
},
{
closed = 1;
nodes = (
"144 537 LINE",
"126 543 OFFCURVE",
"117 553 OFFCURVE",
"117 572 CURVE SMOOTH",
"117 593 OFFCURVE",
"133 609 OFFCURVE",
"151 609 CURVE SMOOTH",
"619 609 LINE",
"619 686 LINE",
"150 686 LINE SMOOTH",
"104 686 OFFCURVE",
"39 645 OFFCURVE",
"39 572 CURVE SMOOTH",
"39 529 OFFCURVE",
"62 489 OFFCURVE",
"103 470 CURVE"
);
}
);
width = 670;
},
{
anchors = (
{
name = bottom;
position = "{349, -12}";
},
{
name = ogonek;
position = "{594, 1}";
},
{
name = top;
position = "{349, -12}";
},
{
name = topleft;
position = "{40, 684}";
}
);
layerId = "49C16FD3-6177-408B-A733-AEB3898BB77C";
paths = (
{
closed = 1;
nodes = (
"594 1 LINE",
"594 45 LINE",
"200 45 LINE",
"200 341 LINE",
"472 341 LINE",
"472 385 LINE",
"200 385 LINE",
"200 570 LINE",
"152 570 LINE",
"152 1 LINE"
);
},
{
closed = 1;
nodes = (
"97 540 LINE",
"85 550 OFFCURVE",
"76 566 OFFCURVE",
"76 584 CURVE SMOOTH",
"76 616 OFFCURVE",
"103 642 OFFCURVE",
"132 642 CURVE SMOOTH",
"594 642 LINE",
"594 685 LINE",
"131 685 LINE SMOOTH",
"89 685 OFFCURVE",
"33 650 OFFCURVE",
"33 584 CURVE SMOOTH",
"33 550 OFFCURVE",
"47 521 OFFCURVE",
"75 503 CURVE"
);
}
);
width = 632;
}
);
leftKerningGroup = Swash;
userData = {
position = 130;
width = 61;
};
},
{
glyphname = F;
lastChange = "2019-09-24 10:19:13 +0000";
layers = (
{
anchors = (
{
name = bottom;
position = "{316, 0}";
},
{
name = top;
position = "{316, 684}";
}
);
layerId = "873CAA12-270D-4223-A88E-AE8E101FDBE8";
paths = (
{
closed = 1;
nodes = (
"210 -1 LINE",
"210 332 LINE",
"477 332 LINE",
"477 389 LINE",
"210 389 LINE",
"210 627 LINE",
"597 627 LINE",
"597 683 LINE",
"136 683 LINE SMOOTH",
"107 683 OFFCURVE",
"83 671 OFFCURVE",
"63 651 CURVE SMOOTH",
"44 632 OFFCURVE",
"33 607 OFFCURVE",
"33 578 CURVE",
"89 578 LINE",
"89 591 OFFCURVE",
"95 605 OFFCURVE",
"103 613 CURVE SMOOTH",
"113 623 OFFCURVE",
"123 627 OFFCURVE",
"149 627 CURVE",
"149 -1 LINE"
);
}
);
width = 631;
},
{
anchors = (
{
name = bottom;
position = "{321, 0}";
},
{
name = top;
position = "{321, 684}";
}
);
layerId = "0CAF3BED-C4AC-4024-B3E1-4C69D1EF7EC0";
paths = (
{
closed = 1;
nodes = (
"230 -1 LINE",
"230 322 LINE",
"489 322 LINE",
"489 400 LINE",
"230 400 LINE",
"230 608 LINE",
"605 608 LINE",
"605 685 LINE",
"146 685 LINE SMOOTH",
"116 685 OFFCURVE",
"88 672 OFFCURVE",
"67 651 CURVE SMOOTH",
"48 631 OFFCURVE",
"35 603 OFFCURVE",
"35 573 CURVE SMOOTH",
"35 568 OFFCURVE",
"36 564 OFFCURVE",
"36 560 CURVE",
"114 560 LINE",
"111 572 OFFCURVE",
"112 586 OFFCURVE",
"123 597 CURVE SMOOTH",
"130 604 OFFCURVE",
"136 607 OFFCURVE",
"147 607 CURVE",
"147 -1 LINE"
);
}
);
width = 641;
},
{
anchors = (
{
name = bottom;
position = "{308, 0}";
},
{
name = top;
position = "{308, 684}";
}
);
layerId = "49C16FD3-6177-408B-A733-AEB3898BB77C";
paths = (
{
closed = 1;
nodes = (
"194 0 LINE",
"194 340 LINE",
"466 340 LINE",
"466 384 LINE",
"194 384 LINE",
"194 641 LINE",
"588 641 LINE",
"588 684 LINE",
"125 684 LINE SMOOTH",
"97 684 OFFCURVE",
"76 673 OFFCURVE",
"56 653 CURVE SMOOTH",
"39 636 OFFCURVE",
"29 616 OFFCURVE",
"28 591 CURVE",
"71 591 LINE",
"71 603 OFFCURVE",
"79 617 OFFCURVE",
"87 624 CURVE SMOOTH",
"99 636 OFFCURVE",
"113 641 OFFCURVE",
"146 641 CURVE",
"146 0 LINE"
);
}
);
width = 615;
}
);
leftKerningGroup = E;
rightKerningGroup = F;
unicode = 0046;
userData = {
position = 129;
width = 61;
};
},
{
glyphname = F.ss01;
lastChange = "2019-09-25 07:55:28 +0000";
layers = (
{
anchors = (
{
name = bottom;
position = "{292, 0}";
},
{
name = top;
position = "{292, 684}";
}
);
layerId = "873CAA12-270D-4223-A88E-AE8E101FDBE8";
paths = (
{
closed = 1;
nodes = (
"160 0 LINE",
"160 325 LINE",
"477 325 LINE",
"477 382 LINE",
"160 382 LINE",
"160 627 LINE",
"547 627 LINE",
"547 684 LINE",
"99 684 LINE",
"99 0 LINE"
);
}
);
width = 582;
},
{
anchors = (
{
name = bottom;
position = "{298, 0}";
},
{
name = top;
position = "{298, 684}";
}
);
layerId = "0CAF3BED-C4AC-4024-B3E1-4C69D1EF7EC0";
paths = (
{
closed = 1;
nodes = (
"181 -1 LINE",
"181 315 LINE",
"489 315 LINE",
"489 393 LINE",
"181 393 LINE",
"181 608 LINE",
"557 608 LINE",
"557 686 LINE",
"99 686 LINE",
"99 -1 LINE"
);
}
);
width = 594;
},
{
anchors = (
{
name = bottom;
position = "{276, 0}";
},
{
name = top;
position = "{276, 684}";
}
);
layerId = "49C16FD3-6177-408B-A733-AEB3898BB77C";
paths = (
{
closed = 1;
nodes = (
"142 1 LINE",
"142 333 LINE",
"466 333 LINE",
"466 376 LINE",
"142 376 LINE",
"142 641 LINE",
"537 641 LINE",
"537 685 LINE",
"94 685 LINE",
"94 1 LINE"
);
}
);
width = 565;
}
);
leftKerningGroup = L;
rightKerningGroup = F;
userData = {
position = 95;
width = 61;
};
},
{
glyphname = F.swsh;
lastChange = "2019-09-25 07:55:33 +0000";
layers = (
{
anchors = (
{
name = bottom;
position = "{319, 0}";
},
{
name = top;
position = "{319, 684}";
}
);
layerId = "873CAA12-270D-4223-A88E-AE8E101FDBE8";
paths = (
{
closed = 1;
nodes = (
"215 -1 LINE",
"215 332 LINE",
"482 332 LINE",
"482 389 LINE",
"215 389 LINE",
"215 571 LINE",
"154 571 LINE",
"154 -1 LINE"
);
},
{
closed = 1;
nodes = (
"117 536 LINE",
"103 544 OFFCURVE",
"94 559 OFFCURVE",
"94 577 CURVE SMOOTH",
"94 606 OFFCURVE",
"116 627 OFFCURVE",
"142 627 CURVE SMOOTH",
"602 627 LINE",
"602 683 LINE",
"141 683 LINE SMOOTH",
"115 683 OFFCURVE",
"87 671 OFFCURVE",
"68 652 CURVE SMOOTH",
"52 636 OFFCURVE",
"38 608 OFFCURVE",
"38 576 CURVE SMOOTH",
"38 541 OFFCURVE",
"55 507 OFFCURVE",
"88 488 CURVE"
);
}
);
width = 636;
},
{
anchors = (
{
name = bottom;
position = "{329, 0}";
},
{
name = top;
position = "{329, 684}";
}
);
layerId = "0CAF3BED-C4AC-4024-B3E1-4C69D1EF7EC0";
paths = (
{
closed = 1;
nodes = (
"244 -1 LINE",
"244 322 LINE",
"503 322 LINE",
"503 400 LINE",
"244 400 LINE",
"244 572 LINE",
"161 572 LINE",
"161 -1 LINE"
);
},
{
closed = 1;
nodes = (
"144 536 LINE",
"126 542 OFFCURVE",
"117 552 OFFCURVE",
"117 571 CURVE SMOOTH",
"117 592 OFFCURVE",
"133 608 OFFCURVE",
"151 608 CURVE SMOOTH",
"619 608 LINE",
"619 685 LINE",
"151 685 LINE SMOOTH",
"123 685 OFFCURVE",
"91 672 OFFCURVE",
"71 652 CURVE SMOOTH",
"54 635 OFFCURVE",
"39 604 OFFCURVE",
"39 570 CURVE SMOOTH",
"39 530 OFFCURVE",
"62 487 OFFCURVE",
"104 469 CURVE"
);
}
);
width = 655;
},
{
anchors = (
{
name = bottom;
position = "{311, 0}";
},
{
name = top;
position = "{311, 684}";
}
);
layerId = "49C16FD3-6177-408B-A733-AEB3898BB77C";
paths = (
{
closed = 1;
nodes = (
"200 0 LINE",
"200 340 LINE",
"472 340 LINE",
"472 384 LINE",
"200 384 LINE",
"200 569 LINE",
"152 569 LINE",
"152 0 LINE"
);
},
{
closed = 1;
nodes = (
"97 539 LINE",
"85 549 OFFCURVE",
"76 565 OFFCURVE",
"76 583 CURVE SMOOTH",
"76 615 OFFCURVE",
"103 641 OFFCURVE",
"132 641 CURVE SMOOTH",
"594 641 LINE",
"594 684 LINE",
"131 684 LINE SMOOTH",
"106 684 OFFCURVE",
"80 672 OFFCURVE",
"62 654 CURVE SMOOTH",
"46 638 OFFCURVE",
"33 612 OFFCURVE",
"33 582 CURVE SMOOTH",
"33 550 OFFCURVE",
"47 520 OFFCURVE",
"75 502 CURVE"
);
}
);
width = 621;
}
);
leftKerningGroup = Swash;
rightKerningGroup = F;
userData = {
position = 129;
width = 61;
};
},
{
glyphname = G;
lastChange = "2019-09-24 06:42:02 +0000";
layers = (
{
anchors = (
{
name = bottom;
position = "{395, -28}";
},
{
name = top;
position = "{399, 699}";
}
);
layerId = "873CAA12-270D-4223-A88E-AE8E101FDBE8";
paths = (
{
closed = 1;
nodes = (
"683 92 OFFCURVE",
"683 231 CURVE",
"683 303 LINE",
"626 303 LINE",
"626 224 LINE",
"610 111 OFFCURVE",
"521 23 OFFCURVE",
"395 23 CURVE SMOOTH",
"237 23 OFFCURVE",
"108 163 OFFCURVE",
"108 328 CURVE SMOOTH",
"108 497 OFFCURVE",
"242 647 OFFCURVE",
"405 647 CURVE SMOOTH",
"467 647 OFFCURVE",
"580 625 OFFCURVE",
"580 558 CURVE SMOOTH",
"580 535 OFFCURVE",
"566 517 OFFCURVE",
"547 517 CURVE SMOOTH",
"541 517 OFFCURVE",
"534 519 OFFCURVE",
"526 524 CURVE",
"492 481 LINE",
"508 469 OFFCURVE",
"527 463 OFFCURVE",
"546 463 CURVE SMOOTH",
"596 463 OFFCURVE",
"634 502 OFFCURVE",
"634 558 CURVE SMOOTH",
"634 667 OFFCURVE",
"488 702 OFFCURVE",
"404 702 CURVE SMOOTH",
"217 702 OFFCURVE",
"54 529 OFFCURVE",
"54 329 CURVE SMOOTH",
"54 139 OFFCURVE",
"202 -31 OFFCURVE",
"395 -31 CURVE SMOOTH",
"542 -31 OFFCURVE"
);
},
{
closed = 1;
nodes = (
"683 286 LINE",
"683 343 LINE",
"383 343 LINE",
"383 286 LINE"
);
}
);
width = 737;
},
{
anchors = (
{
name = bottom;
position = "{397, -16}";
},
{
name = top;
position = "{400, 684}";
}
);
layerId = "0CAF3BED-C4AC-4024-B3E1-4C69D1EF7EC0";
paths = (
{
closed = 1;
nodes = (
"684 85 OFFCURVE",
"688 231 CURVE",
"688 317 LINE",
"609 317 LINE",
"609 229 LINE",
"594 126 OFFCURVE",
"512 45 OFFCURVE",
"397 45 CURVE SMOOTH",
"250 45 OFFCURVE",
"130 176 OFFCURVE",
"130 329 CURVE SMOOTH",
"130 487 OFFCURVE",
"255 622 OFFCURVE",
"406 622 CURVE SMOOTH",
"463 622 OFFCURVE",
"564 601 OFFCURVE",
"564 547 CURVE SMOOTH",
"564 531 OFFCURVE",
"555 519 OFFCURVE",
"544 519 CURVE SMOOTH",
"538 519 OFFCURVE",
"534 521 OFFCURVE",
"521 530 CURVE",
"475 471 LINE",
"492 453 OFFCURVE",
"519 444 OFFCURVE",
"543 444 CURVE SMOOTH",
"596 444 OFFCURVE",
"640 488 OFFCURVE",
"640 547 CURVE SMOOTH",
"640 662 OFFCURVE",
"488 699 OFFCURVE",
"405 699 CURVE SMOOTH",
"219 699 OFFCURVE",
"54 529 OFFCURVE",
"54 330 CURVE SMOOTH",
"54 142 OFFCURVE",
"204 -31 OFFCURVE",
"397 -31 CURVE SMOOTH",
"547 -31 OFFCURVE"
);
},
{
closed = 1;
nodes = (
"688 277 LINE",
"688 355 LINE",
"373 355 LINE",
"373 277 LINE"
);
}
);
width = 743;
},
{
anchors = (
{
name = bottom;
position = "{391, -35}";
},
{
name = top;
position = "{400, 703}";
}
);
layerId = "49C16FD3-6177-408B-A733-AEB3898BB77C";
paths = (
{
closed = 1;
nodes = (
"669 85 OFFCURVE",
"677 223 CURVE",
"677 296 LINE",
"633 296 LINE",
"633 221 LINE",
"617 104 OFFCURVE",
"522 10 OFFCURVE",
"391 10 CURVE SMOOTH",
"226 10 OFFCURVE",
"91 157 OFFCURVE",
"91 329 CURVE SMOOTH",
"91 504 OFFCURVE",
"231 661 OFFCURVE",
"401 661 CURVE SMOOTH",
"465 661 OFFCURVE",
"586 637 OFFCURVE",
"586 563 CURVE SMOOTH",
"586 537 OFFCURVE",
"569 514 OFFCURVE",
"546 514 CURVE SMOOTH",
"540 514 OFFCURVE",
"533 516 OFFCURVE",
"526 519 CURVE",
"500 486 LINE",
"514 477 OFFCURVE",
"529 473 OFFCURVE",
"545 473 CURVE SMOOTH",
"593 473 OFFCURVE",
"627 509 OFFCURVE",
"627 563 CURVE SMOOTH",
"627 669 OFFCURVE",
"485 703 OFFCURVE",
"400 703 CURVE SMOOTH",
"212 703 OFFCURVE",
"50 531 OFFCURVE",
"50 330 CURVE SMOOTH",
"50 138 OFFCURVE",
"197 -31 OFFCURVE",
"391 -31 CURVE SMOOTH",
"536 -31 OFFCURVE"
);
},
{
closed = 1;
nodes = (
"677 293 LINE",
"677 337 LINE",
"386 337 LINE",
"386 293 LINE"
);
}
);
width = 725;
}
);
leftKerningGroup = O;
rightKerningGroup = j;
unicode = 0047;
userData = {
position = 593;
width = 57;
};
},
{
glyphname = G.ss01;
lastChange = "2019-09-24 12:31:56 +0000";
layers = (
{
anchors = (
{
name = bottom;
position = "{390, -28}";
},
{
name = top;
position = "{405, 684}";
}
);
layerId = "873CAA12-270D-4223-A88E-AE8E101FDBE8";
paths = (
{
closed = 1;
nodes = (
"544 -11 OFFCURVE",
"679 103 OFFCURVE",
"679 276 CURVE SMOOTH",
"679 353 LINE",
"622 353 LINE",
"622 264 LINE SMOOTH",
"622 139 OFFCURVE",
"509 43 OFFCURVE",
"393 43 CURVE SMOOTH",
"217 43 OFFCURVE",
"109 160 OFFCURVE",
"109 330 CURVE SMOOTH",
"109 501 OFFCURVE",
"240 642 OFFCURVE",
"403 642 CURVE SMOOTH",
"472 642 OFFCURVE",
"576 621 OFFCURVE",
"576 555 CURVE",
"630 556 LINE",
"630 652 OFFCURVE",
"511 697 OFFCURVE",
"405 697 CURVE SMOOTH",
"210 697 OFFCURVE",
"55 531 OFFCURVE",
"55 331 CURVE SMOOTH",
"55 136 OFFCURVE",
"182 -11 OFFCURVE",
"389 -11 CURVE SMOOTH"
);
},
{
closed = 1;
nodes = (
"679 296 LINE",
"679 353 LINE",
"379 353 LINE",
"379 296 LINE"
);
}
);
width = 729;
},
{
anchors = (
{
name = bottom;
position = "{391, 0}";
},
{
name = top;
position = "{405, 684}";
}
);
layerId = "0CAF3BED-C4AC-4024-B3E1-4C69D1EF7EC0";
paths = (
{
closed = 1;
nodes = (
"544 -11 OFFCURVE",
"683 106 OFFCURVE",
"683 279 CURVE SMOOTH",
"683 365 LINE",
"604 365 LINE",
"604 268 LINE SMOOTH",
"604 154 OFFCURVE",
"500 65 OFFCURVE",
"394 65 CURVE SMOOTH",
"219 65 OFFCURVE",
"130 193 OFFCURVE",
"130 331 CURVE SMOOTH",
"130 481 OFFCURVE",
"252 618 OFFCURVE",
"403 618 CURVE SMOOTH",
"472 618 OFFCURVE",
"565 593 OFFCURVE",
"565 528 CURVE",
"640 529 LINE",
"644 637 OFFCURVE",
"514 694 OFFCURVE",
"405 694 CURVE SMOOTH",
"199 694 OFFCURVE",
"54 521 OFFCURVE",
"54 332 CURVE SMOOTH",
"54 159 OFFCURVE",
"173 -11 OFFCURVE",
"390 -11 CURVE SMOOTH"
);
},
{
closed = 1;
nodes = (
"683 287 LINE",
"683 365 LINE",
"368 365 LINE",
"368 287 LINE"
);
}
);
width = 736;
},
{
anchors = (
{
name = bottom;
position = "{383, 0}";
},
{
name = top;
position = "{398, 684}";
}
);
layerId = "49C16FD3-6177-408B-A733-AEB3898BB77C";
paths = (
{
closed = 1;
nodes = (
"539 -16 OFFCURVE",
"672 97 OFFCURVE",
"672 270 CURVE SMOOTH",
"672 347 LINE",
"628 347 LINE",
"628 258 LINE SMOOTH",
"628 127 OFFCURVE",
"509 25 OFFCURVE",
"388 25 CURVE SMOOTH",
"206 25 OFFCURVE",
"91 154 OFFCURVE",
"91 331 CURVE SMOOTH",
"91 508 OFFCURVE",
"228 656 OFFCURVE",
"398 656 CURVE SMOOTH",
"467 656 OFFCURVE",
"574 635 OFFCURVE",
"581 567 CURVE",
"622 568 LINE",
"616 657 OFFCURVE",
"504 698 OFFCURVE",
"400 698 CURVE SMOOTH",
"204 698 OFFCURVE",
"50 533 OFFCURVE",
"50 332 CURVE SMOOTH",
"50 135 OFFCURVE",
"176 -16 OFFCURVE",
"384 -16 CURVE SMOOTH"
);
},
{
closed = 1;
nodes = (
"672 303 LINE",
"672 347 LINE",
"381 347 LINE",
"381 303 LINE"
);
}
);
width = 717;
}
);
leftKerningGroup = O;
rightKerningGroup = O;
userData = {
position = 593;
width = 57;
};
},
{
glyphname = G.swsh;
lastChange = "2019-09-24 12:31:56 +0000";
layers = (
{
anchors = (
{
name = bottom;
position = "{395, -28}";
},
{
name = top;
position = "{399, 699}";
}
);
layerId = "873CAA12-270D-4223-A88E-AE8E101FDBE8";
paths = (
{
closed = 1;
nodes = (
"632 -271 OFFCURVE",
"683 -240 OFFCURVE",
"683 -178 CURVE SMOOTH",
"683 303 LINE",
"626 303 LINE",
"626 224 LINE",
"610 111 OFFCURVE",
"521 23 OFFCURVE",
"395 23 CURVE SMOOTH",
"237 23 OFFCURVE",
"108 163 OFFCURVE",
"108 328 CURVE SMOOTH",
"108 497 OFFCURVE",
"242 647 OFFCURVE",
"405 647 CURVE SMOOTH",
"467 647 OFFCURVE",
"580 625 OFFCURVE",
"580 558 CURVE SMOOTH",
"580 535 OFFCURVE",
"566 517 OFFCURVE",
"547 517 CURVE SMOOTH",
"541 517 OFFCURVE",
"534 519 OFFCURVE",
"526 524 CURVE",
"492 481 LINE",
"508 469 OFFCURVE",
"527 463 OFFCURVE",
"546 463 CURVE SMOOTH",
"596 463 OFFCURVE",
"634 502 OFFCURVE",
"634 558 CURVE SMOOTH",
"634 667 OFFCURVE",
"488 702 OFFCURVE",
"404 702 CURVE SMOOTH",
"217 702 OFFCURVE",
"54 529 OFFCURVE",
"54 329 CURVE SMOOTH",
"54 139 OFFCURVE",
"202 -31 OFFCURVE",
"395 -31 CURVE SMOOTH",
"485 -31 OFFCURVE",
"569 6 OFFCURVE",
"626 82 CURVE",
"626 -178 LINE",
"624 -195 OFFCURVE",
"613 -212 OFFCURVE",
"590 -212 CURVE SMOOTH",
"577 -212 OFFCURVE",
"568 -206 OFFCURVE",
"562 -197 CURVE",
"514 -230 LINE",
"530 -255 OFFCURVE",
"558 -271 OFFCURVE",
"589 -271 CURVE SMOOTH"
);
}
);
width = 747;
},
{
anchors = (
{
name = bottom;
position = "{397, -16}";
},
{
name = top;
position = "{400, 689}";
}
);
layerId = "0CAF3BED-C4AC-4024-B3E1-4C69D1EF7EC0";
paths = (
{
closed = 1;
nodes = (
"630 -263 OFFCURVE",
"688 -228 OFFCURVE",
"688 -162 CURVE SMOOTH",
"688 317 LINE",
"609 317 LINE",
"609 229 LINE",
"594 126 OFFCURVE",
"512 45 OFFCURVE",
"397 45 CURVE SMOOTH",
"250 45 OFFCURVE",
"130 176 OFFCURVE",
"130 329 CURVE SMOOTH",
"130 487 OFFCURVE",
"255 627 OFFCURVE",
"406 627 CURVE SMOOTH",
"463 627 OFFCURVE",
"564 606 OFFCURVE",
"564 552 CURVE SMOOTH",
"564 536 OFFCURVE",
"555 524 OFFCURVE",
"544 524 CURVE SMOOTH",
"538 524 OFFCURVE",
"534 526 OFFCURVE",
"521 535 CURVE",
"475 476 LINE",
"492 458 OFFCURVE",
"519 449 OFFCURVE",
"543 449 CURVE SMOOTH",
"596 449 OFFCURVE",
"640 493 OFFCURVE",
"640 552 CURVE SMOOTH",
"640 667 OFFCURVE",
"488 704 OFFCURVE",
"405 704 CURVE SMOOTH",
"219 704 OFFCURVE",
"54 529 OFFCURVE",
"54 330 CURVE SMOOTH",
"54 142 OFFCURVE",
"204 -31 OFFCURVE",
"397 -31 CURVE SMOOTH",
"476 -31 OFFCURVE",
"553 -1 OFFCURVE",
"609 59 CURVE",
"609 -161 LINE",
"607 -172 OFFCURVE",
"599 -183 OFFCURVE",
"586 -183 CURVE SMOOTH",
"573 -183 OFFCURVE",
"571 -178 OFFCURVE",
"562 -163 CURVE",
"497 -208 LINE",
"512 -240 OFFCURVE",
"548 -263 OFFCURVE",
"585 -263 CURVE SMOOTH"
);
}
);
width = 755;
},
{
anchors = (
{
name = bottom;
position = "{391, -35}";
},
{
name = top;
position = "{400, 703}";
}
);
layerId = "49C16FD3-6177-408B-A733-AEB3898BB77C";
paths = (
{
closed = 1;
nodes = (
"630 -275 OFFCURVE",
"677 -247 OFFCURVE",
"677 -188 CURVE SMOOTH",
"677 296 LINE",
"633 296 LINE",
"633 221 LINE",
"617 104 OFFCURVE",
"522 10 OFFCURVE",
"391 10 CURVE SMOOTH",
"226 10 OFFCURVE",
"91 157 OFFCURVE",
"91 329 CURVE SMOOTH",
"91 504 OFFCURVE",
"231 661 OFFCURVE",
"401 661 CURVE SMOOTH",
"465 661 OFFCURVE",
"586 637 OFFCURVE",
"586 563 CURVE SMOOTH",
"586 537 OFFCURVE",
"569 514 OFFCURVE",
"546 514 CURVE SMOOTH",
"540 514 OFFCURVE",
"533 516 OFFCURVE",
"526 519 CURVE",
"500 486 LINE",
"514 477 OFFCURVE",
"529 473 OFFCURVE",
"545 473 CURVE SMOOTH",
"593 473 OFFCURVE",
"627 509 OFFCURVE",
"627 563 CURVE SMOOTH",
"627 669 OFFCURVE",
"485 703 OFFCURVE",
"400 703 CURVE SMOOTH",
"212 703 OFFCURVE",
"50 531 OFFCURVE",
"50 330 CURVE SMOOTH",
"50 138 OFFCURVE",
"197 -31 OFFCURVE",
"391 -31 CURVE SMOOTH",
"488 -31 OFFCURVE",
"576 12 OFFCURVE",
"633 100 CURVE",
"633 -188 LINE",
"631 -207 OFFCURVE",
"617 -229 OFFCURVE",
"590 -229 CURVE SMOOTH",
"577 -229 OFFCURVE",
"567 -224 OFFCURVE",
"560 -217 CURVE",
"522 -242 LINE",
"538 -263 OFFCURVE",
"561 -275 OFFCURVE",
"589 -275 CURVE SMOOTH"
);
}
);
width = 736;
}
);
leftKerningGroup = O;
rightKerningGroup = j;
userData = {
position = 593;
width = 57;
};
},
{
glyphname = H;
lastChange = "2019-09-24 06:42:01 +0000";
layers = (
{
anchors = (
{
name = bottom;
position = "{364, 0}";
},
{
name = center;
position = "{403, 500}";
},
{
name = top;
position = "{393, 684}";
},
{
name = topleft;
position = "{31, 684}";
}
);
layerId = "873CAA12-270D-4223-A88E-AE8E101FDBE8";
paths = (
{
closed = 1;
nodes = (
"200 0 LINE",
"200 327 LINE",
"569 327 LINE",
"569 0 LINE",
"630 0 LINE",
"630 684 LINE",
"569 684 LINE",
"569 384 LINE",
"200 384 LINE",
"200 599 LINE SMOOTH",
"200 656 OFFCURVE",
"154 692 OFFCURVE",
"106 692 CURVE SMOOTH",
"74 692 OFFCURVE",
"47 677 OFFCURVE",
"29 651 CURVE",
"76 619 LINE",
"83 630 OFFCURVE",
"98 635 OFFCURVE",
"107 635 CURVE SMOOTH",
"125 635 OFFCURVE",
"138 617 OFFCURVE",
"138 599 CURVE SMOOTH",
"138 0 LINE"
);
}
);
width = 729;
},
{
anchors = (
{
name = bottom;
position = "{368, 0}";
},
{
name = center;
position = "{391, 500}";
},
{
name = top;
position = "{398, 675}";
},
{
name = topleft;
position = "{31, 684}";
}
);
layerId = "0CAF3BED-C4AC-4024-B3E1-4C69D1EF7EC0";
paths = (
{
closed = 1;
nodes = (
"222 -1 LINE",
"222 317 LINE",
"557 317 LINE",
"557 -1 LINE",
"639 -1 LINE",
"639 686 LINE",
"557 686 LINE",
"557 395 LINE",
"222 395 LINE",
"222 589 LINE SMOOTH",
"222 650 OFFCURVE",
"170 691 OFFCURVE",
"119 691 CURVE SMOOTH",
"81 691 OFFCURVE",
"47 669 OFFCURVE",
"29 636 CURVE",
"88 596 LINE",
"96 612 OFFCURVE",
"109 614 OFFCURVE",
"120 613 CURVE SMOOTH",
"132 611 OFFCURVE",
"139 600 OFFCURVE",
"139 589 CURVE SMOOTH",
"139 -1 LINE"
);
}
);
width = 738;
},
{
anchors = (
{
name = bottom;
position = "{364, 0}";
},
{
name = center;
position = "{366, 487}";
},
{
name = top;
position = "{386, 692}";
},
{
name = topleft;
position = "{42, 684}";
}
);
layerId = "49C16FD3-6177-408B-A733-AEB3898BB77C";
paths = (
{
closed = 1;
nodes = (
"182 1 LINE",
"182 335 LINE",
"572 335 LINE",
"572 1 LINE",
"620 1 LINE",
"620 685 LINE",
"572 685 LINE",
"572 379 LINE",
"182 379 LINE",
"182 602 LINE SMOOTH",
"182 656 OFFCURVE",
"139 690 OFFCURVE",
"93 690 CURVE SMOOTH",
"64 690 OFFCURVE",
"42 678 OFFCURVE",
"24 657 CURVE",
"63 629 LINE",
"71 638 OFFCURVE",
"85 645 OFFCURVE",
"94 645 CURVE SMOOTH",
"115 645 OFFCURVE",
"133 629 OFFCURVE",
"133 602 CURVE SMOOTH",
"133 1 LINE"
);
}
);
width = 714;
}
);
leftKerningGroup = E;
unicode = 0048;
userData = {
position = 554;
width = 61;
};
},
{
glyphname = H.ss01;
lastChange = "2019-09-25 07:55:41 +0000";
layers = (
{
anchors = (
{
name = bottom;
position = "{345, 0}";
},
{
name = center;
position = "{360, 513}";
},
{
name = top;
position = "{350, 684}";
},
{
name = topleft;
position = "{33, 684}";
}
);
layerId = "873CAA12-270D-4223-A88E-AE8E101FDBE8";
paths = (
{
closed = 1;
nodes = (
"160 0 LINE",
"160 327 LINE",
"529 327 LINE",
"529 0 LINE",
"590 0 LINE",
"590 684 LINE",
"529 684 LINE",
"529 384 LINE",
"160 384 LINE",
"160 684 LINE",
"99 684 LINE",
"99 0 LINE"
);
}
);
width = 689;
},
{
anchors = (
{
name = bottom;
position = "{349, 0}";
},
{
name = center;
position = "{338, 512}";
},
{
name = top;
position = "{336, 684}";
},
{
name = topleft;
position = "{29, 684}";
}
);
layerId = "0CAF3BED-C4AC-4024-B3E1-4C69D1EF7EC0";
paths = (
{
closed = 1;
nodes = (
"181 -1 LINE",
"181 317 LINE",
"516 317 LINE",
"516 -1 LINE",
"598 -1 LINE",
"598 686 LINE",
"516 686 LINE",
"516 395 LINE",
"181 395 LINE",
"181 686 LINE",
"99 686 LINE",
"99 -1 LINE"
);
}
);
width = 697;
},
{
anchors = (
{
name = bottom;
position = "{336, 0}";
},
{
name = center;
position = "{330, 500}";
},
{
name = top;
position = "{333, 684}";
},
{
name = topleft;
position = "{25, 684}";
}
);
layerId = "49C16FD3-6177-408B-A733-AEB3898BB77C";
paths = (
{
closed = 1;
nodes = (
"142 1 LINE",
"142 335 LINE",
"533 335 LINE",
"533 1 LINE",
"581 1 LINE",
"581 685 LINE",
"533 685 LINE",
"533 379 LINE",
"142 379 LINE",
"142 685 LINE",
"94 685 LINE",
"94 1 LINE"
);
}
);
width = 675;
}
);
leftKerningGroup = L;
userData = {
position = 525;
width = 61;
};
},
{
glyphname = H.swsh;
lastChange = "2019-09-25 07:55:46 +0000";
layers = (
{
anchors = (
{
name = bottom;
position = "{383, 0}";
},
{
name = center;
position = "{414, 355}";
},
{
name = top;
position = "{412, 684}";
},
{
name = topleft;
position = "{50, 684}";
}
);
layerId = "873CAA12-270D-4223-A88E-AE8E101FDBE8";
paths = (
{
closed = 1;
nodes = (
"219 0 LINE",
"219 327 LINE",
"588 327 LINE",
"588 0 LINE",
"649 0 LINE",
"649 684 LINE",
"588 684 LINE",
"588 384 LINE",
"219 384 LINE",
"219 599 LINE",
"157 599 LINE",
"157 0 LINE"
);
},
{
closed = 1;
nodes = (
"216 710 OFFCURVE",
"53 734 OFFCURVE",
"33 604 CURVE",
"89 596 LINE",
"92 618 OFFCURVE",
"102 636 OFFCURVE",
"124 636 CURVE",
"152 636 OFFCURVE",
"157 612 OFFCURVE",
"157 604 CURVE",
"157 447 LINE",
"219 447 LINE",
"219 604 LINE"
);
}
);
width = 748;
},
{
anchors = (
{
name = bottom;
position = "{384, 0}";
},
{
name = center;
position = "{407, 355}";
},
{
name = top;
position = "{414, 675}";
},
{
name = topleft;
position = "{47, 684}";
}
);
layerId = "0CAF3BED-C4AC-4024-B3E1-4C69D1EF7EC0";
paths = (
{
closed = 1;
nodes = (
"238 -1 LINE",
"238 317 LINE",
"573 317 LINE",
"573 -1 LINE",
"655 -1 LINE",
"655 686 LINE",
"573 686 LINE",
"573 395 LINE",
"238 395 LINE",
"238 589 LINE",
"155 589 LINE",
"155 -1 LINE"
);
},
{
closed = 1;
nodes = (
"234 719 OFFCURVE",
"57 747 OFFCURVE",
"33 602 CURVE",
"109 592 LINE",
"110 601 OFFCURVE",
"113 610 OFFCURVE",
"119 616 CURVE",
"130 629 OFFCURVE",
"155 623 OFFCURVE",
"155 600 CURVE",
"155 444 LINE",
"238 444 LINE",
"238 607 OFFCURVE",
"238 601 OFFCURVE",
"238 601 CURVE"
);
}
);
width = 754;
},
{
anchors = (
{
name = bottom;
position = "{383, 0}";
},
{
name = center;
position = "{407, 356}";
},
{
name = top;
position = "{405, 692}";
},
{
name = topleft;
position = "{61, 684}";
}
);
layerId = "49C16FD3-6177-408B-A733-AEB3898BB77C";
paths = (
{
closed = 1;
nodes = (
"201 1 LINE",
"201 335 LINE",
"591 335 LINE",
"591 1 LINE",
"639 1 LINE",
"639 685 LINE",
"591 685 LINE",
"591 379 LINE",
"201 379 LINE",
"201 602 LINE",
"152 602 LINE",
"152 596 LINE",
"152 1 LINE"
);
},
{
closed = 1;
nodes = (
"197 708 OFFCURVE",
"47 731 OFFCURVE",
"28 605 CURVE",
"77 598 LINE",
"84 649 OFFCURVE",
"125 648 OFFCURVE",
"142 630 CURVE",
"148 624 OFFCURVE",
"151 614 OFFCURVE",
"152 602 CURVE",
"152 442 LINE",
"201 448 LINE",
"201 606 LINE"
);
}
);
width = 733;
}
);
leftKerningGroup = Swash;
userData = {
position = 554;
width = 61;
};
},
{
glyphname = I;
lastChange = "2019-09-24 06:42:06 +0000";
layers = (
{
anchors = (
{
name = bottom;
position = "{130, -1}";
},
{
name = center;
position = "{132, 386}";
},
{
name = ogonek;
position = "{160, 0}";
},
{
name = top;
position = "{127, 674}";
},
{
name = topleft;
position = "{33, 684}";
}
);
layerId = "873CAA12-270D-4223-A88E-AE8E101FDBE8";
paths = (
{
closed = 1;
nodes = (
"160 0 LINE",
"160 684 LINE",
"99 684 LINE",
"99 0 LINE"
);
}
);
width = 259;
},
{
anchors = (
{
name = bottom;
position = "{140, 0}";
},
{
name = center;
position = "{139, 386}";
},
{
name = ogonek;
position = "{181, -1}";
},
{
name = top;
position = "{138, 675}";
},
{
name = topleft;
position = "{33, 684}";
}
);
layerId = "0CAF3BED-C4AC-4024-B3E1-4C69D1EF7EC0";
paths = (
{
closed = 1;
nodes = (
"181 -1 LINE",
"181 686 LINE",
"99 686 LINE",
"99 -1 LINE"
);
}
);
width = 280;
},
{
anchors = (
{
name = bottom;
position = "{119, 0}";
},
{
name = center;
position = "{118, 386}";
},
{
name = ogonek;
position = "{142, 1}";
},
{
name = top;
position = "{116, 684}";
},
{
name = topleft;
position = "{28, 684}";
}
);
layerId = "49C16FD3-6177-408B-A733-AEB3898BB77C";
paths = (
{
closed = 1;
nodes = (
"142 1 LINE",
"142 685 LINE",
"94 685 LINE",
"94 1 LINE"
);
}
);
width = 236;
}
);
unicode = 0049;
userData = {
position = 54;
width = 61;
};
},
{
glyphname = J;
lastChange = "2019-09-25 08:00:13 +0000";
layers = (
{
anchors = (
{
name = bottom;
position = "{223, 0}";
},
{
name = top;
position = "{243, 682}";
}
);
layerId = "873CAA12-270D-4223-A88E-AE8E101FDBE8";
paths = (
{
closed = 1;
nodes = (
"353 -7 OFFCURVE",
"406 89 OFFCURVE",
"406 188 CURVE SMOOTH",
"406 687 LINE",
"350 687 LINE",
"350 685 OFFCURVE",
"343 679 OFFCURVE",
"332 672 CURVE SMOOTH",
"318 664 OFFCURVE",
"308 660 OFFCURVE",
"296 660 CURVE SMOOTH",
"282 660 OFFCURVE",
"266 665 OFFCURVE",
"243 673 CURVE SMOOTH",
"178 694 OFFCURVE",
"169 696 OFFCURVE",
"153 696 CURVE SMOOTH",
"127 696 OFFCURVE",
"108 691 OFFCURVE",
"49 667 CURVE",
"74 616 LINE",
"99 627 OFFCURVE",
"127 640 OFFCURVE",
"153 640 CURVE SMOOTH",
"185 640 OFFCURVE",
"211 619 OFFCURVE",
"248 610 CURVE SMOOTH",
"259 607 OFFCURVE",
"276 604 OFFCURVE",
"294 604 CURVE SMOOTH",
"313 604 OFFCURVE",
"333 607 OFFCURVE",
"349 617 CURVE",
"349 191 LINE SMOOTH",
"349 127 OFFCURVE",
"323 50 OFFCURVE",
"226 50 CURVE SMOOTH",
"149 50 OFFCURVE",
"104 99 OFFCURVE",
"104 171 CURVE",
"47 176 LINE",
"49 87 OFFCURVE",
"95 -7 OFFCURVE",
"223 -7 CURVE SMOOTH"
);
}
);
width = 496;
},
{
anchors = (
{
name = bottom;
position = "{237, 0}";
},
{
name = top;
position = "{237, 684}";
}
);
layerId = "0CAF3BED-C4AC-4024-B3E1-4C69D1EF7EC0";
paths = (
{
closed = 1;
nodes = (
"367 -7 OFFCURVE",
"423 94 OFFCURVE",
"423 193 CURVE SMOOTH",
"423 689 LINE",
"357 689 LINE",
"349 676 OFFCURVE",
"319 663 OFFCURVE",
"305 663 CURVE SMOOTH",
"293 663 OFFCURVE",
"279 666 OFFCURVE",
"257 673 CURVE SMOOTH",
"217 686 OFFCURVE",
"183 698 OFFCURVE",
"166 698 CURVE SMOOTH",
"138 698 OFFCURVE",
"116 692 OFFCURVE",
"49 664 CURVE",
"83 595 LINE",
"112 607 OFFCURVE",
"141 620 OFFCURVE",
"166 620 CURVE SMOOTH",
"193 620 OFFCURVE",
"217 601 OFFCURVE",
"255 592 CURVE SMOOTH",
"266 589 OFFCURVE",
"284 585 OFFCURVE",
"303 585 CURVE SMOOTH",
"316 585 OFFCURVE",
"331 587 OFFCURVE",
"344 592 CURVE",
"344 196 LINE SMOOTH",
"344 138 OFFCURVE",
"321 71 OFFCURVE",
"237 71 CURVE SMOOTH",
"165 71 OFFCURVE",
"126 118 OFFCURVE",
"130 188 CURVE",
"52 194 LINE",
"49 103 OFFCURVE",
"96 -7 OFFCURVE",
"234 -7 CURVE SMOOTH"
);
}
);
width = 512;
},
{
anchors = (
{
name = bottom;
position = "{216, 0}";
},
{
name = top;
position = "{217, 684}";
}
);
layerId = "49C16FD3-6177-408B-A733-AEB3898BB77C";
paths = (
{
closed = 1;
nodes = (
"340 -6 OFFCURVE",
"392 87 OFFCURVE",
"392 186 CURVE SMOOTH",
"392 688 LINE",
"345 688 LINE",
"336 676 OFFCURVE",
"308 660 OFFCURVE",
"287 660 CURVE SMOOTH",
"271 660 OFFCURVE",
"254 665 OFFCURVE",
"230 674 CURVE SMOOTH",
"164 695 OFFCURVE",
"156 697 OFFCURVE",
"141 697 CURVE SMOOTH",
"116 697 OFFCURVE",
"99 692 OFFCURVE",
"44 671 CURVE",
"64 631 LINE",
"87 640 OFFCURVE",
"114 654 OFFCURVE",
"141 654 CURVE SMOOTH",
"176 654 OFFCURVE",
"203 632 OFFCURVE",
"239 623 CURVE SMOOTH",
"250 620 OFFCURVE",
"267 617 OFFCURVE",
"285 617 CURVE SMOOTH",
"308 617 OFFCURVE",
"331 622 OFFCURVE",
"348 638 CURVE",
"348 189 LINE SMOOTH",
"348 122 OFFCURVE",
"319 38 OFFCURVE",
"215 38 CURVE SMOOTH",
"136 38 OFFCURVE",
"86 89 OFFCURVE",
"84 162 CURVE",
"40 166 LINE",
"44 79 OFFCURVE",
"90 -6 OFFCURVE",
"212 -6 CURVE SMOOTH"
);
}
);
width = 477;
}
);
leftKerningGroup = J;
unicode = 004A;
userData = {
position = 333;
width = 53;
};
},
{
glyphname = J.ss01;
lastChange = "2019-09-25 08:00:16 +0000";
layers = (
{
anchors = (
{
name = bottom;
position = "{218, 0}";
},
{
name = top;
position = "{364, 684}";
}
);
layerId = "873CAA12-270D-4223-A88E-AE8E101FDBE8";
paths = (
{
closed = 1;
nodes = (
"343 -7 OFFCURVE",
"396 89 OFFCURVE",
"396 188 CURVE SMOOTH",
"396 684 LINE",
"337 684 LINE",
"339 629 LINE",
"339 191 LINE SMOOTH",
"339 127 OFFCURVE",
"313 50 OFFCURVE",
"216 50 CURVE SMOOTH",
"139 50 OFFCURVE",
"94 99 OFFCURVE",
"94 171 CURVE",
"37 176 LINE",
"39 87 OFFCURVE",
"85 -7 OFFCURVE",
"213 -7 CURVE SMOOTH"
);
}
);
width = 486;
},
{
anchors = (
{
name = bottom;
position = "{224, 0}";
},
{
name = top;
position = "{370, 684}";
}
);
layerId = "0CAF3BED-C4AC-4024-B3E1-4C69D1EF7EC0";
paths = (
{
closed = 1;
nodes = (
"354 -9 OFFCURVE",
"410 92 OFFCURVE",
"410 191 CURVE SMOOTH",
"410 684 LINE",
"331 684 LINE",
"331 606 LINE",
"331 194 LINE SMOOTH",
"331 136 OFFCURVE",
"308 69 OFFCURVE",
"224 69 CURVE SMOOTH",
"152 69 OFFCURVE",
"113 116 OFFCURVE",
"117 186 CURVE",
"39 192 LINE",
"36 101 OFFCURVE",
"83 -9 OFFCURVE",
"221 -9 CURVE SMOOTH"
);
}
);
width = 499;
},
{
anchors = (
{
name = bottom;
position = "{207, 0}";
},
{
name = top;
position = "{362, 684}";
}
);
layerId = "49C16FD3-6177-408B-A733-AEB3898BB77C";
paths = (
{
closed = 1;
nodes = (
"331 -6 OFFCURVE",
"383 87 OFFCURVE",
"383 186 CURVE SMOOTH",
"383 685 LINE",
"340 684 LINE",
"339 635 LINE",
"339 189 LINE SMOOTH",
"339 122 OFFCURVE",
"310 38 OFFCURVE",
"206 38 CURVE SMOOTH",
"127 38 OFFCURVE",
"77 89 OFFCURVE",
"75 162 CURVE",
"31 166 LINE",
"33 79 OFFCURVE",
"81 -6 OFFCURVE",
"203 -6 CURVE SMOOTH"
);
}
);
width = 468;
}
);
leftKerningGroup = Jtext;
userData = {
position = 333;
width = 53;
};
},
{
glyphname = K;
lastChange = "2019-09-24 06:42:05 +0000";
layers = (
{
anchors = (
{
name = bottom;
position = "{292, 0}";
},
{
name = top;
position = "{292, 684}";
}
);
layerId = "873CAA12-270D-4223-A88E-AE8E101FDBE8";
paths = (
{
closed = 1;
nodes = (
"592 -8 OFFCURVE",
"644 21 OFFCURVE",
"644 84 CURVE",
"587 83 LINE",
"587 63 OFFCURVE",
"573 49 OFFCURVE",
"553 49 CURVE SMOOTH",
"540 49 OFFCURVE",
"531 55 OFFCURVE",
"525 64 CURVE SMOOTH",
"325 347 LINE",
"343 362 OFFCURVE",
"357 377 OFFCURVE",
"379 408 CURVE SMOOTH",
"396 431 OFFCURVE",
"417 468 OFFCURVE",
"431 493 CURVE SMOOTH",
"453 532 OFFCURVE",
"462 548 OFFCURVE",
"534 684 CURVE",
"459 684 LINE",
"422 606 OFFCURVE",
"402 565 OFFCURVE",
"382 529 CURVE SMOOTH",
"363 495 OFFCURVE",
"337 453 OFFCURVE",
"314 424 CURVE SMOOTH",
"301 408 OFFCURVE",
"292 397 OFFCURVE",
"268 386 CURVE SMOOTH",
"253 379 OFFCURVE",
"234 373 OFFCURVE",
"203 372 CURVE SMOOTH",
"160 371 LINE",
"160 684 LINE",
"99 684 LINE",
"99 1 LINE",
"162 1 LINE",
"162 313 LINE",
"221 312 OFFCURVE",
"238 314 OFFCURVE",
"271 324 CURVE",
"478 31 LINE SMOOTH",
"495 6 OFFCURVE",
"523 -8 OFFCURVE",
"551 -8 CURVE SMOOTH"
);
}
);
width = 677;
},
{
anchors = (
{
name = bottom;
position = "{325, 2}";
},
{
name = top;
position = "{326, 670}";
}
);
layerId = "0CAF3BED-C4AC-4024-B3E1-4C69D1EF7EC0";
paths = (
{
closed = 1;
nodes = (
"594 -8 OFFCURVE",
"657 28 OFFCURVE",
"650 104 CURVE",
"570 103 LINE",
"572 99 OFFCURVE",
"572 95 OFFCURVE",
"572 92 CURVE SMOOTH",
"572 79 OFFCURVE",
"563 70 OFFCURVE",
"551 70 CURVE SMOOTH",
"542 70 OFFCURVE",
"538 73 OFFCURVE",
"533 80 CURVE SMOOTH",
"345 346 LINE",
"360 359 OFFCURVE",
"373 374 OFFCURVE",
"391 400 CURVE SMOOTH",
"408 423 OFFCURVE",
"429 459 OFFCURVE",
"443 484 CURVE SMOOTH",
"465 523 OFFCURVE",
"473 538 OFFCURVE",
"552 686 CURVE",
"452 686 LINE",
"414 606 OFFCURVE",
"395 566 OFFCURVE",
"375 530 CURVE SMOOTH",
"356 497 OFFCURVE",
"332 457 OFFCURVE",
"310 430 CURVE SMOOTH",
"297 414 OFFCURVE",
"290 406 OFFCURVE",
"269 396 CURVE SMOOTH",
"256 390 OFFCURVE",
"239 385 OFFCURVE",
"211 384 CURVE SMOOTH",
"181 383 LINE",
"181 686 LINE",
"99 686 LINE",
"99 0 LINE",
"183 0 LINE",
"183 303 LINE",
"228 302 OFFCURVE",
"246 305 OFFCURVE",
"273 312 CURVE",
"469 34 LINE SMOOTH",
"487 8 OFFCURVE",
"519 -8 OFFCURVE",
"549 -8 CURVE SMOOTH"
);
}
);
width = 686;
},
{
anchors = (
{
name = bottom;
position = "{312, 0}";
},
{
name = top;
position = "{312, 684}";
}
);
layerId = "49C16FD3-6177-408B-A733-AEB3898BB77C";
paths = (
{
closed = 1;
nodes = (
"586 -7 OFFCURVE",
"632 17 OFFCURVE",
"636 72 CURVE",
"591 72 LINE",
"588 52 OFFCURVE",
"571 37 OFFCURVE",
"550 37 CURVE SMOOTH",
"535 37 OFFCURVE",
"523 45 OFFCURVE",
"516 55 CURVE SMOOTH",
"308 349 LINE",
"329 366 OFFCURVE",
"343 380 OFFCURVE",
"367 414 CURVE SMOOTH",
"384 437 OFFCURVE",
"405 475 OFFCURVE",
"419 500 CURVE SMOOTH",
"441 539 OFFCURVE",
"451 556 OFFCURVE",
"519 685 CURVE",
"459 685 LINE",
"422 608 OFFCURVE",
"402 566 OFFCURVE",
"382 530 CURVE SMOOTH",
"363 495 OFFCURVE",
"336 452 OFFCURVE",
"312 422 CURVE SMOOTH",
"299 406 OFFCURVE",
"288 393 OFFCURVE",
"262 381 CURVE SMOOTH",
"247 374 OFFCURVE",
"226 367 OFFCURVE",
"193 366 CURVE SMOOTH",
"142 365 LINE",
"142 685 LINE",
"94 685 LINE",
"94 2 LINE",
"144 2 LINE",
"144 321 LINE",
"159 321 OFFCURVE",
"171 320 OFFCURVE",
"182 320 CURVE SMOOTH",
"220 320 OFFCURVE",
"235 324 OFFCURVE",
"265 333 CURVE",
"479 30 LINE SMOOTH",
"496 6 OFFCURVE",
"521 -7 OFFCURVE",
"548 -7 CURVE SMOOTH"
);
}
);
width = 663;
}
);
rightKerningGroup = K;
unicode = 004B;
userData = {
position = 542;
width = 57;
};
},
{
glyphname = K.ss01;
lastChange = "2019-09-25 08:00:25 +0000";
layers = (
{
anchors = (
{
name = bottom;
position = "{367, 0}";
},
{
name = top;
position = "{367, 684}";
}
);
layerId = "873CAA12-270D-4223-A88E-AE8E101FDBE8";
paths = (
{
closed = 1;
nodes = (
"579 -8 OFFCURVE",
"601 3 OFFCURVE",
"618 20 CURVE",
"577 59 LINE",
"570 52 OFFCURVE",
"562 49 OFFCURVE",
"553 49 CURVE SMOOTH",
"540 49 OFFCURVE",
"531 55 OFFCURVE",
"525 64 CURVE SMOOTH",
"325 347 LINE",
"345 363 OFFCURVE",
"366 389 OFFCURVE",
"379 408 CURVE SMOOTH",
"393 428 OFFCURVE",
"415 464 OFFCURVE",
"431 492 CURVE SMOOTH",
"459 541 OFFCURVE",
"496 618 OFFCURVE",
"532 684 CURVE",
"459 684 LINE",
"421 604 OFFCURVE",
"402 565 OFFCURVE",
"382 529 CURVE SMOOTH",
"364 497 OFFCURVE",
"337 452 OFFCURVE",
"313 423 CURVE SMOOTH",
"284 387 OFFCURVE",
"256 375 OFFCURVE",
"203 372 CURVE SMOOTH",
"160 371 LINE",
"160 684 LINE",
"99 684 LINE",
"99 1 LINE",
"162 1 LINE",
"162 313 LINE",
"168 313 OFFCURVE",
"176 312 OFFCURVE",
"184 312 CURVE SMOOTH",
"209 312 OFFCURVE",
"241 315 OFFCURVE",
"271 324 CURVE",
"478 31 LINE SMOOTH",
"495 6 OFFCURVE",
"523 -8 OFFCURVE",
"553 -8 CURVE SMOOTH"
);
}
);
width = 647;
},
{
anchors = (
{
name = bottom;
position = "{364, 0}";
},
{
name = top;
position = "{363, 684}";
}
);
layerId = "0CAF3BED-C4AC-4024-B3E1-4C69D1EF7EC0";
paths = (
{
closed = 1;
nodes = (
"583 -8 OFFCURVE",
"612 9 OFFCURVE",
"630 31 CURVE",
"578 85 LINE",
"568 73 OFFCURVE",
"560 70 OFFCURVE",
"551 70 CURVE SMOOTH",
"542 70 OFFCURVE",
"538 73 OFFCURVE",
"533 80 CURVE SMOOTH",
"345 346 LINE",
"363 362 OFFCURVE",
"380 384 OFFCURVE",
"392 400 CURVE SMOOTH",
"405 420 OFFCURVE",
"427 455 OFFCURVE",
"443 483 CURVE SMOOTH",
"472 535 OFFCURVE",
"512 619 OFFCURVE",
"550 686 CURVE",
"452 686 LINE",
"413 604 OFFCURVE",
"395 566 OFFCURVE",
"375 530 CURVE SMOOTH",
"357 499 OFFCURVE",
"332 456 OFFCURVE",
"309 429 CURVE SMOOTH",
"283 396 OFFCURVE",
"260 386 OFFCURVE",
"211 384 CURVE SMOOTH",
"181 383 LINE",
"181 686 LINE",
"99 686 LINE",
"99 0 LINE",
"183 0 LINE",
"183 302 LINE",
"186 302 OFFCURVE",
"190 302 OFFCURVE",
"193 302 CURVE SMOOTH",
"215 302 OFFCURVE",
"245 305 OFFCURVE",
"272 312 CURVE",
"469 34 LINE SMOOTH",
"487 8 OFFCURVE",
"519 -8 OFFCURVE",
"551 -8 CURVE SMOOTH"
);
}
);
width = 660;
},
{
anchors = (
{
name = bottom;
position = "{360, -6}";
},
{
name = top;
position = "{360, 692}";
}
);
layerId = "49C16FD3-6177-408B-A733-AEB3898BB77C";
paths = (
{
closed = 1;
nodes = (
"572 -7 OFFCURVE",
"591 1 OFFCURVE",
"606 14 CURVE",
"574 45 LINE",
"567 39 OFFCURVE",
"558 37 OFFCURVE",
"550 37 CURVE SMOOTH",
"535 37 OFFCURVE",
"523 45 OFFCURVE",
"516 55 CURVE SMOOTH",
"308 349 LINE",
"329 365 OFFCURVE",
"352 393 OFFCURVE",
"367 414 CURVE SMOOTH",
"381 434 OFFCURVE",
"403 471 OFFCURVE",
"420 499 CURVE SMOOTH",
"446 547 OFFCURVE",
"482 620 OFFCURVE",
"517 685 CURVE",
"459 685 LINE",
"421 606 OFFCURVE",
"402 566 OFFCURVE",
"382 530 CURVE SMOOTH",
"364 497 OFFCURVE",
"336 451 OFFCURVE",
"311 421 CURVE SMOOTH",
"280 383 OFFCURVE",
"249 369 OFFCURVE",
"194 366 CURVE SMOOTH",
"142 365 LINE",
"142 685 LINE",
"94 685 LINE",
"94 2 LINE",
"144 2 LINE",
"144 320 LINE",
"151 321 OFFCURVE",
"163 319 OFFCURVE",
"174 319 CURVE SMOOTH",
"200 319 OFFCURVE",
"234 323 OFFCURVE",
"265 333 CURVE",
"479 30 LINE SMOOTH",
"496 6 OFFCURVE",
"521 -7 OFFCURVE",
"550 -7 CURVE SMOOTH"
);
}
);
width = 629;
}
);
rightKerningGroup = Ktext;
userData = {
position = 542;
width = 57;
};
},
{
glyphname = K.swsh;
lastChange = "2019-09-25 08:00:31 +0000";
layers = (
{
anchors = (
{
name = bottom;
position = "{424, 0}";
},
{
name = top;
position = "{424, 684}";
}
);
components = (
{
name = top_swash;
transform = "{1, 0, 0, 1, -18, 6}";
}
);
layerId = "873CAA12-270D-4223-A88E-AE8E101FDBE8";
paths = (
{
closed = 1;
nodes = (
"649 -8 OFFCURVE",
"701 21 OFFCURVE",
"701 84 CURVE",
"644 83 LINE",
"644 63 OFFCURVE",
"630 49 OFFCURVE",
"610 49 CURVE SMOOTH",
"597 49 OFFCURVE",
"588 55 OFFCURVE",
"582 64 CURVE SMOOTH",
"382 347 LINE",
"400 362 OFFCURVE",
"414 377 OFFCURVE",
"436 408 CURVE SMOOTH",
"453 431 OFFCURVE",
"474 468 OFFCURVE",
"488 493 CURVE SMOOTH",
"510 532 OFFCURVE",
"519 548 OFFCURVE",
"591 684 CURVE",
"516 684 LINE",
"479 606 OFFCURVE",
"459 565 OFFCURVE",
"439 529 CURVE SMOOTH",
"420 495 OFFCURVE",
"394 453 OFFCURVE",
"371 424 CURVE SMOOTH",
"358 408 OFFCURVE",
"349 397 OFFCURVE",
"325 386 CURVE SMOOTH",
"310 379 OFFCURVE",
"291 373 OFFCURVE",
"260 372 CURVE SMOOTH",
"217 371 LINE",
"217 567 LINE",
"156 567 LINE",
"156 1 LINE",
"219 1 LINE",
"219 313 LINE",
"278 312 OFFCURVE",
"295 314 OFFCURVE",
"328 324 CURVE",
"535 31 LINE SMOOTH",
"552 6 OFFCURVE",
"580 -8 OFFCURVE",
"608 -8 CURVE SMOOTH"
);
}
);
width = 734;
},
{
anchors = (
{
name = bottom;
position = "{426, 11}";
},
{
name = top;
position = "{426, 675}";
}
);
components = (
{
name = top_swash;
transform = "{1, 0, 0, 1, -21, 0}";
}
);
layerId = "0CAF3BED-C4AC-4024-B3E1-4C69D1EF7EC0";
paths = (
{
closed = 1;
nodes = (
"650 -8 OFFCURVE",
"713 28 OFFCURVE",
"706 104 CURVE",
"626 103 LINE",
"628 99 OFFCURVE",
"628 95 OFFCURVE",
"628 92 CURVE SMOOTH",
"628 79 OFFCURVE",
"619 70 OFFCURVE",
"607 70 CURVE SMOOTH",
"598 70 OFFCURVE",
"594 73 OFFCURVE",
"589 80 CURVE SMOOTH",
"401 346 LINE",
"416 359 OFFCURVE",
"429 374 OFFCURVE",
"447 400 CURVE SMOOTH",
"464 423 OFFCURVE",
"485 459 OFFCURVE",
"499 484 CURVE SMOOTH",
"521 523 OFFCURVE",
"529 538 OFFCURVE",
"608 686 CURVE",
"508 686 LINE",
"470 606 OFFCURVE",
"451 566 OFFCURVE",
"431 530 CURVE SMOOTH",
"412 497 OFFCURVE",
"388 457 OFFCURVE",
"366 430 CURVE SMOOTH",
"353 414 OFFCURVE",
"346 406 OFFCURVE",
"325 396 CURVE SMOOTH",
"312 390 OFFCURVE",
"295 385 OFFCURVE",
"267 384 CURVE SMOOTH",
"237 383 LINE",
"237 536 LINE",
"155 536 LINE",
"155 0 LINE",
"239 0 LINE",
"239 303 LINE",
"284 302 OFFCURVE",
"302 305 OFFCURVE",
"329 312 CURVE",
"525 34 LINE SMOOTH",
"543 8 OFFCURVE",
"575 -8 OFFCURVE",
"605 -8 CURVE SMOOTH"
);
}
);
width = 742;
},
{
anchors = (
{
name = bottom;
position = "{415, -6}";
},
{
name = top;
position = "{415, 692}";
}
);
components = (
{
name = top_swash;
transform = "{1, 0, 0, 1, 1, 0}";
}
);
layerId = "49C16FD3-6177-408B-A733-AEB3898BB77C";
paths = (
{
closed = 1;
nodes = (
"641 -7 OFFCURVE",
"687 17 OFFCURVE",
"691 72 CURVE",
"646 72 LINE",
"643 52 OFFCURVE",
"626 37 OFFCURVE",
"605 37 CURVE SMOOTH",
"590 37 OFFCURVE",
"578 45 OFFCURVE",
"571 55 CURVE SMOOTH",
"363 349 LINE",
"384 366 OFFCURVE",
"398 380 OFFCURVE",
"422 414 CURVE SMOOTH",
"439 437 OFFCURVE",
"460 475 OFFCURVE",
"474 500 CURVE SMOOTH",
"496 539 OFFCURVE",
"506 556 OFFCURVE",
"574 685 CURVE",
"514 685 LINE",
"477 608 OFFCURVE",
"457 566 OFFCURVE",
"437 530 CURVE SMOOTH",
"418 495 OFFCURVE",
"391 452 OFFCURVE",
"367 422 CURVE SMOOTH",
"354 406 OFFCURVE",
"343 393 OFFCURVE",
"317 381 CURVE SMOOTH",
"302 374 OFFCURVE",
"281 367 OFFCURVE",
"248 366 CURVE SMOOTH",
"197 365 LINE",
"197 595 LINE",
"149 595 LINE",
"149 2 LINE",
"199 2 LINE",
"199 321 LINE",
"214 321 OFFCURVE",
"226 320 OFFCURVE",
"237 320 CURVE SMOOTH",
"275 320 OFFCURVE",
"290 324 OFFCURVE",
"320 333 CURVE",
"534 30 LINE SMOOTH",
"551 6 OFFCURVE",
"576 -7 OFFCURVE",
"603 -7 CURVE SMOOTH"
);
}
);
width = 718;
}
);
leftKerningGroup = Swash;
rightKerningGroup = K;
userData = {
position = 542;
width = 57;
};
},
{
glyphname = L;
lastChange = "2019-09-24 06:42:03 +0000";
layers = (
{
anchors = (
{
name = bottom;
position = "{301, 0}";
},
{
name = center;
position = "{301, 342}";
},
{
name = top;
position = "{301, 684}";
},
{
name = topright;
position = "{361, 500}";
}
);
layerId = "873CAA12-270D-4223-A88E-AE8E101FDBE8";
paths = (
{
closed = 1;
nodes = (
"487 0 LINE",
"487 57 LINE",
"160 57 LINE",
"160 684 LINE",
"99 684 LINE",
"99 0 LINE"
);
}
);
width = 520;
},
{
anchors = (
{
name = bottom;
position = "{306, 0}";
},
{
name = center;
position = "{297, 342}";
},
{
name = top;
position = "{306, 684}";
},
{
name = topright;
position = "{371, 500}";
}
);
layerId = "0CAF3BED-C4AC-4024-B3E1-4C69D1EF7EC0";
paths = (
{
closed = 1;
nodes = (
"498 -1 LINE",
"498 78 LINE",
"181 78 LINE",
"181 686 LINE",
"99 686 LINE",
"99 -1 LINE"
);
}
);
width = 534;
},
{
anchors = (
{
name = bottom;
position = "{293, -6}";
},
{
name = center;
position = "{291, 342}";
},
{
name = top;
position = "{293, 692}";
},
{
name = topright;
position = "{326, 500}";
}
);
layerId = "49C16FD3-6177-408B-A733-AEB3898BB77C";
paths = (
{
closed = 1;
nodes = (
"476 1 LINE",
"476 45 LINE",
"142 45 LINE",
"142 685 LINE",
"94 685 LINE",
"94 1 LINE"
);
}
);
width = 503;
}
);
rightKerningGroup = L;
unicode = 004C;
userData = {
position = 54;
width = 61;
};
},
{
glyphname = L.swsh;
lastChange = "2019-09-25 08:00:37 +0000";
layers = (
{
anchors = (
{
name = bottom;
position = "{360, 0}";
},
{
name = center;
position = "{321, 342}";
},
{
name = top;
position = "{360, 684}";
},
{
name = topright;
position = "{550, 684}";
}
);
components = (
{
name = top_swash;
transform = "{1, 0, 0, 1, -17, 1}";
}
);
layerId = "873CAA12-270D-4223-A88E-AE8E101FDBE8";
paths = (
{
closed = 1;
nodes = (
"546 0 LINE",
"546 57 LINE",
"219 57 LINE",
"219 569 LINE",
"158 569 LINE",
"158 0 LINE"
);
}
);
width = 579;
},
{
anchors = (
{
name = bottom;
position = "{362, 11}";
},
{
name = center;
position = "{325, 342}";
},
{
name = top;
position = "{362, 675}";
},
{
name = topright;
position = "{560, 684}";
}
);
components = (
{
name = top_swash;
transform = "{1, 0, 0, 1, -21, 0}";
}
);
layerId = "0CAF3BED-C4AC-4024-B3E1-4C69D1EF7EC0";
paths = (
{
closed = 1;
nodes = (
"554 -1 LINE",
"554 78 LINE",
"237 78 LINE",
"237 566 LINE",
"155 566 LINE",
"155 -1 LINE"
);
}
);
width = 590;
},
{
anchors = (
{
name = bottom;
position = "{351, -6}";
},
{
name = center;
position = "{304, 342}";
},
{
name = top;
position = "{351, 692}";
},
{
name = topright;
position = "{521, 684}";
}
);
components = (
{
name = top_swash;
transform = "{1, 0, 0, 1, 2, 0}";
}
);
layerId = "49C16FD3-6177-408B-A733-AEB3898BB77C";
paths = (
{
closed = 1;
nodes = (
"534 1 LINE",
"534 45 LINE",
"200 45 LINE",
"200 565 LINE",
"152 565 LINE",
"152 1 LINE"
);
}
);
width = 561;
}
);
leftKerningGroup = Swash;
rightKerningGroup = L;
userData = {
position = 54;
width = 61;
};
},
{
glyphname = M;
lastChange = "2019-09-24 13:24:36 +0000";
layers = (
{
anchors = (
{
name = bottom;
position = "{552, 0}";
},
{
name = top;
position = "{551, 690}";
}
);
layerId = "873CAA12-270D-4223-A88E-AE8E101FDBE8";
paths = (
{
closed = 1;
nodes = (
"156 -17 OFFCURVE",
"190 15 OFFCURVE",
"198 54 CURVE SMOOTH",
"303 561 LINE",
"309 601 LINE",
"320 561 LINE",
"522 0 LINE",
"581 0 LINE",
"784 562 LINE",
"795 601 LINE",
"801 563 LINE",
"914 0 LINE",
"971 0 LINE",
"831 684 LINE",
"774 684 LINE",
"563 113 LINE",
"552 74 LINE",
"541 113 LINE",
"332 684 LINE",
"273 684 LINE",
"142 61 LINE",
"137 46 OFFCURVE",
"127 39 OFFCURVE",
"113 39 CURVE SMOOTH",
"97 39 OFFCURVE",
"89 47 OFFCURVE",
"82 59 CURVE",
"30 38 LINE",
"43 7 OFFCURVE",
"75 -17 OFFCURVE",
"113 -17 CURVE SMOOTH"
);
}
);
width = 1015;
},
{
anchors = (
{
name = bottom;
position = "{557, -2}";
},
{
name = top;
position = "{550, 684}";
}
);
layerId = "0CAF3BED-C4AC-4024-B3E1-4C69D1EF7EC0";
paths = (
{
closed = 1;
nodes = (
"172 -12 OFFCURVE",
"211 24 OFFCURVE",
"220 66 CURVE SMOOTH",
"322 553 LINE",
"322 554 LINE",
"320 538 LINE",
"316 552 LINE",
"316 551 LINE",
"515 -1 LINE",
"588 -1 LINE",
"788 552 LINE",
"788 553 LINE",
"785 540 LINE",
"782 555 LINE",
"894 -1 LINE",
"973 -1 LINE",
"832 686 LINE",
"759 686 LINE",
"552 125 LINE",
"552 126 LINE",
"553 124 LINE",
"552 125 LINE",
"347 686 LINE",
"272 686 LINE",
"143 78 LINE",
"139 68 OFFCURVE",
"135 65 OFFCURVE",
"126 65 CURVE SMOOTH",
"113 65 OFFCURVE",
"111 70 OFFCURVE",
"101 88 CURVE",
"31 59 LINE",
"41 22 OFFCURVE",
"81 -12 OFFCURVE",
"126 -12 CURVE SMOOTH"
);
}
);
width = 1017;
},
{
anchors = (
{
name = bottom;
position = "{548, 1}";
},
{
name = top;
position = "{547, 684}";
}
);
layerId = "49C16FD3-6177-408B-A733-AEB3898BB77C";
paths = (
{
closed = 1;
nodes = (
"140 -11 OFFCURVE",
"171 18 OFFCURVE",
"179 56 CURVE SMOOTH",
"286 568 LINE",
"297 641 LINE",
"317 568 LINE",
"317 569 LINE",
"521 1 LINE",
"571 1 LINE",
"777 570 LINE",
"776 569 LINE",
"796 640 LINE",
"808 569 LINE",
"922 1 LINE",
"965 1 LINE",
"825 685 LINE",
"778 685 LINE",
"565 107 LINE",
"547 43 LINE",
"529 107 LINE",
"317 685 LINE",
"268 685 LINE",
"136 60 LINE",
"135 59 LINE",
"129 42 OFFCURVE",
"115 32 OFFCURVE",
"99 32 CURVE SMOOTH",
"82 32 OFFCURVE",
"72 40 OFFCURVE",
"65 51 CURVE",
"24 34 LINE",
"38 8 OFFCURVE",
"65 -11 OFFCURVE",
"99 -11 CURVE SMOOTH"
);
}
);
width = 1004;
}
);
leftKerningGroup = A;
rightKerningGroup = A;
unicode = 004D;
userData = {
position = 664;
width = 20;
};
},
{
glyphname = M.ss01;
lastChange = "2019-09-24 12:31:56 +0000";
layers = (
{
anchors = (
{
name = bottom;
position = "{411, 0}";
},
{
name = top;
position = "{411, 684}";
}
);
layerId = "873CAA12-270D-4223-A88E-AE8E101FDBE8";
paths = (
{
closed = 1;
nodes = (
"160 0 LINE",
"160 454 LINE SMOOTH",
"160 484 OFFCURVE",
"156 524 OFFCURVE",
"152 557 CURVE",
"175 521 OFFCURVE",
"203 481 OFFCURVE",
"225 454 CURVE SMOOTH",
"347 303 OFFCURVE",
"374 272 OFFCURVE",
"399 243 CURVE",
"474 323 OFFCURVE",
"609 484 OFFCURVE",
"670 568 CURVE",
"666 534 OFFCURVE",
"662 487 OFFCURVE",
"662 454 CURVE SMOOTH",
"662 0 LINE",
"723 0 LINE",
"723 693 LINE",
"704 693 LINE",
"405 330 LINE",
"389 346 OFFCURVE",
"394 341 OFFCURVE",
"118 693 CURVE",
"99 693 LINE",
"99 0 LINE"
);
}
);
width = 822;
},
{
anchors = (
{
name = bottom;
position = "{414, 0}";
},
{
name = top;
position = "{414, 684}";
}
);
layerId = "0CAF3BED-C4AC-4024-B3E1-4C69D1EF7EC0";
paths = (
{
closed = 1;
nodes = (
"182 -1 LINE",
"182 452 LINE SMOOTH",
"182 467 OFFCURVE",
"181 486 OFFCURVE",
"179 505 CURVE",
"195 483 OFFCURVE",
"211 461 OFFCURVE",
"224 444 CURVE SMOOTH",
"356 281 OFFCURVE",
"374 262 OFFCURVE",
"402 229 CURVE",
"464 295 OFFCURVE",
"580 432 OFFCURVE",
"649 522 CURVE",
"647 497 OFFCURVE",
"646 472 OFFCURVE",
"646 452 CURVE SMOOTH",
"646 -1 LINE",
"728 -1 LINE",
"728 695 LINE",
"693 695 LINE",
"407 348 LINE",
"135 695 LINE",
"100 695 LINE",
"100 -1 LINE"
);
}
);
width = 828;
},
{
anchors = (
{
name = bottom;
position = "{406, 0}";
},
{
name = top;
position = "{406, 684}";
}
);
layerId = "49C16FD3-6177-408B-A733-AEB3898BB77C";
paths = (
{
closed = 1;
nodes = (
"143 1 LINE",
"143 457 LINE SMOOTH",
"143 498 OFFCURVE",
"136 558 OFFCURVE",
"131 594 CURVE",
"156 552 OFFCURVE",
"194 496 OFFCURVE",
"222 462 CURVE SMOOTH",
"338 318 OFFCURVE",
"370 281 OFFCURVE",
"394 253 CURVE",
"479 344 OFFCURVE",
"631 526 OFFCURVE",
"681 600 CURVE",
"676 568 OFFCURVE",
"669 501 OFFCURVE",
"669 457 CURVE SMOOTH",
"669 1 LINE",
"717 1 LINE",
"717 694 LINE",
"708 694 LINE",
"406 326 LINE",
"395 326 LINE",
"379 342 OFFCURVE",
"311 430 OFFCURVE",
"104 694 CURVE",
"95 694 LINE",
"95 1 LINE"
);
}
);
width = 812;
}
);
userData = {
position = 658;
width = 61;
};
},
{
glyphname = M.swsh;
lastChange = "2019-09-25 08:00:57 +0000";
layers = (
{
anchors = (
{
name = bottom;
position = "{562, 0}";
},
{
name = top;
position = "{561, 690}";
}
);
layerId = "873CAA12-270D-4223-A88E-AE8E101FDBE8";
paths = (
{
closed = 1;
nodes = (
"215 82 LINE",
"313 561 LINE",
"319 601 LINE",
"330 561 LINE",
"532 0 LINE",
"591 0 LINE",
"794 562 LINE",
"805 601 LINE",
"811 563 LINE",
"924 0 LINE",
"981 0 LINE",
"841 684 LINE",
"784 684 LINE",
"573 113 LINE",
"562 74 LINE",
"551 113 LINE",
"342 684 LINE",
"283 684 LINE",
"158 96 LINE"
);
},
{
closed = 1;
nodes = (
"157 94 LINE SMOOTH",
"152 70 OFFCURVE",
"148 58 OFFCURVE",
"143 50 CURVE SMOOTH",
"127 25 OFFCURVE",
"79 39 OFFCURVE",
"88 73 CURVE",
"33 86 LINE",
"18 21 OFFCURVE",
"74 -28 OFFCURVE",
"136 -16 CURVE SMOOTH",
"182 -7 OFFCURVE",
"202 17 OFFCURVE",
"215 82 CURVE SMOOTH",
"245 232 LINE",
"190 239 LINE"
);
}
);
width = 1025;
},
{
anchors = (
{
name = bottom;
position = "{569, -2}";
},
{
name = top;
position = "{562, 684}";
}
);
layerId = "0CAF3BED-C4AC-4024-B3E1-4C69D1EF7EC0";
paths = (
{
closed = 1;
nodes = (
"268 238 LINE",
"334 553 LINE",
"334 554 LINE",
"332 538 LINE",
"328 552 LINE",
"328 551 LINE",
"527 -1 LINE",
"600 -1 LINE",
"800 552 LINE",
"800 553 LINE",
"797 540 LINE",
"794 555 LINE",
"906 -1 LINE",
"985 -1 LINE",
"844 686 LINE",
"771 686 LINE",
"564 125 LINE",
"564 126 LINE",
"565 124 LINE",
"564 125 LINE",
"359 686 LINE",
"284 686 LINE",
"155 78 LINE"
);
},
{
closed = 1;
nodes = (
"121 59 OFFCURVE",
"103 67 OFFCURVE",
"108 86 CURVE",
"39 114 LINE",
"8 28 OFFCURVE",
"83 -28 OFFCURVE",
"149 -16 CURVE SMOOTH",
"199 -7 OFFCURVE",
"221 30 OFFCURVE",
"234 79 CURVE",
"268 238 LINE",
"188 233 LINE",
"161 109 LINE SMOOTH",
"156 84 OFFCURVE",
"150 63 OFFCURVE",
"134 61 CURVE SMOOTH"
);
}
);
width = 1029;
},
{
anchors = (
{
name = bottom;
position = "{558, 1}";
},
{
name = top;
position = "{557, 684}";
}
);
layerId = "49C16FD3-6177-408B-A733-AEB3898BB77C";
paths = (
{
closed = 1;
nodes = (
"189 56 LINE",
"296 568 LINE",
"307 641 LINE",
"327 568 LINE",
"327 569 LINE",
"531 1 LINE",
"581 1 LINE",
"787 570 LINE",
"786 569 LINE",
"806 640 LINE",
"818 569 LINE",
"932 1 LINE",
"975 1 LINE",
"835 685 LINE",
"788 685 LINE",
"575 107 LINE",
"557 43 LINE",
"539 107 LINE",
"327 685 LINE",
"278 685 LINE",
"148 72 LINE"
);
},
{
closed = 1;
nodes = (
"148 72 LINE",
"141 47 OFFCURVE",
"133 33 OFFCURVE",
"118 28 CURVE",
"92 19 OFFCURVE",
"64 40 OFFCURVE",
"70 69 CURVE",
"29 80 LINE",
"5 -19 OFFCURVE",
"146 -60 OFFCURVE",
"183 37 CURVE",
"185 42 OFFCURVE",
"186 47 OFFCURVE",
"189 56 CURVE",
"231 253 LINE",
"181 227 LINE"
);
}
);
width = 1014;
}
);
leftKerningGroup = Aswash;
rightKerningGroup = A;
userData = {
position = 664;
width = 20;
};
},
{
glyphname = N;
lastChange = "2019-09-24 09:39:11 +0000";
layers = (
{
anchors = (
{
name = bottom;
position = "{422, 0}";
},
{
name = top;
position = "{421, 684}";
}
);
layerId = "873CAA12-270D-4223-A88E-AE8E101FDBE8";
paths = (
{
closed = 1;
nodes = (
"47 2 OFFCURVE",
"74 -13 OFFCURVE",
"106 -13 CURVE SMOOTH",
"154 -13 OFFCURVE",
"200 23 OFFCURVE",
"200 79 CURVE SMOOTH",
"196 584 LINE",
"210 563 LINE",
"681 0 LINE",
"699 0 LINE",
"699 683 LINE",
"640 683 LINE",
"643 129 LINE",
"629 151 LINE",
"289 559 LINE",
"178 684 LINE",
"140 684 LINE",
"140 80 LINE SMOOTH",
"140 62 OFFCURVE",
"125 44 OFFCURVE",
"107 44 CURVE SMOOTH",
"98 44 OFFCURVE",
"83 49 OFFCURVE",
"76 60 CURVE",
"29 28 LINE"
);
}
);
width = 798;
},
{
anchors = (
{
name = bottom;
position = "{410, 0}";
},
{
name = top;
position = "{424, 684}";
}
);
layerId = "0CAF3BED-C4AC-4024-B3E1-4C69D1EF7EC0";
paths = (
{
closed = 1;
nodes = (
"48 10 OFFCURVE",
"82 -12 OFFCURVE",
"120 -12 CURVE SMOOTH",
"171 -12 OFFCURVE",
"222 29 OFFCURVE",
"222 90 CURVE SMOOTH",
"218 539 LINE",
"210 550 LINE",
"671 -1 LINE",
"706 -1 LINE",
"706 685 LINE",
"625 685 LINE",
"628 177 LINE",
"632 162 LINE",
"305 561 LINE",
"194 686 LINE",
"140 686 LINE",
"140 90 LINE SMOOTH",
"140 79 OFFCURVE",
"133 68 OFFCURVE",
"121 66 CURVE SMOOTH",
"110 64 OFFCURVE",
"97 67 OFFCURVE",
"89 83 CURVE",
"30 43 LINE"
);
}
);
width = 805;
},
{
anchors = (
{
name = bottom;
position = "{415, -6}";
},
{
name = bottomleft;
position = "{241, -11}";
},
{
name = center;
position = "{565, 186}";
},
{
name = top;
position = "{414, 692}";
}
);
layerId = "49C16FD3-6177-408B-A733-AEB3898BB77C";
paths = (
{
closed = 1;
nodes = (
"42 -5 OFFCURVE",
"64 -17 OFFCURVE",
"93 -17 CURVE SMOOTH",
"139 -17 OFFCURVE",
"182 13 OFFCURVE",
"182 71 CURVE SMOOTH",
"178 614 LINE",
"205 572 LINE",
"205 573 LINE",
"683 1 LINE",
"691 1 LINE",
"691 684 LINE",
"645 684 LINE",
"648 101 LINE",
"621 144 LINE",
"621 143 LINE",
"274 560 LINE",
"163 685 LINE",
"134 685 LINE",
"134 71 LINE SMOOTH",
"134 44 OFFCURVE",
"115 28 OFFCURVE",
"94 28 CURVE SMOOTH",
"85 28 OFFCURVE",
"71 35 OFFCURVE",
"63 44 CURVE",
"24 16 LINE"
);
}
);
width = 785;
}
);
leftKerningGroup = N;
unicode = 004E;
userData = {
position = 642;
width = 56;
};
},
{
glyphname = N.001;
lastChange = "2019-09-24 12:31:56 +0000";
layers = (
{
anchors = (
{
name = bottom;
position = "{439, 0}";
},
{
name = top;
position = "{438, 684}";
}
);
layerId = "873CAA12-270D-4223-A88E-AE8E101FDBE8";
paths = (
{
closed = 1;
nodes = (
"160 -14 OFFCURVE",
"218 10 OFFCURVE",
"217 75 CURVE SMOOTH",
"213 584 LINE",
"227 563 LINE",
"698 0 LINE",
"716 0 LINE",
"716 683 LINE",
"657 683 LINE",
"660 129 LINE",
"646 151 LINE",
"306 559 LINE",
"195 684 LINE",
"157 684 LINE",
"157 75 LINE SMOOTH",
"156 59 OFFCURVE",
"144 39 OFFCURVE",
"123 39 CURVE SMOOTH",
"104 39 OFFCURVE",
"88 54 OFFCURVE",
"88 76 CURVE",
"32 76 LINE",
"32 26 OFFCURVE",
"74 -14 OFFCURVE",
"120 -14 CURVE SMOOTH"
);
}
);
width = 815;
},
{
anchors = (
{
name = bottom;
position = "{424, 0}";
},
{
name = top;
position = "{438, 684}";
}
);
layerId = "0CAF3BED-C4AC-4024-B3E1-4C69D1EF7EC0";
paths = (
{
closed = 1;
nodes = (
"172 -14 OFFCURVE",
"237 7 OFFCURVE",
"236 84 CURVE SMOOTH",
"232 539 LINE",
"224 550 LINE",
"685 -1 LINE",
"720 -1 LINE",
"720 685 LINE",
"639 685 LINE",
"642 177 LINE",
"646 162 LINE",
"319 561 LINE",
"208 686 LINE",
"154 686 LINE",
"154 84 LINE SMOOTH",
"154 71 OFFCURVE",
"145 60 OFFCURVE",
"133 60 CURVE SMOOTH",
"119 60 OFFCURVE",
"106 71 OFFCURVE",
"104 85 CURVE",
"33 84 LINE",
"33 20 OFFCURVE",
"81 -14 OFFCURVE",
"130 -14 CURVE SMOOTH"
);
}
);
width = 819;
},
{
anchors = (
{
name = bottom;
position = "{434, -6}";
},
{
name = top;
position = "{433, 692}";
}
);
layerId = "49C16FD3-6177-408B-A733-AEB3898BB77C";
paths = (
{
closed = 1;
nodes = (
"148 -8 OFFCURVE",
"201 13 OFFCURVE",
"201 76 CURVE SMOOTH",
"197 614 LINE",
"224 572 LINE",
"224 573 LINE",
"702 1 LINE",
"710 1 LINE",
"710 684 LINE",
"664 684 LINE",
"667 101 LINE",
"640 144 LINE",
"640 143 LINE",
"293 560 LINE",
"182 685 LINE",
"154 685 LINE",
"154 76 LINE SMOOTH",
"153 57 OFFCURVE",
"137 35 OFFCURVE",
"112 35 CURVE SMOOTH",
"94 35 OFFCURVE",
"74 48 OFFCURVE",
"70 70 CURVE",
"27 70 LINE",
"30 25 OFFCURVE",
"67 -8 OFFCURVE",
"109 -8 CURVE SMOOTH"
);
}
);
width = 804;
}
);
leftKerningGroup = N;
userData = {
position = 642;
width = 56;
};
},
{
glyphname = N.ss01;
lastChange = "2019-09-24 12:31:56 +0000";
layers = (
{
anchors = (
{
name = bottom;
position = "{391, 0}";
},
{
name = top;
position = "{391, 684}";
}
);
layerId = "873CAA12-270D-4223-A88E-AE8E101FDBE8";
paths = (
{
closed = 1;
nodes = (
"160 0 LINE",
"160 482 LINE",
"153 561 LINE",
"205 493 LINE",
"577 57 LINE",
"633 -1 LINE",
"670 -1 LINE",
"670 685 LINE",
"609 685 LINE",
"613 149 LINE",
"613 107 LINE",
"579 144 LINE",
"118 694 LINE",
"99 694 LINE",
"99 0 LINE"
);
}
);
width = 769;
},
{
anchors = (
{
name = bottom;
position = "{395, 0}";
},
{
name = top;
position = "{395, 684}";
}
);
layerId = "0CAF3BED-C4AC-4024-B3E1-4C69D1EF7EC0";
paths = (
{
closed = 1;
nodes = (
"182 -1 LINE",
"182 452 LINE",
"177 518 LINE",
"216 466 LINE",
"577 56 LINE",
"635 -1 LINE",
"677 -1 LINE",
"677 687 LINE",
"594 687 LINE",
"598 162 LINE",
"601 140 LINE",
"586 159 LINE",
"135 696 LINE",
"100 696 LINE",
"100 -1 LINE"
);
}
);
width = 776;
},
{
anchors = (
{
name = bottom;
position = "{386, 0}";
},
{
name = top;
position = "{382, 684}";
}
);
layerId = "49C16FD3-6177-408B-A733-AEB3898BB77C";
paths = (
{
closed = 1;
nodes = (
"142 1 LINE",
"142 542 LINE",
"135 594 LINE",
"168 543 LINE",
"587 53 LINE",
"639 3 LINE",
"662 0 LINE",
"662 686 LINE",
"614 686 LINE",
"619 123 LINE",
"624 71 LINE",
"595 108 LINE",
"103 695 LINE",
"94 695 LINE",
"94 1 LINE"
);
}
);
width = 756;
}
);
userData = {
position = 605;
width = 61;
};
},
{
glyphname = N.swsh;
lastChange = "2019-09-24 12:31:56 +0000";
layers = (
{
anchors = (
{
name = bottom;
position = "{439, 0}";
},
{
name = top;
position = "{438, 684}";
}
);
components = (
{
name = top_swash;
transform = "{1, 0, 0, -1, -18, 680}";
}
);
layerId = "873CAA12-270D-4223-A88E-AE8E101FDBE8";
paths = (
{
closed = 1;
nodes = (
"218 125 LINE",
"214 584 LINE",
"227 563 LINE",
"698 0 LINE",
"716 0 LINE",
"716 683 LINE",
"657 683 LINE",
"660 129 LINE",
"646 151 LINE",
"306 559 LINE",
"195 684 LINE",
"156 684 LINE",
"156 125 LINE"
);
}
);
width = 815;
},
{
anchors = (
{
name = bottom;
position = "{426, 0}";
},
{
name = top;
position = "{440, 684}";
}
);
components = (
{
name = top_swash;
transform = "{1, 0, 0, -1, -22, 692}";
}
);
layerId = "0CAF3BED-C4AC-4024-B3E1-4C69D1EF7EC0";
paths = (
{
closed = 1;
nodes = (
"238 119 LINE",
"234 539 LINE",
"226 550 LINE",
"687 -1 LINE",
"722 -1 LINE",
"722 685 LINE",
"641 685 LINE",
"644 177 LINE",
"648 162 LINE",
"321 561 LINE",
"210 686 LINE",
"156 686 LINE",
"156 119 LINE"
);
}
);
width = 821;
},
{
anchors = (
{
name = bottom;
position = "{431, -6}";
},
{
name = top;
position = "{430, 692}";
}
);
components = (
{
name = top_swash;
transform = "{1, 0, 0, -1, 2, 687}";
}
);
layerId = "49C16FD3-6177-408B-A733-AEB3898BB77C";
paths = (
{
closed = 1;
nodes = (
"198 121 LINE",
"194 614 LINE",
"221 572 LINE",
"221 573 LINE",
"699 1 LINE",
"707 1 LINE",
"707 684 LINE",
"661 684 LINE",
"664 101 LINE",
"637 144 LINE",
"637 143 LINE",
"290 560 LINE",
"179 685 LINE",
"151 685 LINE",
"151 121 LINE"
);
}
);
width = 801;
}
);
leftKerningGroup = N;
userData = {
position = 642;
width = 56;
};
},
{
glyphname = Nhookleft;
lastChange = "2019-09-24 06:42:07 +0000";
layers = (
{
anchors = (
{
name = bottom;
position = "{388, 0}";
},
{
name = top;
position = "{387, 684}";
}
);
layerId = "49C16FD3-6177-408B-A733-AEB3898BB77C";
paths = (
{
closed = 1;
nodes = (
"79 -201 OFFCURVE",
"142 -170 OFFCURVE",
"142 -97 CURVE SMOOTH",
"138 614 LINE",
"165 572 LINE",
"165 573 LINE",
"643 1 LINE",
"651 1 LINE",
"651 684 LINE",
"605 684 LINE",
"608 101 LINE",
"581 144 LINE",
"581 143 LINE",
"234 560 LINE",
"123 685 LINE",
"95 685 LINE",
"95 -97 LINE SMOOTH",
"95 -126 OFFCURVE",
"68 -158 OFFCURVE",
"33 -158 CURVE SMOOTH",
"5 -158 OFFCURVE",
"-25 -135 OFFCURVE",
"-29 -103 CURVE",
"-72 -103 LINE",
"-69 -158 OFFCURVE",
"-22 -201 OFFCURVE",
"30 -201 CURVE SMOOTH"
);
}
);
width = 745;
},
{
anchors = (
{
name = bottom;
position = "{386, 0}";
},
{
name = top;
position = "{379, 684}";
}
);
layerId = "873CAA12-270D-4223-A88E-AE8E101FDBE8";
paths = (
{
closed = 1;
nodes = (
"92 -204 OFFCURVE",
"159 -174 OFFCURVE",
"159 -95 CURVE SMOOTH",
"155 584 LINE",
"169 563 LINE",
"640 0 LINE",
"658 0 LINE",
"658 683 LINE",
"599 683 LINE",
"602 129 LINE",
"588 151 LINE",
"248 559 LINE",
"137 684 LINE",
"99 684 LINE",
"99 -95 LINE SMOOTH",
"99 -125 OFFCURVE",
"76 -148 OFFCURVE",
"45 -148 CURVE SMOOTH",
"18 -148 OFFCURVE",
"-10 -136 OFFCURVE",
"-10 -94 CURVE",
"-66 -94 LINE",
"-66 -164 OFFCURVE",
"-14 -204 OFFCURVE",
"42 -204 CURVE SMOOTH"
);
}
);
width = 757;
},
{
anchors = (
{
name = bottom;
position = "{256, 0}";
},
{
name = top;
position = "{890, 496}";
}
);
layerId = "0CAF3BED-C4AC-4024-B3E1-4C69D1EF7EC0";
paths = (
{
closed = 1;
nodes = (
"108 -204 OFFCURVE",
"183 -172 OFFCURVE",
"182 -86 CURVE SMOOTH",
"178 539 LINE",
"170 550 LINE",
"631 -1 LINE",
"666 -1 LINE",
"666 685 LINE",
"585 685 LINE",
"588 177 LINE",
"592 162 LINE",
"265 561 LINE",
"154 686 LINE",
"100 686 LINE",
"100 -86 LINE SMOOTH",
"100 -106 OFFCURVE",
"81 -127 OFFCURVE",
"59 -127 CURVE SMOOTH",
"25 -127 OFFCURVE",
"15 -99 OFFCURVE",
"13 -85 CURVE",
"-61 -86 LINE",
"-61 -150 OFFCURVE",
"-13 -204 OFFCURVE",
"56 -204 CURVE SMOOTH"
);
}
);
width = 765;
}
);
unicode = 019D;
},
{
glyphname = O;
lastChange = "2019-09-24 06:42:06 +0000";
layers = (
{
anchors = (
{
name = bottom;
position = "{409, 0}";
},
{
name = center;
position = "{410, 342}";
},
{
name = horn;
position = "{522, 677}";
},
{
name = ogonek;
position = "{659, 83}";
},
{
name = top;
position = "{405, 684}";
},
{
name = topleft;
position = "{37, 684}";
},
{
name = topright;
position = "{806, 684}";
}
);
layerId = "873CAA12-270D-4223-A88E-AE8E101FDBE8";
paths = (
{
closed = 1;
nodes = (
"608 -17 OFFCURVE",
"758 134 OFFCURVE",
"758 330 CURVE SMOOTH",
"758 349 LINE SMOOTH",
"758 542 OFFCURVE",
"605 700 OFFCURVE",
"406 700 CURVE SMOOTH",
"205 700 OFFCURVE",
"55 540 OFFCURVE",
"55 349 CURVE SMOOTH",
"55 330 LINE SMOOTH",
"55 136 OFFCURVE",
"211 -17 OFFCURVE",
"410 -17 CURVE SMOOTH"
);
},
{
closed = 1;
nodes = (
"247 38 OFFCURVE",
"118 162 OFFCURVE",
"118 330 CURVE SMOOTH",
"118 349 LINE SMOOTH",
"118 509 OFFCURVE",
"240 645 OFFCURVE",
"405 645 CURVE SMOOTH",
"563 645 OFFCURVE",
"695 519 OFFCURVE",
"695 349 CURVE SMOOTH",
"695 330 LINE SMOOTH",
"695 166 OFFCURVE",
"570 38 OFFCURVE",
"407 38 CURVE SMOOTH"
);
}
);
width = 814;
},
{
anchors = (
{
name = bottom;
position = "{410, -27}";
},
{
name = center;
position = "{405, 339}";
},
{
name = horn;
position = "{509, 689}";
},
{
name = ogonek;
position = "{648, 68}";
},
{
name = top;
position = "{406, 684}";
},
{
name = topleft;
position = "{34, 684}";
},
{
name = topright;
position = "{809, 684}";
}
);
layerId = "0CAF3BED-C4AC-4024-B3E1-4C69D1EF7EC0";
paths = (
{
closed = 1;
nodes = (
"607 -25 OFFCURVE",
"758 136 OFFCURVE",
"758 331 CURVE SMOOTH",
"758 350 LINE SMOOTH",
"758 535 OFFCURVE",
"604 702 OFFCURVE",
"406 702 CURVE SMOOTH",
"206 702 OFFCURVE",
"55 533 OFFCURVE",
"55 350 CURVE SMOOTH",
"55 331 LINE SMOOTH",
"55 138 OFFCURVE",
"202 -19 OFFCURVE",
"410 -22 CURVE SMOOTH"
);
},
{
closed = 1;
nodes = (
"259 49 OFFCURVE",
"140 175 OFFCURVE",
"140 331 CURVE SMOOTH",
"140 350 LINE SMOOTH",
"140 492 OFFCURVE",
"252 632 OFFCURVE",
"405 632 CURVE SMOOTH",
"552 632 OFFCURVE",
"674 502 OFFCURVE",
"674 350 CURVE SMOOTH",
"674 331 LINE SMOOTH",
"674 179 OFFCURVE",
"558 49 OFFCURVE",
"407 49 CURVE SMOOTH"
);
}
);
width = 813;
},
{
anchors = (
{
name = bottom;
position = "{404, 0}";
},
{
name = center;
position = "{405, 342}";
},
{
name = horn;
position = "{513, 689}";
},
{
name = ogonek;
position = "{662, 79}";
},
{
name = top;
position = "{400, 692}";
},
{
name = topleft;
position = "{30, 684}";
},
{
name = topright;
position = "{803, 684}";
}
);
layerId = "49C16FD3-6177-408B-A733-AEB3898BB77C";
paths = (
{
closed = 1;
nodes = (
"604 -15 OFFCURVE",
"753 134 OFFCURVE",
"753 331 CURVE SMOOTH",
"753 350 LINE SMOOTH",
"753 544 OFFCURVE",
"601 702 OFFCURVE",
"401 702 CURVE SMOOTH",
"199 702 OFFCURVE",
"51 542 OFFCURVE",
"51 350 CURVE SMOOTH",
"51 331 LINE SMOOTH",
"51 136 OFFCURVE",
"205 -15 OFFCURVE",
"405 -15 CURVE SMOOTH"
);
},
{
closed = 1;
nodes = (
"234 26 OFFCURVE",
"98 156 OFFCURVE",
"98 331 CURVE SMOOTH",
"98 350 LINE SMOOTH",
"98 516 OFFCURVE",
"226 660 OFFCURVE",
"400 660 CURVE SMOOTH",
"566 660 OFFCURVE",
"706 526 OFFCURVE",
"706 350 CURVE SMOOTH",
"706 331 LINE SMOOTH",
"706 160 OFFCURVE",
"573 26 OFFCURVE",
"402 26 CURVE SMOOTH"
);
}
);
width = 804;
}
);
leftKerningGroup = O;
rightKerningGroup = O;
unicode = 004F;
userData = {
position = 683;
width = 56;
};
},
{
glyphname = P;
lastChange = "2019-09-25 08:02:25 +0000";
layers = (
{
anchors = (
{
name = bottom;
position = "{303, 0}";
},
{
name = top;
position = "{303, 684}";
}
);
layerId = "873CAA12-270D-4223-A88E-AE8E101FDBE8";
paths = (
{
closed = 1;
nodes = (
"220 -1 LINE",
"220 628 LINE",
"352 628 LINE SMOOTH",
"439 625 OFFCURVE",
"499 579 OFFCURVE",
"499 471 CURVE SMOOTH",
"499 355 OFFCURVE",
"431 314 OFFCURVE",
"332 314 CURVE SMOOTH",
"317 314 OFFCURVE",
"292 315 OFFCURVE",
"261 317 CURVE",
"261 262 LINE",
"290 259 OFFCURVE",
"317 257 OFFCURVE",
"337 257 CURVE SMOOTH",
"454 257 OFFCURVE",
"558 323 OFFCURVE",
"558 472 CURVE SMOOTH",
"558 593 OFFCURVE",
"490 684 OFFCURVE",
"366 684 CURVE SMOOTH",
"136 684 LINE SMOOTH",
"106 684 OFFCURVE",
"82 671 OFFCURVE",
"63 652 CURVE SMOOTH",
"44 633 OFFCURVE",
"33 608 OFFCURVE",
"33 579 CURVE",
"89 579 LINE",
"89 594 OFFCURVE",
"95 605 OFFCURVE",
"104 614 CURVE SMOOTH",
"115 625 OFFCURVE",
"121 628 OFFCURVE",
"159 628 CURVE",
"159 -1 LINE"
);
}
);
width = 606;
},
{
anchors = (
{
name = bottom;
position = "{307, 0}";
},
{
name = top;
position = "{307, 684}";
}
);
layerId = "0CAF3BED-C4AC-4024-B3E1-4C69D1EF7EC0";
paths = (
{
closed = 1;
nodes = (
"240 -1 LINE",
"240 609 LINE",
"356 609 LINE SMOOTH",
"434 606 OFFCURVE",
"487 565 OFFCURVE",
"487 468 CURVE SMOOTH",
"487 364 OFFCURVE",
"427 327 OFFCURVE",
"337 327 CURVE SMOOTH",
"320 327 OFFCURVE",
"300 328 OFFCURVE",
"264 334 CURVE",
"264 258 LINE",
"296 250 OFFCURVE",
"319 249 OFFCURVE",
"341 249 CURVE SMOOTH",
"458 249 OFFCURVE",
"567 318 OFFCURVE",
"567 469 CURVE SMOOTH",
"567 590 OFFCURVE",
"496 686 OFFCURVE",
"370 686 CURVE SMOOTH",
"146 686 LINE SMOOTH",
"114 686 OFFCURVE",
"87 671 OFFCURVE",
"67 652 CURVE SMOOTH",
"48 632 OFFCURVE",
"35 604 OFFCURVE",
"35 574 CURVE SMOOTH",
"35 569 OFFCURVE",
"36 565 OFFCURVE",
"36 561 CURVE",
"113 561 LINE",
"111 581 OFFCURVE",
"114 589 OFFCURVE",
"124 598 CURVE SMOOTH",
"132 607 OFFCURVE",
"134 608 OFFCURVE",
"157 609 CURVE",
"157 -1 LINE"
);
}
);
width = 615;
},
{
anchors = (
{
name = bottom;
position = "{298, 0}";
},
{
name = top;
position = "{298, 684}";
}
);
layerId = "49C16FD3-6177-408B-A733-AEB3898BB77C";
paths = (
{
closed = 1;
nodes = (
"204 0 LINE",
"204 642 LINE",
"346 642 LINE SMOOTH",
"437 639 OFFCURVE",
"503 588 OFFCURVE",
"503 474 CURVE SMOOTH",
"503 352 OFFCURVE",
"428 307 OFFCURVE",
"325 307 CURVE SMOOTH",
"311 307 OFFCURVE",
"288 308 OFFCURVE",
"260 310 CURVE",
"260 268 LINE",
"287 265 OFFCURVE",
"312 263 OFFCURVE",
"330 263 CURVE SMOOTH",
"448 263 OFFCURVE",
"549 327 OFFCURVE",
"549 475 CURVE SMOOTH",
"549 596 OFFCURVE",
"483 685 OFFCURVE",
"360 685 CURVE SMOOTH",
"125 685 LINE SMOOTH",
"97 685 OFFCURVE",
"75 673 OFFCURVE",
"56 654 CURVE SMOOTH",
"39 637 OFFCURVE",
"29 617 OFFCURVE",
"28 592 CURVE",
"71 592 LINE",
"72 606 OFFCURVE",
"79 617 OFFCURVE",
"88 625 CURVE SMOOTH",
"100 638 OFFCURVE",
"109 642 OFFCURVE",
"156 642 CURVE",
"156 0 LINE"
);
}
);
width = 592;
}
);
leftKerningGroup = E;
rightKerningGroup = P;
unicode = 0050;
userData = {
position = 480;
width = 59;
};
},
{
glyphname = P.ss01;
lastChange = "2019-09-25 08:02:29 +0000";
layers = (
{
anchors = (
{
name = bottom;
position = "{274, 0}";
},
{
name = top;
position = "{274, 684}";
}
);
layerId = "873CAA12-270D-4223-A88E-AE8E101FDBE8";
paths = (
{
closed = 1;
nodes = (
"417 254 OFFCURVE",
"499 337 OFFCURVE",
"499 470 CURVE SMOOTH",
"499 597 OFFCURVE",
"425 684 OFFCURVE",
"307 684 CURVE SMOOTH",
"99 684 LINE",
"99 628 LINE",
"293 628 LINE SMOOTH",
"381 628 OFFCURVE",
"440 572 OFFCURVE",
"440 473 CURVE SMOOTH",
"440 369 OFFCURVE",
"374 312 OFFCURVE",
"250 312 CURVE SMOOTH",
"221 312 OFFCURVE",
"188 314 OFFCURVE",
"152 315 CURVE",
"152 256 LINE",
"157 256 OFFCURVE",
"210 254 OFFCURVE",
"238 254 CURVE SMOOTH"
);
},
{
closed = 1;
nodes = (
"160 -1 LINE",
"160 681 LINE",
"99 681 LINE",
"99 -1 LINE"
);
}
);
width = 547;
},
{
anchors = (
{
name = bottom;
position = "{280, 0}";
},
{
name = top;
position = "{280, 684}";
}
);
layerId = "0CAF3BED-C4AC-4024-B3E1-4C69D1EF7EC0";
paths = (
{
closed = 1;
nodes = (
"424 246 OFFCURVE",
"510 333 OFFCURVE",
"510 467 CURVE SMOOTH",
"510 594 OFFCURVE",
"432 686 OFFCURVE",
"312 686 CURVE SMOOTH",
"99 686 LINE",
"99 609 LINE",
"299 609 LINE SMOOTH",
"377 609 OFFCURVE",
"430 559 OFFCURVE",
"430 470 CURVE SMOOTH",
"430 376 OFFCURVE",
"371 325 OFFCURVE",
"257 325 CURVE SMOOTH",
"226 325 OFFCURVE",
"190 328 OFFCURVE",
"150 329 CURVE",
"150 248 LINE",
"166 248 OFFCURVE",
"222 246 OFFCURVE",
"245 246 CURVE SMOOTH"
);
},
{
closed = 1;
nodes = (
"181 -1 LINE",
"181 683 LINE",
"99 683 LINE",
"99 -1 LINE"
);
}
);
width = 558;
},
{
anchors = (
{
name = bottom;
position = "{261, 0}";
},
{
name = top;
position = "{261, 684}";
}
);
layerId = "49C16FD3-6177-408B-A733-AEB3898BB77C";
paths = (
{
closed = 1;
nodes = (
"408 260 OFFCURVE",
"488 341 OFFCURVE",
"488 473 CURVE SMOOTH",
"488 600 OFFCURVE",
"416 685 OFFCURVE",
"299 685 CURVE SMOOTH",
"94 685 LINE",
"94 642 LINE",
"285 642 LINE SMOOTH",
"378 642 OFFCURVE",
"442 580 OFFCURVE",
"442 476 CURVE SMOOTH",
"442 367 OFFCURVE",
"370 305 OFFCURVE",
"241 305 CURVE SMOOTH",
"213 305 OFFCURVE",
"162 304 OFFCURVE",
"128 305 CURVE",
"128 262 LINE",
"145 262 OFFCURVE",
"206 260 OFFCURVE",
"229 260 CURVE SMOOTH"
);
},
{
closed = 1;
nodes = (
"142 0 LINE",
"142 681 LINE",
"94 681 LINE",
"94 0 LINE"
);
}
);
width = 531;
}
);
leftKerningGroup = E;
rightKerningGroup = P;
userData = {
position = 480;
width = 59;
};
},
{
glyphname = P.swsh;
lastChange = "2019-09-25 08:02:36 +0000";
layers = (
{
anchors = (
{
name = bottom;
position = "{305, 0}";
},
{
name = top;
position = "{305, 684}";
}
);
layerId = "873CAA12-270D-4223-A88E-AE8E101FDBE8";
paths = (
{
closed = 1;
nodes = (
"465 255 OFFCURVE",
"563 332 OFFCURVE",
"563 474 CURVE SMOOTH",
"563 592 OFFCURVE",
"495 684 OFFCURVE",
"371 684 CURVE SMOOTH",
"141 684 LINE SMOOTH",
"85 684 OFFCURVE",
"38 635 OFFCURVE",
"38 578 CURVE SMOOTH",
"38 543 OFFCURVE",
"55 509 OFFCURVE",
"88 489 CURVE",
"117 537 LINE",
"103 546 OFFCURVE",
"94 560 OFFCURVE",
"94 578 CURVE SMOOTH",
"94 606 OFFCURVE",
"116 628 OFFCURVE",
"143 628 CURVE SMOOTH",
"357 628 LINE SMOOTH",
"448 626 OFFCURVE",
"504 570 OFFCURVE",
"504 474 CURVE SMOOTH",
"504 373 OFFCURVE",
"442 310 OFFCURVE",
"325 310 CURVE SMOOTH",
"304 310 OFFCURVE",
"286 312 OFFCURVE",
"266 315 CURVE",
"266 260 LINE",
"281 257 OFFCURVE",
"298 255 OFFCURVE",
"321 255 CURVE SMOOTH"
);
},
{
closed = 1;
nodes = (
"225 -1 LINE",
"225 571 LINE",
"164 571 LINE",
"164 -1 LINE"
);
}
);
width = 611;
},
{
anchors = (
{
name = bottom;
position = "{314, 0}";
},
{
name = top;
position = "{314, 684}";
}
);
layerId = "0CAF3BED-C4AC-4024-B3E1-4C69D1EF7EC0";
paths = (
{
closed = 1;
nodes = (
"478 247 OFFCURVE",
"580 328 OFFCURVE",
"580 471 CURVE SMOOTH",
"580 589 OFFCURVE",
"509 686 OFFCURVE",
"383 686 CURVE SMOOTH",
"149 686 LINE SMOOTH",
"90 686 OFFCURVE",
"38 632 OFFCURVE",
"38 572 CURVE SMOOTH",
"38 532 OFFCURVE",
"61 489 OFFCURVE",
"102 470 CURVE",
"142 536 LINE",
"124 545 OFFCURVE",
"116 554 OFFCURVE",
"116 572 CURVE SMOOTH",
"116 592 OFFCURVE",
"132 609 OFFCURVE",
"151 609 CURVE SMOOTH",
"369 609 LINE SMOOTH",
"450 609 OFFCURVE",
"500 557 OFFCURVE",
"500 471 CURVE SMOOTH",
"500 380 OFFCURVE",
"445 323 OFFCURVE",
"338 323 CURVE SMOOTH",
"314 323 OFFCURVE",
"294 326 OFFCURVE",
"269 330 CURVE",
"269 254 LINE",
"286 250 OFFCURVE",
"306 247 OFFCURVE",
"334 247 CURVE SMOOTH"
);
},
{
closed = 1;
nodes = (
"253 -1 LINE",
"253 569 LINE",
"170 569 LINE",
"170 -1 LINE"
);
}
);
width = 628;
},
{
anchors = (
{
name = bottom;
position = "{300, 0}";
},
{
name = top;
position = "{300, 684}";
}
);
layerId = "49C16FD3-6177-408B-A733-AEB3898BB77C";
paths = (
{
closed = 1;
nodes = (
"459 261 OFFCURVE",
"555 336 OFFCURVE",
"555 477 CURVE SMOOTH",
"555 595 OFFCURVE",
"489 685 OFFCURVE",
"366 685 CURVE SMOOTH",
"131 685 LINE SMOOTH",
"77 685 OFFCURVE",
"33 639 OFFCURVE",
"33 584 CURVE SMOOTH",
"33 552 OFFCURVE",
"47 522 OFFCURVE",
"75 503 CURVE",
"97 540 LINE",
"85 550 OFFCURVE",
"76 566 OFFCURVE",
"76 584 CURVE SMOOTH",
"76 615 OFFCURVE",
"103 642 OFFCURVE",
"133 642 CURVE SMOOTH",
"352 642 LINE SMOOTH",
"448 640 OFFCURVE",
"509 578 OFFCURVE",
"509 477 CURVE SMOOTH",
"509 372 OFFCURVE",
"441 303 OFFCURVE",
"319 303 CURVE SMOOTH",
"300 303 OFFCURVE",
"283 305 OFFCURVE",
"266 307 CURVE",
"266 265 LINE",
"280 263 OFFCURVE",
"295 261 OFFCURVE",
"315 261 CURVE SMOOTH"
);
},
{
closed = 1;
nodes = (
"210 0 LINE",
"210 569 LINE",
"162 569 LINE",
"162 0 LINE"
);
}
);
width = 598;
}
);
leftKerningGroup = Swash;
rightKerningGroup = P;
userData = {
position = 480;
width = 59;
};
},
{
glyphname = Thorn;
lastChange = "2019-09-24 06:42:02 +0000";
layers = (
{
anchors = (
{
name = bottom;
position = "{279, 0}";
},
{
name = top;
position = "{279, 684}";
}
);
layerId = "873CAA12-270D-4223-A88E-AE8E101FDBE8";
paths = (
{
closed = 1;
nodes = (
"160 0 LINE",
"160 509 LINE",
"297 509 LINE SMOOTH",
"390 509 OFFCURVE",
"449 456 OFFCURVE",
"449 356 CURVE SMOOTH",
"449 241 OFFCURVE",
"371 191 OFFCURVE",
"270 191 CURVE SMOOTH",
"250 191 OFFCURVE",
"231 193 OFFCURVE",
"211 196 CURVE",
"211 141 LINE",
"224 139 OFFCURVE",
"243 137 OFFCURVE",
"267 137 CURVE SMOOTH",
"402 137 OFFCURVE",
"508 201 OFFCURVE",
"508 352 CURVE SMOOTH",
"508 477 OFFCURVE",
"435 556 OFFCURVE",
"316 563 CURVE",
"160 563 LINE",
"160 684 LINE",
"99 684 LINE",
"99 0 LINE"
);
}
);
width = 556;
},
{
anchors = (
{
name = bottom;
position = "{284, 0}";
},
{
name = top;
position = "{284, 684}";
}
);
layerId = "0CAF3BED-C4AC-4024-B3E1-4C69D1EF7EC0";
paths = (
{
closed = 1;
nodes = (
"181 -1 LINE",
"181 493 LINE",
"302 493 LINE SMOOTH",
"386 493 OFFCURVE",
"438 446 OFFCURVE",
"438 356 CURVE SMOOTH",
"438 253 OFFCURVE",
"369 208 OFFCURVE",
"276 208 CURVE SMOOTH",
"253 208 OFFCURVE",
"232 211 OFFCURVE",
"207 215 CURVE",
"207 138 LINE",
"219 136 OFFCURVE",
"242 132 OFFCURVE",
"273 132 CURVE SMOOTH",
"408 132 OFFCURVE",
"519 200 OFFCURVE",
"519 353 CURVE SMOOTH",
"519 478 OFFCURVE",
"442 562 OFFCURVE",
"322 569 CURVE",
"181 569 LINE",
"181 686 LINE",
"99 686 LINE",
"99 -1 LINE"
);
}
);
width = 567;
},
{
anchors = (
{
name = bottom;
position = "{265, 0}";
},
{
name = top;
position = "{265, 684}";
}
);
layerId = "49C16FD3-6177-408B-A733-AEB3898BB77C";
paths = (
{
closed = 1;
nodes = (
"142 1 LINE",
"142 520 LINE",
"289 520 LINE SMOOTH",
"387 520 OFFCURVE",
"451 462 OFFCURVE",
"451 357 CURVE SMOOTH",
"451 236 OFFCURVE",
"367 182 OFFCURVE",
"261 182 CURVE SMOOTH",
"243 182 OFFCURVE",
"226 183 OFFCURVE",
"208 186 CURVE",
"208 144 LINE",
"221 142 OFFCURVE",
"238 141 OFFCURVE",
"258 141 CURVE SMOOTH",
"394 141 OFFCURVE",
"497 203 OFFCURVE",
"497 353 CURVE SMOOTH",
"497 478 OFFCURVE",
"426 554 OFFCURVE",
"308 561 CURVE",
"142 561 LINE",
"142 685 LINE",
"94 685 LINE",
"94 1 LINE"
);
}
);
width = 540;
}
);
rightKerningGroup = O;
unicode = 00DE;
userData = {
position = 403;
width = 59;
};
},
{
glyphname = Q;
lastChange = "2019-09-24 10:25:23 +0000";
layers = (
{
anchors = (
{
name = bottom;
position = "{394, 0}";
},
{
name = top;
position = "{394, 684}";
}
);
layerId = "873CAA12-270D-4223-A88E-AE8E101FDBE8";
paths = (
{
closed = 1;
nodes = (
"276 -138 LINE",
"375 -171 LINE SMOOTH",
"421 -186 OFFCURVE",
"457 -193 OFFCURVE",
"505 -193 CURVE SMOOTH",
"541 -193 OFFCURVE",
"566 -189 OFFCURVE",
"620 -150 CURVE",
"595 -106 LINE",
"553 -135 OFFCURVE",
"529 -141 OFFCURVE",
"498 -141 CURVE SMOOTH",
"465 -141 OFFCURVE",
"425 -134 OFFCURVE",
"387 -121 CURVE SMOOTH",
"307 -94 LINE",
"366 -9 LINE",
"394 -10 LINE SMOOTH",
"593 -10 OFFCURVE",
"731 138 OFFCURVE",
"731 341 CURVE SMOOTH",
"731 542 OFFCURVE",
"596 694 OFFCURVE",
"393 694 CURVE SMOOTH",
"193 694 OFFCURVE",
"56 545 OFFCURVE",
"56 342 CURVE SMOOTH",
"56 179 OFFCURVE",
"144 39 OFFCURVE",
"309 0 CURVE",
"191 -166 LINE",
"234 -199 LINE"
);
},
{
closed = 1;
nodes = (
"221 45 OFFCURVE",
"117 174 OFFCURVE",
"117 343 CURVE SMOOTH",
"117 514 OFFCURVE",
"224 639 OFFCURVE",
"394 639 CURVE SMOOTH",
"564 639 OFFCURVE",
"671 513 OFFCURVE",
"671 343 CURVE SMOOTH",
"671 173 OFFCURVE",
"565 45 OFFCURVE",
"393 45 CURVE SMOOTH"
);
}
);
width = 786;
},
{
anchors = (
{
name = bottom;
position = "{395, 0}";
},
{
name = top;
position = "{395, 684}";
}
);
layerId = "0CAF3BED-C4AC-4024-B3E1-4C69D1EF7EC0";
paths = (
{
closed = 1;
nodes = (
"286 -137 LINE",
"374 -166 LINE SMOOTH",
"419 -181 OFFCURVE",
"456 -188 OFFCURVE",
"503 -188 CURVE SMOOTH",
"541 -188 OFFCURVE",
"570 -183 OFFCURVE",
"630 -138 CURVE",
"594 -75 LINE",
"548 -108 OFFCURVE",
"528 -114 OFFCURVE",
"497 -114 CURVE SMOOTH",
"466 -114 OFFCURVE",
"429 -108 OFFCURVE",
"393 -95 CURVE SMOOTH",
"330 -74 LINE",
"374 -9 LINE",
"395 -10 LINE SMOOTH",
"594 -10 OFFCURVE",
"734 140 OFFCURVE",
"734 342 CURVE SMOOTH",
"734 541 OFFCURVE",
"597 696 OFFCURVE",
"395 696 CURVE SMOOTH",
"196 696 OFFCURVE",
"56 544 OFFCURVE",
"56 343 CURVE SMOOTH",
"56 187 OFFCURVE",
"140 48 OFFCURVE",
"294 4 CURVE",
"183 -152 LINE",
"243 -199 LINE"
);
},
{
closed = 1;
nodes = (
"235 66 OFFCURVE",
"139 186 OFFCURVE",
"139 344 CURVE SMOOTH",
"139 503 OFFCURVE",
"238 619 OFFCURVE",
"396 619 CURVE SMOOTH",
"553 619 OFFCURVE",
"653 502 OFFCURVE",
"653 344 CURVE SMOOTH",
"653 185 OFFCURVE",
"554 66 OFFCURVE",
"395 66 CURVE SMOOTH"
);
}
);
width = 789;
},
{
anchors = (
{
name = bottom;
position = "{389, 0}";
},
{
name = top;
position = "{389, 684}";
}
);
layerId = "49C16FD3-6177-408B-A733-AEB3898BB77C";
paths = (
{
closed = 1;
nodes = (
"265 -138 LINE",
"371 -174 LINE SMOOTH",
"418 -189 OFFCURVE",
"454 -196 OFFCURVE",
"502 -196 CURVE SMOOTH",
"537 -196 OFFCURVE",
"560 -192 OFFCURVE",
"610 -157 CURVE",
"591 -124 LINE",
"551 -151 OFFCURVE",
"526 -157 OFFCURVE",
"495 -157 CURVE SMOOTH",
"460 -157 OFFCURVE",
"418 -150 OFFCURVE",
"379 -136 CURVE SMOOTH",
"289 -106 LINE",
"356 -8 LINE",
"389 -9 LINE SMOOTH",
"588 -9 OFFCURVE",
"725 138 OFFCURVE",
"725 342 CURVE SMOOTH",
"725 544 OFFCURVE",
"591 695 OFFCURVE",
"388 695 CURVE SMOOTH",
"187 695 OFFCURVE",
"51 547 OFFCURVE",
"51 343 CURVE SMOOTH",
"51 175 OFFCURVE",
"142 34 OFFCURVE",
"314 -1 CURVE",
"191 -174 LINE",
"224 -199 LINE"
);
},
{
closed = 1;
nodes = (
"209 33 OFFCURVE",
"99 169 OFFCURVE",
"99 344 CURVE SMOOTH",
"99 521 OFFCURVE",
"212 653 OFFCURVE",
"389 653 CURVE SMOOTH",
"565 653 OFFCURVE",
"678 520 OFFCURVE",
"678 344 CURVE SMOOTH",
"678 168 OFFCURVE",
"566 33 OFFCURVE",
"388 33 CURVE SMOOTH"
);
}
);
width = 776;
}
);
leftKerningGroup = O;
rightKerningGroup = O;
unicode = 0051;
userData = {
position = 652;
width = 60;
};
},
{
glyphname = R;
lastChange = "2019-09-24 06:42:00 +0000";
layers = (
{
anchors = (
{
name = bottom;
position = "{341, 0}";
},
{
name = top;
position = "{338, 684}";
}
);
layerId = "873CAA12-270D-4223-A88E-AE8E101FDBE8";
paths = (
{
closed = 1;
nodes = (
"653 -10 OFFCURVE",
"695 26 OFFCURVE",
"695 79 CURVE",
"638 81 LINE",
"638 62 OFFCURVE",
"621 45 OFFCURVE",
"603 45 CURVE SMOOTH",
"593 45 OFFCURVE",
"585 50 OFFCURVE",
"577 61 CURVE SMOOTH",
"426 257 LINE SMOOTH",
"417 268 OFFCURVE",
"398 281 OFFCURVE",
"388 285 CURVE SMOOTH",
"375 289 LINE",
"400 290 LINE SMOOTH",
"488 296 OFFCURVE",
"560 368 OFFCURVE",
"560 477 CURVE SMOOTH",
"560 561 OFFCURVE",
"518 635 OFFCURVE",
"452 667 CURVE SMOOTH",
"431 677 OFFCURVE",
"406 684 OFFCURVE",
"372 684 CURVE SMOOTH",
"136 684 LINE SMOOTH",
"108 684 OFFCURVE",
"84 674 OFFCURVE",
"63 652 CURVE SMOOTH",
"43 631 OFFCURVE",
"33 608 OFFCURVE",
"33 579 CURVE",
"89 579 LINE",
"89 607 OFFCURVE",
"111 628 OFFCURVE",
"138 628 CURVE SMOOTH",
"157 628 LINE",
"157 0 LINE",
"218 0 LINE",
"218 628 LINE",
"368 628 LINE SMOOTH",
"447 628 OFFCURVE",
"500 564 OFFCURVE",
"500 477 CURVE SMOOTH",
"500 391 OFFCURVE",
"448 332 OFFCURVE",
"357 332 CURVE SMOOTH",
"270 332 LINE",
"270 276 LINE",
"338 270 OFFCURVE",
"369 241 OFFCURVE",
"404 193 CURVE SMOOTH",
"530 29 LINE SMOOTH",
"550 3 OFFCURVE",
"575 -10 OFFCURVE",
"604 -10 CURVE SMOOTH"
);
}
);
width = 728;
},
{
anchors = (
{
name = bottom;
position = "{345, 11}";
},
{
name = top;
position = "{342, 675}";
}
);
layerId = "0CAF3BED-C4AC-4024-B3E1-4C69D1EF7EC0";
paths = (
{
closed = 1;
nodes = (
"656 -10 OFFCURVE",
"707 37 OFFCURVE",
"700 99 CURVE",
"622 102 LINE",
"622 90 LINE SMOOTH",
"622 78 OFFCURVE",
"614 66 OFFCURVE",
"603 66 CURVE SMOOTH",
"597 66 OFFCURVE",
"590 68 OFFCURVE",
"584 77 CURVE SMOOTH",
"437 267 LINE SMOOTH",
"433 272 OFFCURVE",
"427 278 OFFCURVE",
"421 283 CURVE",
"468 283 OFFCURVE",
"569 348 OFFCURVE",
"569 474 CURVE SMOOTH",
"569 558 OFFCURVE",
"525 636 OFFCURVE",
"458 669 CURVE SMOOTH",
"437 679 OFFCURVE",
"410 686 OFFCURVE",
"375 686 CURVE SMOOTH",
"146 686 LINE SMOOTH",
"117 686 OFFCURVE",
"89 675 OFFCURVE",
"67 652 CURVE SMOOTH",
"44 627 OFFCURVE",
"32 597 OFFCURVE",
"35 561 CURVE",
"114 561 LINE",
"113 565 OFFCURVE",
"112 569 OFFCURVE",
"112 573 CURVE SMOOTH",
"112 593 OFFCURVE",
"129 609 OFFCURVE",
"148 609 CURVE SMOOTH",
"155 609 LINE",
"155 -1 LINE",
"238 -1 LINE",
"238 609 LINE",
"372 609 LINE SMOOTH",
"441 609 OFFCURVE",
"488 552 OFFCURVE",
"488 474 CURVE SMOOTH",
"488 397 OFFCURVE",
"442 345 OFFCURVE",
"361 345 CURVE SMOOTH",
"275 345 LINE",
"275 268 LINE",
"345 264 OFFCURVE",
"362 240 OFFCURVE",
"397 191 CURVE SMOOTH",
"519 32 LINE SMOOTH",
"540 5 OFFCURVE",
"569 -10 OFFCURVE",
"600 -10 CURVE SMOOTH"
);
}
);
width = 735;
},
{
anchors = (
{
name = bottom;
position = "{334, -6}";
},
{
name = top;
position = "{331, 692}";
}
);
layerId = "49C16FD3-6177-408B-A733-AEB3898BB77C";
paths = (
{
closed = 1;
nodes = (
"648 -9 OFFCURVE",
"685 21 OFFCURVE",
"688 68 CURVE",
"644 69 LINE",
"640 50 OFFCURVE",
"621 33 OFFCURVE",
"602 33 CURVE SMOOTH",
"589 33 OFFCURVE",
"578 40 OFFCURVE",
"569 52 CURVE SMOOTH",
"415 251 LINE SMOOTH",
"407 262 OFFCURVE",
"389 274 OFFCURVE",
"380 277 CURVE SMOOTH",
"331 294 LINE",
"394 297 LINE SMOOTH",
"481 303 OFFCURVE",
"551 372 OFFCURVE",
"551 481 CURVE SMOOTH",
"551 564 OFFCURVE",
"510 636 OFFCURVE",
"445 668 CURVE SMOOTH",
"424 678 OFFCURVE",
"400 685 OFFCURVE",
"366 685 CURVE SMOOTH",
"125 685 LINE SMOOTH",
"98 685 OFFCURVE",
"76 675 OFFCURVE",
"56 654 CURVE SMOOTH",
"38 635 OFFCURVE",
"29 616 OFFCURVE",
"28 592 CURVE",
"71 592 LINE",
"74 620 OFFCURVE",
"99 642 OFFCURVE",
"127 642 CURVE SMOOTH",
"154 642 LINE",
"154 1 LINE",
"202 1 LINE",
"202 642 LINE",
"362 642 LINE SMOOTH",
"446 642 OFFCURVE",
"504 572 OFFCURVE",
"504 481 CURVE SMOOTH",
"504 390 OFFCURVE",
"447 325 OFFCURVE",
"351 325 CURVE SMOOTH",
"269 325 LINE",
"269 282 LINE",
"337 274 OFFCURVE",
"369 243 OFFCURVE",
"404 195 CURVE SMOOTH",
"533 28 LINE SMOOTH",
"552 3 OFFCURVE",
"575 -9 OFFCURVE",
"603 -9 CURVE SMOOTH"
);
}
);
width = 715;
}
);
leftKerningGroup = E;
rightKerningGroup = K;
unicode = 0052;
userData = {
position = 619;
width = 57;
};
},
{
glyphname = R.ss01;
lastChange = "2019-09-25 08:02:49 +0000";
layers = (
{
anchors = (
{
name = bottom;
position = "{321, 0}";
},
{
name = top;
position = "{314, 684}";
}
);
layerId = "873CAA12-270D-4223-A88E-AE8E101FDBE8";
paths = (
{
closed = 1;
nodes = (
"564 -10 OFFCURVE",
"582 -6 OFFCURVE",
"598 6 CURVE",
"566 53 LINE",
"561 49 OFFCURVE",
"553 47 OFFCURVE",
"546 47 CURVE SMOOTH",
"536 47 OFFCURVE",
"526 51 OFFCURVE",
"519 61 CURVE SMOOTH",
"368 257 LINE SMOOTH",
"361 266 OFFCURVE",
"347 279 OFFCURVE",
"330 285 CURVE SMOOTH",
"317 289 LINE",
"342 290 LINE SMOOTH",
"447 299 OFFCURVE",
"502 381 OFFCURVE",
"502 478 CURVE SMOOTH",
"502 586 OFFCURVE",
"434 684 OFFCURVE",
"314 684 CURVE SMOOTH",
"99 684 LINE",
"99 628 LINE",
"310 628 LINE SMOOTH",
"392 628 OFFCURVE",
"442 560 OFFCURVE",
"442 477 CURVE SMOOTH",
"442 394 OFFCURVE",
"392 332 OFFCURVE",
"299 332 CURVE SMOOTH",
"212 332 LINE",
"212 276 LINE",
"279 271 OFFCURVE",
"310 240 OFFCURVE",
"346 193 CURVE SMOOTH",
"472 29 LINE SMOOTH",
"492 3 OFFCURVE",
"517 -10 OFFCURVE",
"547 -10 CURVE SMOOTH"
);
},
{
closed = 1;
nodes = (
"160 0 LINE",
"160 672 LINE",
"99 672 LINE",
"99 0 LINE"
);
}
);
width = 627;
},
{
anchors = (
{
name = bottom;
position = "{326, 0}";
},
{
name = top;
position = "{319, 686}";
}
);
layerId = "0CAF3BED-C4AC-4024-B3E1-4C69D1EF7EC0";
paths = (
{
closed = 1;
nodes = (
"566 -10 OFFCURVE",
"591 -4 OFFCURVE",
"610 15 CURVE",
"568 77 LINE",
"565 74 OFFCURVE",
"549 68 OFFCURVE",
"544 68 CURVE SMOOTH",
"537 68 OFFCURVE",
"532 70 OFFCURVE",
"527 77 CURVE SMOOTH",
"390 256 LINE SMOOTH",
"382 268 OFFCURVE",
"354 283 OFFCURVE",
"325 287 CURVE",
"371 287 LINE",
"478 296 OFFCURVE",
"513 377 OFFCURVE",
"513 475 CURVE SMOOTH",
"513 583 OFFCURVE",
"441 686 OFFCURVE",
"319 686 CURVE SMOOTH",
"99 686 LINE",
"99 609 LINE",
"315 609 LINE SMOOTH",
"387 609 OFFCURVE",
"431 549 OFFCURVE",
"431 474 CURVE SMOOTH",
"431 399 OFFCURVE",
"387 345 OFFCURVE",
"304 345 CURVE SMOOTH",
"218 345 LINE",
"218 268 LINE",
"287 266 OFFCURVE",
"304 239 OFFCURVE",
"341 191 CURVE SMOOTH",
"463 32 LINE SMOOTH",
"484 5 OFFCURVE",
"513 -10 OFFCURVE",
"545 -10 CURVE SMOOTH"
);
},
{
closed = 1;
nodes = (
"181 -1 LINE",
"181 675 LINE",
"99 675 LINE",
"99 -1 LINE"
);
}
);
width = 640;
},
{
anchors = (
{
name = bottom;
position = "{314, -6}";
},
{
name = top;
position = "{259, 684}";
}
);
layerId = "49C16FD3-6177-408B-A733-AEB3898BB77C";
paths = (
{
closed = 1;
nodes = (
"559 -9 OFFCURVE",
"573 -6 OFFCURVE",
"586 2 CURVE",
"561 39 LINE",
"555 36 OFFCURVE",
"549 35 OFFCURVE",
"543 35 CURVE SMOOTH",
"531 35 OFFCURVE",
"518 40 OFFCURVE",
"510 52 CURVE SMOOTH",
"356 252 LINE SMOOTH",
"349 260 OFFCURVE",
"337 278 OFFCURVE",
"320 284 CURVE SMOOTH",
"304 290 OFFCURVE",
"303 291 OFFCURVE",
"285 294 CURVE",
"335 297 LINE SMOOTH",
"438 306 OFFCURVE",
"491 385 OFFCURVE",
"491 482 CURVE SMOOTH",
"491 589 OFFCURVE",
"425 685 OFFCURVE",
"306 685 CURVE SMOOTH",
"94 685 LINE",
"94 642 LINE",
"302 642 LINE SMOOTH",
"390 642 OFFCURVE",
"444 568 OFFCURVE",
"444 481 CURVE SMOOTH",
"444 393 OFFCURVE",
"389 325 OFFCURVE",
"291 325 CURVE SMOOTH",
"209 325 LINE",
"209 282 LINE",
"276 275 OFFCURVE",
"309 242 OFFCURVE",
"345 195 CURVE SMOOTH",
"473 28 LINE SMOOTH",
"493 3 OFFCURVE",
"515 -9 OFFCURVE",
"544 -9 CURVE SMOOTH"
);
},
{
closed = 1;
nodes = (
"142 1 LINE",
"142 672 LINE",
"94 672 LINE",
"94 1 LINE"
);
}
);
width = 610;
}
);
leftKerningGroup = L;
rightKerningGroup = K;
userData = {
position = 619;
width = 57;
};
},
{
glyphname = R.swsh;
lastChange = "2019-09-25 08:02:54 +0000";
layers = (
{
anchors = (
{
name = bottom;
position = "{384, 0}";
},
{
name = top;
position = "{384, 0}";
}
);
layerId = "873CAA12-270D-4223-A88E-AE8E101FDBE8";
paths = (
{
closed = 1;
nodes = (
"665 -10 OFFCURVE",
"700 32 OFFCURVE",
"700 79 CURVE",
"643 81 LINE",
"643 58 OFFCURVE",
"627 45 OFFCURVE",
"610 45 CURVE SMOOTH",
"600 45 OFFCURVE",
"591 49 OFFCURVE",
"582 61 CURVE SMOOTH",
"431 257 LINE SMOOTH",
"421 269 OFFCURVE",
"405 283 OFFCURVE",
"380 289 CURVE",
"405 290 LINE SMOOTH",
"507 299 OFFCURVE",
"565 379 OFFCURVE",
"565 478 CURVE SMOOTH",
"565 589 OFFCURVE",
"492 684 OFFCURVE",
"377 684 CURVE SMOOTH",
"141 684 LINE SMOOTH",
"85 684 OFFCURVE",
"38 637 OFFCURVE",
"38 578 CURVE SMOOTH",
"38 541 OFFCURVE",
"56 508 OFFCURVE",
"88 489 CURVE",
"117 537 LINE",
"102 546 OFFCURVE",
"94 561 OFFCURVE",
"94 578 CURVE SMOOTH",
"94 607 OFFCURVE",
"116 628 OFFCURVE",
"143 628 CURVE SMOOTH",
"373 628 LINE SMOOTH",
"455 628 OFFCURVE",
"505 559 OFFCURVE",
"505 476 CURVE SMOOTH",
"505 388 OFFCURVE",
"449 332 OFFCURVE",
"362 332 CURVE SMOOTH",
"275 332 LINE",
"275 276 LINE",
"343 270 OFFCURVE",
"374 241 OFFCURVE",
"409 193 CURVE SMOOTH",
"535 29 LINE SMOOTH",
"555 3 OFFCURVE",
"580 -10 OFFCURVE",
"610 -10 CURVE SMOOTH"
);
},
{
closed = 1;
nodes = (
"223 0 LINE",
"223 582 LINE",
"162 582 LINE",
"162 0 LINE"
);
}
);
width = 733;
},
{
anchors = (
{
name = bottom;
position = "{395, 11}";
},
{
name = top;
position = "{395, 11}";
}
);
layerId = "0CAF3BED-C4AC-4024-B3E1-4C69D1EF7EC0";
paths = (
{
closed = 1;
nodes = (
"678 -10 OFFCURVE",
"719 45 OFFCURVE",
"713 99 CURVE",
"633 102 LINE",
"634 98 OFFCURVE",
"635 94 OFFCURVE",
"635 90 CURVE SMOOTH",
"635 75 OFFCURVE",
"624 66 OFFCURVE",
"614 66 CURVE SMOOTH",
"607 66 OFFCURVE",
"603 68 OFFCURVE",
"597 77 CURVE SMOOTH",
"450 267 LINE SMOOTH",
"447 271 OFFCURVE",
"431 281 OFFCURVE",
"417 281 CURVE",
"521 290 OFFCURVE",
"582 375 OFFCURVE",
"582 475 CURVE SMOOTH",
"582 586 OFFCURVE",
"506 686 OFFCURVE",
"388 686 CURVE SMOOTH",
"149 686 LINE SMOOTH",
"90 686 OFFCURVE",
"38 634 OFFCURVE",
"38 572 CURVE SMOOTH",
"38 529 OFFCURVE",
"63 488 OFFCURVE",
"102 470 CURVE",
"143 537 LINE",
"123 545 OFFCURVE",
"116 555 OFFCURVE",
"116 572 CURVE SMOOTH",
"116 593 OFFCURVE",
"132 609 OFFCURVE",
"151 609 CURVE SMOOTH",
"385 609 LINE SMOOTH",
"456 609 OFFCURVE",
"501 548 OFFCURVE",
"501 473 CURVE SMOOTH",
"501 394 OFFCURVE",
"451 345 OFFCURVE",
"374 345 CURVE SMOOTH",
"278 345 LINE",
"278 268 LINE",
"348 264 OFFCURVE",
"375 240 OFFCURVE",
"410 191 CURVE SMOOTH",
"532 32 LINE SMOOTH",
"553 5 OFFCURVE",
"582 -10 OFFCURVE",
"614 -10 CURVE SMOOTH"
);
},
{
closed = 1;
nodes = (
"251 -1 LINE",
"251 569 LINE",
"168 569 LINE",
"168 -1 LINE"
);
}
);
width = 748;
},
{
anchors = (
{
name = bottom;
position = "{379, -6}";
},
{
name = top;
position = "{379, -6}";
}
);
layerId = "49C16FD3-6177-408B-A733-AEB3898BB77C";
paths = (
{
closed = 1;
nodes = (
"660 -9 OFFCURVE",
"691 25 OFFCURVE",
"694 68 CURVE",
"650 69 LINE",
"647 47 OFFCURVE",
"628 33 OFFCURVE",
"610 33 CURVE SMOOTH",
"598 33 OFFCURVE",
"586 38 OFFCURVE",
"575 52 CURVE SMOOTH",
"421 251 LINE SMOOTH",
"412 263 OFFCURVE",
"397 276 OFFCURVE",
"373 282 CURVE",
"375 296 LINE",
"400 297 LINE SMOOTH",
"501 306 OFFCURVE",
"557 383 OFFCURVE",
"557 482 CURVE SMOOTH",
"557 592 OFFCURVE",
"486 685 OFFCURVE",
"372 685 CURVE SMOOTH",
"131 685 LINE SMOOTH",
"77 685 OFFCURVE",
"33 641 OFFCURVE",
"33 584 CURVE SMOOTH",
"33 550 OFFCURVE",
"48 521 OFFCURVE",
"75 503 CURVE",
"97 540 LINE",
"84 550 OFFCURVE",
"76 567 OFFCURVE",
"76 584 CURVE SMOOTH",
"76 616 OFFCURVE",
"103 642 OFFCURVE",
"133 642 CURVE SMOOTH",
"368 642 LINE SMOOTH",
"455 642 OFFCURVE",
"510 566 OFFCURVE",
"510 480 CURVE SMOOTH",
"510 387 OFFCURVE",
"448 325 OFFCURVE",
"357 325 CURVE SMOOTH",
"275 325 LINE",
"275 282 LINE",
"343 274 OFFCURVE",
"375 243 OFFCURVE",
"410 195 CURVE SMOOTH",
"539 28 LINE SMOOTH",
"558 3 OFFCURVE",
"581 -9 OFFCURVE",
"610 -9 CURVE SMOOTH"
);
},
{
closed = 1;
nodes = (
"208 1 LINE",
"208 580 LINE",
"160 580 LINE",
"160 1 LINE"
);
}
);
width = 721;
}
);
leftKerningGroup = Swash;
rightKerningGroup = K;
userData = {
position = 619;
width = 57;
};
},
{
glyphname = S;
lastChange = "2019-09-24 06:42:04 +0000";
layers = (
{
anchors = (
{
name = bottom;
position = "{279, -25}";
},
{
name = top;
position = "{284, 706}";
}
);
layerId = "873CAA12-270D-4223-A88E-AE8E101FDBE8";
paths = (
{
closed = 1;
nodes = (
"405 -25 OFFCURVE",
"499 76 OFFCURVE",
"499 191 CURVE SMOOTH",
"499 263 OFFCURVE",
"462 322 OFFCURVE",
"373 369 CURVE SMOOTH",
"297 410 OFFCURVE",
"157 451 OFFCURVE",
"157 544 CURVE SMOOTH",
"157 603 OFFCURVE",
"214 657 OFFCURVE",
"284 657 CURVE SMOOTH",
"329 657 OFFCURVE",
"385 631 OFFCURVE",
"385 589 CURVE SMOOTH",
"385 567 OFFCURVE",
"369 545 OFFCURVE",
"347 551 CURVE",
"343 501 LINE",
"399 495 OFFCURVE",
"440 534 OFFCURVE",
"440 588 CURVE SMOOTH",
"440 663 OFFCURVE",
"365 706 OFFCURVE",
"284 706 CURVE SMOOTH",
"185 706 OFFCURVE",
"102 639 OFFCURVE",
"102 542 CURVE SMOOTH",
"102 404 OFFCURVE",
"250 375 OFFCURVE",
"344 326 CURVE SMOOTH",
"400 297 OFFCURVE",
"444 259 OFFCURVE",
"444 190 CURVE SMOOTH",
"444 104 OFFCURVE",
"377 25 OFFCURVE",
"278 25 CURVE SMOOTH",
"198 25 OFFCURVE",
"107 78 OFFCURVE",
"80 163 CURVE",
"34 144 LINE",
"62 44 OFFCURVE",
"175 -25 OFFCURVE",
"279 -25 CURVE SMOOTH"
);
}
);
width = 546;
},
{
anchors = (
{
name = bottom;
position = "{286, -25}";
},
{
name = top;
position = "{291, 696}";
}
);
layerId = "0CAF3BED-C4AC-4024-B3E1-4C69D1EF7EC0";
paths = (
{
closed = 1;
nodes = (
"416 -25 OFFCURVE",
"511 80 OFFCURVE",
"511 196 CURVE SMOOTH",
"511 275 OFFCURVE",
"468 333 OFFCURVE",
"383 379 CURVE SMOOTH",
"307 420 OFFCURVE",
"179 458 OFFCURVE",
"179 538 CURVE SMOOTH",
"179 589 OFFCURVE",
"230 637 OFFCURVE",
"290 637 CURVE SMOOTH",
"332 637 OFFCURVE",
"378 614 OFFCURVE",
"378 582 CURVE SMOOTH",
"378 559 OFFCURVE",
"359 546 OFFCURVE",
"342 552 CURVE",
"336 487 LINE",
"343 486 OFFCURVE",
"350 485 OFFCURVE",
"358 485 CURVE SMOOTH",
"412 485 OFFCURVE",
"454 528 OFFCURVE",
"454 582 CURVE SMOOTH",
"454 629 OFFCURVE",
"423 676 OFFCURVE",
"354 698 CURVE SMOOTH",
"335 704 OFFCURVE",
"313 708 OFFCURVE",
"290 708 CURVE SMOOTH",
"191 708 OFFCURVE",
"103 637 OFFCURVE",
"103 536 CURVE SMOOTH",
"103 402 OFFCURVE",
"258 360 OFFCURVE",
"344 315 CURVE SMOOTH",
"398 287 OFFCURVE",
"434 255 OFFCURVE",
"434 195 CURVE SMOOTH",
"434 118 OFFCURVE",
"376 46 OFFCURVE",
"282 46 CURVE SMOOTH",
"204 46 OFFCURVE",
"126 87 OFFCURVE",
"98 184 CURVE",
"34 157 LINE",
"58 47 OFFCURVE",
"162 -25 OFFCURVE",
"280 -25 CURVE SMOOTH"
);
}
);
width = 558;
},
{
anchors = (
{
name = bottom;
position = "{269, -24}";
},
{
name = top;
position = "{274, 714}";
}
);
layerId = "49C16FD3-6177-408B-A733-AEB3898BB77C";
paths = (
{
closed = 1;
nodes = (
"395 -24 OFFCURVE",
"487 74 OFFCURVE",
"487 189 CURVE SMOOTH",
"487 260 OFFCURVE",
"451 317 OFFCURVE",
"362 364 CURVE SMOOTH",
"285 406 OFFCURVE",
"138 449 OFFCURVE",
"138 549 CURVE SMOOTH",
"138 612 OFFCURVE",
"200 668 OFFCURVE",
"274 668 CURVE SMOOTH",
"322 668 OFFCURVE",
"384 643 OFFCURVE",
"384 595 CURVE SMOOTH",
"384 571 OFFCURVE",
"369 547 OFFCURVE",
"346 549 CURVE",
"343 512 LINE",
"392 509 OFFCURVE",
"426 544 OFFCURVE",
"426 594 CURVE SMOOTH",
"426 640 OFFCURVE",
"397 679 OFFCURVE",
"336 698 CURVE SMOOTH",
"317 704 OFFCURVE",
"295 707 OFFCURVE",
"274 707 CURVE SMOOTH",
"176 707 OFFCURVE",
"96 642 OFFCURVE",
"96 547 CURVE SMOOTH",
"96 421 OFFCURVE",
"242 379 OFFCURVE",
"339 329 CURVE SMOOTH",
"396 299 OFFCURVE",
"445 262 OFFCURVE",
"445 188 CURVE SMOOTH",
"445 97 OFFCURVE",
"372 15 OFFCURVE",
"268 15 CURVE SMOOTH",
"187 15 OFFCURVE",
"94 62 OFFCURVE",
"65 151 CURVE",
"29 137 LINE",
"59 41 OFFCURVE",
"158 -24 OFFCURVE",
"269 -24 CURVE SMOOTH"
);
}
);
width = 528;
}
);
leftKerningGroup = S;
rightKerningGroup = S;
unicode = 0053;
userData = {
position = 433;
width = 55;
};
},
{
glyphname = S.ss01;
lastChange = "2019-09-24 12:31:56 +0000";
layers = (
{
anchors = (
{
name = bottom;
position = "{291, 0}";
},
{
name = top;
position = "{284, 706}";
}
);
layerId = "873CAA12-270D-4223-A88E-AE8E101FDBE8";
paths = (
{
closed = 1;
nodes = (
"394 -25 OFFCURVE",
"499 61 OFFCURVE",
"499 186 CURVE SMOOTH",
"499 267 OFFCURVE",
"461 322 OFFCURVE",
"373 369 CURVE SMOOTH",
"289 414 OFFCURVE",
"157 454 OFFCURVE",
"157 544 CURVE SMOOTH",
"157 604 OFFCURVE",
"215 651 OFFCURVE",
"284 651 CURVE SMOOTH",
"330 651 OFFCURVE",
"384 631 OFFCURVE",
"384 586 CURVE",
"440 583 LINE",
"444 655 OFFCURVE",
"373 706 OFFCURVE",
"286 706 CURVE SMOOTH",
"186 706 OFFCURVE",
"102 640 OFFCURVE",
"102 541 CURVE SMOOTH",
"102 437 OFFCURVE",
"195 391 OFFCURVE",
"344 319 CURVE SMOOTH",
"408 288 OFFCURVE",
"444 252 OFFCURVE",
"444 187 CURVE SMOOTH",
"444 95 OFFCURVE",
"369 30 OFFCURVE",
"276 30 CURVE SMOOTH",
"199 30 OFFCURVE",
"112 79 OFFCURVE",
"85 164 CURVE",
"34 144 LINE",
"61 45 OFFCURVE",
"177 -25 OFFCURVE",
"276 -25 CURVE SMOOTH"
);
}
);
width = 545;
},
{
anchors = (
{
name = bottom;
position = "{283, -25}";
},
{
name = top;
position = "{291, 696}";
}
);
layerId = "0CAF3BED-C4AC-4024-B3E1-4C69D1EF7EC0";
paths = (
{
closed = 1;
nodes = (
"404 -25 OFFCURVE",
"511 64 OFFCURVE",
"511 192 CURVE SMOOTH",
"511 274 OFFCURVE",
"470 332 OFFCURVE",
"383 379 CURVE SMOOTH",
"300 424 OFFCURVE",
"179 460 OFFCURVE",
"179 539 CURVE SMOOTH",
"179 589 OFFCURVE",
"230 631 OFFCURVE",
"291 631 CURVE SMOOTH",
"331 631 OFFCURVE",
"386 610 OFFCURVE",
"378 569 CURVE",
"453 564 LINE",
"466 643 OFFCURVE",
"386 708 OFFCURVE",
"293 708 CURVE SMOOTH",
"192 708 OFFCURVE",
"103 638 OFFCURVE",
"103 536 CURVE SMOOTH",
"103 428 OFFCURVE",
"199 380 OFFCURVE",
"344 310 CURVE SMOOTH",
"404 281 OFFCURVE",
"434 251 OFFCURVE",
"434 193 CURVE SMOOTH",
"434 108 OFFCURVE",
"366 50 OFFCURVE",
"283 50 CURVE SMOOTH",
"209 50 OFFCURVE",
"127 100 OFFCURVE",
"105 186 CURVE",
"34 157 LINE",
"57 52 OFFCURVE",
"164 -25 OFFCURVE",
"283 -25 CURVE SMOOTH"
);
}
);
width = 558;
},
{
anchors = (
{
name = bottom;
position = "{282, -6}";
},
{
name = top;
position = "{274, 714}";
}
);
layerId = "49C16FD3-6177-408B-A733-AEB3898BB77C";
paths = (
{
closed = 1;
nodes = (
"383 -24 OFFCURVE",
"487 60 OFFCURVE",
"487 184 CURVE SMOOTH",
"487 264 OFFCURVE",
"450 317 OFFCURVE",
"362 364 CURVE SMOOTH",
"277 410 OFFCURVE",
"138 452 OFFCURVE",
"138 549 CURVE SMOOTH",
"138 613 OFFCURVE",
"202 665 OFFCURVE",
"274 665 CURVE SMOOTH",
"320 665 OFFCURVE",
"378 645 OFFCURVE",
"383 598 CURVE",
"427 596 LINE",
"426 662 OFFCURVE",
"360 707 OFFCURVE",
"277 707 CURVE SMOOTH",
"177 707 OFFCURVE",
"96 643 OFFCURVE",
"96 546 CURVE SMOOTH",
"96 444 OFFCURVE",
"187 399 OFFCURVE",
"339 326 CURVE SMOOTH",
"405 294 OFFCURVE",
"445 254 OFFCURVE",
"445 185 CURVE SMOOTH",
"445 88 OFFCURVE",
"364 17 OFFCURVE",
"266 17 CURVE SMOOTH",
"188 17 OFFCURVE",
"98 67 OFFCURVE",
"68 152 CURVE",
"29 137 LINE",
"58 42 OFFCURVE",
"170 -24 OFFCURVE",
"266 -24 CURVE SMOOTH"
);
}
);
width = 528;
}
);
leftKerningGroup = S;
rightKerningGroup = S;
userData = {
position = 433;
width = 55;
};
},
{
glyphname = S.swsh;
lastChange = "2019-09-25 08:03:45 +0000";
layers = (
{
anchors = (
{
name = bottom;
position = "{283, -25}";
},
{
name = top;
position = "{288, 706}";
}
);
layerId = "873CAA12-270D-4223-A88E-AE8E101FDBE8";
paths = (
{
closed = 1;
nodes = (
"476 420 OFFCURVE",
"148 392 OFFCURVE",
"170 554 CURVE",
"177 606 OFFCURVE",
"225 642 OFFCURVE",
"282 643 CURVE",
"436 639 OFFCURVE",
"392 522 OFFCURVE",
"355 560 CURVE",
"353 562 OFFCURVE",
"352 563 OFFCURVE",
"351 565 CURVE",
"304 542 LINE",
"336 483 OFFCURVE",
"417 489 OFFCURVE",
"440 549 CURVE",
"501 711 OFFCURVE",
"156 766 OFFCURVE",
"115 570 CURVE",
"99 491 OFFCURVE",
"145 433 OFFCURVE",
"214 391 CURVE",
"295 342 OFFCURVE",
"415 317 OFFCURVE",
"442 219 CURVE",
"465 142 OFFCURVE",
"405 63 OFFCURVE",
"323 45 CURVE",
"175 9 OFFCURVE",
"65 137 OFFCURVE",
"104 234 CURVE",
"52 254 LINE",
"37 214 OFFCURVE",
"39 171 OFFCURVE",
"54 131 CURVE",
"116 -36 OFFCURVE",
"361 -66 OFFCURVE",
"467 75 CURVE",
"492 106 OFFCURVE",
"506 153 OFFCURVE",
"502 200 CURVE"
);
}
);
width = 549;
},
{
anchors = (
{
name = bottom;
position = "{295, -25}";
},
{
name = top;
position = "{300, 696}";
}
);
layerId = "0CAF3BED-C4AC-4024-B3E1-4C69D1EF7EC0";
paths = (
{
closed = 1;
nodes = (
"364 407 OFFCURVE",
"266 420 OFFCURVE",
"210 486 CURVE SMOOTH",
"150 557 OFFCURVE",
"221 659 OFFCURVE",
"335 627 CURVE SMOOTH",
"355 622 OFFCURVE",
"388 605 OFFCURVE",
"390 587 CURVE SMOOTH",
"391 578 OFFCURVE",
"392 567 OFFCURVE",
"383 563 CURVE SMOOTH",
"376 560 OFFCURVE",
"371 564 OFFCURVE",
"369 570 CURVE",
"305 538 LINE",
"343 465 OFFCURVE",
"454 476 OFFCURVE",
"466 574 CURVE SMOOTH",
"474 634 OFFCURVE",
"420 706 OFFCURVE",
"292 705 CURVE SMOOTH",
"124 704 OFFCURVE",
"24 504 OFFCURVE",
"210 387 CURVE SMOOTH",
"267 352 OFFCURVE",
"322 337 OFFCURVE",
"372 303 CURVE SMOOTH",
"502 216 OFFCURVE",
"445 67 OFFCURVE",
"305 49 CURVE SMOOTH",
"186 37 OFFCURVE",
"100 128 OFFCURVE",
"118 216 CURVE",
"44 233 LINE",
"15 66 OFFCURVE",
"198 -74 OFFCURVE",
"379 -9 CURVE SMOOTH",
"525 41 OFFCURVE",
"579 220 OFFCURVE",
"448 337 CURVE SMOOTH"
);
}
);
width = 569;
},
{
anchors = (
{
name = bottom;
position = "{275, -24}";
},
{
name = top;
position = "{280, 714}";
}
);
layerId = "49C16FD3-6177-408B-A733-AEB3898BB77C";
paths = (
{
closed = 1;
nodes = (
"420 334 OFFCURVE",
"333 378 CURVE SMOOTH",
"251 420 OFFCURVE",
"151 458 OFFCURVE",
"151 541 CURVE SMOOTH",
"151 600 OFFCURVE",
"204 655 OFFCURVE",
"271 655 CURVE SMOOTH",
"321 655 OFFCURVE",
"381 627 OFFCURVE",
"385 589 CURVE SMOOTH",
"390 562 OFFCURVE",
"374 547 OFFCURVE",
"359 547 CURVE SMOOTH",
"349 547 OFFCURVE",
"340 552 OFFCURVE",
"335 563 CURVE",
"299 545 LINE",
"312 519 OFFCURVE",
"336 507 OFFCURVE",
"360 507 CURVE SMOOTH",
"403 507 OFFCURVE",
"429 544 OFFCURVE",
"429 583 CURVE SMOOTH",
"429 651 OFFCURVE",
"356 695 OFFCURVE",
"276 695 CURVE SMOOTH",
"173 695 OFFCURVE",
"107 616 OFFCURVE",
"107 540 CURVE SMOOTH",
"107 429 OFFCURVE",
"221 390 OFFCURVE",
"326 336 CURVE SMOOTH",
"391 303 OFFCURVE",
"442 263 OFFCURVE",
"442 186 CURVE SMOOTH",
"442 97 OFFCURVE",
"363 27 OFFCURVE",
"261 27 CURVE SMOOTH",
"154 27 OFFCURVE",
"79 113 OFFCURVE",
"79 192 CURVE SMOOTH",
"79 205 OFFCURVE",
"81 218 OFFCURVE",
"85 231 CURVE",
"45 244 LINE",
"40 228 OFFCURVE",
"37 211 OFFCURVE",
"37 194 CURVE SMOOTH",
"37 93 OFFCURVE",
"132 -14 OFFCURVE",
"264 -14 CURVE SMOOTH",
"400 -14 OFFCURVE",
"485 84 OFFCURVE",
"485 183 CURVE SMOOTH",
"485 275 OFFCURVE"
);
}
);
width = 526;
},
{
anchors = (
{
name = bottom;
position = "{273, -24}";
},
{
name = top;
position = "{278, 714}";
}
);
associatedMasterId = "49C16FD3-6177-408B-A733-AEB3898BB77C";
layerId = "07BC72AF-B0D1-4139-ADAE-DF16B9206D67";
name = "Sep 24 19, 11:40";
paths = (
{
closed = 1;
nodes = (
"492 228 OFFCURVE",
"470 280 OFFCURVE",
"419 322 CURVE",
"334 394 OFFCURVE",
"204 413 OFFCURVE",
"155 498 CURVE",
"112 575 OFFCURVE",
"181 664 OFFCURVE",
"270 660 CURVE",
"322 659 OFFCURVE",
"386 638 OFFCURVE",
"388 595 CURVE",
"390 546 OFFCURVE",
"348 543 OFFCURVE",
"335 570 CURVE",
"297 551 LINE",
"309 529 OFFCURVE",
"327 516 OFFCURVE",
"351 512 CURVE",
"434 499 OFFCURVE",
"479 630 OFFCURVE",
"369 682 CURVE",
"230 748 OFFCURVE",
"72 653 OFFCURVE",
"99 518 CURVE",
"135 336 OFFCURVE",
"494 360 OFFCURVE",
"442 136 CURVE",
"392 -33 OFFCURVE",
"120 -25 OFFCURVE",
"72 144 CURVE",
"29 131 LINE",
"44 83 OFFCURVE",
"76 42 OFFCURVE",
"117 14 CURVE",
"271 -89 OFFCURVE",
"500 0 OFFCURVE",
"493 183 CURVE"
);
}
);
width = 534;
},
{
anchors = (
{
name = bottom;
position = "{278, -25}";
},
{
name = top;
position = "{283, 706}";
}
);
associatedMasterId = "873CAA12-270D-4223-A88E-AE8E101FDBE8";
layerId = "8F60F1D1-073F-47A4-A90D-78AE31FB1A17";
name = "Sep 24 19, 11:40";
paths = (
{
closed = 1;
nodes = (
"497 236 OFFCURVE",
"475 289 OFFCURVE",
"424 332 CURVE SMOOTH",
"342 400 OFFCURVE",
"215 420 OFFCURVE",
"169 500 CURVE SMOOTH",
"133 565 OFFCURVE",
"184 645 OFFCURVE",
"269 649 CURVE SMOOTH",
"310 649 OFFCURVE",
"372 635 OFFCURVE",
"378 594 CURVE SMOOTH",
"385 549 OFFCURVE",
"348 550 OFFCURVE",
"338 570 CURVE",
"291 546 LINE",
"330 473 OFFCURVE",
"438 499 OFFCURVE",
"436 591 CURVE SMOOTH",
"434 665 OFFCURVE",
"360 700 OFFCURVE",
"275 702 CURVE SMOOTH",
"141 705 OFFCURVE",
"50 566 OFFCURVE",
"128 458 CURVE SMOOTH",
"207 350 OFFCURVE",
"382 351 OFFCURVE",
"432 229 CURVE",
"483 75 OFFCURVE",
"282 -29 OFFCURVE",
"147 71 CURVE SMOOTH",
"119 93 OFFCURVE",
"98 122 OFFCURVE",
"89 155 CURVE",
"35 139 LINE",
"113 -104 OFFCURVE",
"508 -56 OFFCURVE",
"498 191 CURVE SMOOTH"
);
}
);
width = 544;
},
{
anchors = (
{
name = bottom;
position = "{289, -25}";
},
{
name = top;
position = "{294, 696}";
}
);
associatedMasterId = "0CAF3BED-C4AC-4024-B3E1-4C69D1EF7EC0";
layerId = "343A3424-8ADD-44AD-B7AD-98CA22AF63FA";
name = "Sep 24 19, 11:40";
paths = (
{
closed = 1;
nodes = (
"510 346 OFFCURVE",
"334 398 OFFCURVE",
"265 438 CURVE SMOOTH",
"227 459 OFFCURVE",
"180 494 OFFCURVE",
"177 538 CURVE SMOOTH",
"172 577 OFFCURVE",
"202 622 OFFCURVE",
"253 635 CURVE SMOOTH",
"295 646 OFFCURVE",
"359 629 OFFCURVE",
"378 596 CURVE SMOOTH",
"389 577 OFFCURVE",
"380 569 OFFCURVE",
"372 567 CURVE SMOOTH",
"368 566 OFFCURVE",
"362 571 OFFCURVE",
"359 575 CURVE",
"294 543 LINE",
"317 499 OFFCURVE",
"364 486 OFFCURVE",
"402 501 CURVE SMOOTH",
"478 531 OFFCURVE",
"490 662 OFFCURVE",
"356 701 CURVE SMOOTH",
"200 745 OFFCURVE",
"76 638 OFFCURVE",
"101 514 CURVE SMOOTH",
"135 345 OFFCURVE",
"401 359 OFFCURVE",
"433 211 CURVE SMOOTH",
"467 79 OFFCURVE",
"258 -19 OFFCURVE",
"143 102 CURVE SMOOTH",
"130 114 OFFCURVE",
"115 137 OFFCURVE",
"108 162 CURVE",
"35 141 LINE",
"116 -110 OFFCURVE",
"524 -61 OFFCURVE",
"514 196 CURVE SMOOTH"
);
}
);
width = 561;
}
);
leftKerningGroup = S;
rightKerningGroup = S;
userData = {
position = 433;
width = 55;
};
},
{
glyphname = Germandbls;
lastChange = "2019-09-25 08:03:58 +0000";
layers = (
{
anchors = (
{
name = bottom;
position = "{392, 0}";
},
{
name = top;
position = "{392, 684}";
}
);
layerId = "49C16FD3-6177-408B-A733-AEB3898BB77C";
paths = (
{
closed = 1;
nodes = (
"567 351 OFFCURVE",
"470 438 OFFCURVE",
"335 438 CURVE",
"513 684 LINE",
"94 686 LINE",
"94 0 LINE",
"138 0 LINE",
"138 644 LINE",
"431 644 LINE",
"284 438 LINE",
"284 400 LINE",
"333 400 OFFCURVE",
"513 420 OFFCURVE",
"526 232 CURVE",
"530 195 OFFCURVE",
"523 159 OFFCURVE",
"504 126 CURVE",
"447 28 OFFCURVE",
"358 38 OFFCURVE",
"258 39 CURVE",
"258 0 LINE",
"364 1 OFFCURVE",
"441 -11 OFFCURVE",
"520 78 CURVE",
"556 122 OFFCURVE",
"570 171 OFFCURVE",
"569 209 CURVE"
);
}
);
width = 611;
},
{
anchors = (
{
name = bottom;
position = "{360, 0}";
},
{
name = top;
position = "{360, 684}";
}
);
layerId = "873CAA12-270D-4223-A88E-AE8E101FDBE8";
paths = (
{
closed = 1;
nodes = (
"539 684 LINE",
"99 685 LINE",
"99 0 LINE",
"157 0 LINE",
"157 632 LINE",
"428 632 LINE",
"284 436 LINE",
"284 381 LINE",
"347 382 OFFCURVE",
"389 386 OFFCURVE",
"445 358 CURVE",
"570 291 OFFCURVE",
"543 68 OFFCURVE",
"376 55 CURVE",
"366 54 OFFCURVE",
"316 53 OFFCURVE",
"263 53 CURVE",
"263 0 LINE",
"374 1 OFFCURVE",
"392 -4 OFFCURVE",
"447 16 CURVE",
"659 106 OFFCURVE",
"622 423 OFFCURVE",
"350 436 CURVE"
);
}
);
width = 630;
},
{
anchors = (
{
name = bottom;
position = "{396, 0}";
},
{
name = top;
position = "{396, 684}";
}
);
layerId = "0CAF3BED-C4AC-4024-B3E1-4C69D1EF7EC0";
paths = (
{
closed = 1;
nodes = (
"570 684 LINE",
"99 684 LINE",
"99 -1 LINE",
"178 -1 LINE",
"178 611 LINE",
"420 611 LINE",
"296 444 LINE",
"296 374 LINE",
"398 376 OFFCURVE",
"517 380 OFFCURVE",
"524 216 CURVE SMOOTH",
"524 155 OFFCURVE",
"498 108 OFFCURVE",
"449 82 CURVE SMOOTH",
"406 57 OFFCURVE",
"368 61 OFFCURVE",
"273 62 CURVE",
"273 -7 LINE",
"369 -5 OFFCURVE",
"445 -19 OFFCURVE",
"524 49 CURVE SMOOTH",
"664 172 OFFCURVE",
"610 416 OFFCURVE",
"386 441 CURVE"
);
}
);
width = 651;
}
);
rightKerningGroup = B;
unicode = 1E9E;
},
{
glyphname = Schwa;
lastChange = "2019-09-25 08:04:03 +0000";
layers = (
{
anchors = (
{
name = bottom;
position = "{315, 711}";
},
{
name = ogonek;
position = "{75, 629}";
},
{
name = top;
position = "{312, -19}";
}
);
layerId = "49C16FD3-6177-408B-A733-AEB3898BB77C";
paths = (
{
closed = 1;
nodes = (
"228 702 OFFCURVE",
"144 674 OFFCURVE",
"75 629 CURVE",
"93 598 LINE",
"170 638 OFFCURVE",
"231 665 OFFCURVE",
"310 665 CURVE SMOOTH",
"545 665 OFFCURVE",
"568 442 OFFCURVE",
"568 365 CURVE SMOOTH",
"568 140 OFFCURVE",
"449 21 OFFCURVE",
"316 21 CURVE SMOOTH",
"191 21 OFFCURVE",
"86 124 OFFCURVE",
"86 265 CURVE SMOOTH",
"86 289 OFFCURVE",
"88 319 OFFCURVE",
"94 353 CURVE",
"53 353 LINE",
"50 323 OFFCURVE",
"48 296 OFFCURVE",
"48 269 CURVE SMOOTH",
"48 101 OFFCURVE",
"157 -14 OFFCURVE",
"314 -14 CURVE SMOOTH",
"508 -14 OFFCURVE",
"608 163 OFFCURVE",
"608 364 CURVE SMOOTH",
"608 566 OFFCURVE",
"506 702 OFFCURVE",
"316 702 CURVE SMOOTH"
);
},
{
closed = 1;
nodes = (
"79 353 LINE",
"79 315 LINE",
"581 315 LINE",
"581 353 LINE"
);
}
);
userData = {
RMXScaler = {
height = 140;
weight = -140;
width = 135;
};
};
width = 663;
},
{
anchors = (
{
name = bottom;
position = "{325, 708}";
},
{
name = ogonek;
position = "{79, 630}";
},
{
name = top;
position = "{324, -14}";
}
);
layerId = "873CAA12-270D-4223-A88E-AE8E101FDBE8";
paths = (
{
closed = 1;
nodes = (
"233 707 OFFCURVE",
"146 676 OFFCURVE",
"79 630 CURVE",
"104 588 LINE",
"178 627 OFFCURVE",
"239 652 OFFCURVE",
"320 652 CURVE SMOOTH",
"545 652 OFFCURVE",
"558 443 OFFCURVE",
"558 368 CURVE SMOOTH",
"558 149 OFFCURVE",
"452 35 OFFCURVE",
"326 35 CURVE SMOOTH",
"207 35 OFFCURVE",
"110 134 OFFCURVE",
"110 269 CURVE SMOOTH",
"110 293 OFFCURVE",
"113 326 OFFCURVE",
"120 363 CURVE",
"60 363 LINE",
"57 331 OFFCURVE",
"54 304 OFFCURVE",
"54 273 CURVE SMOOTH",
"54 104 OFFCURVE",
"166 -14 OFFCURVE",
"324 -14 CURVE SMOOTH",
"518 -14 OFFCURVE",
"621 165 OFFCURVE",
"621 367 CURVE SMOOTH",
"621 568 OFFCURVE",
"517 707 OFFCURVE",
"326 707 CURVE SMOOTH"
);
},
{
closed = 1;
nodes = (
"85 363 LINE",
"85 307 LINE",
"594 307 LINE",
"594 363 LINE"
);
}
);
userData = {
RMXScaler = {
height = 140;
weight = -140;
width = 135;
};
};
width = 681;
},
{
anchors = (
{
name = bottom;
position = "{333, 696}";
},
{
name = ogonek;
position = "{76, 629}";
},
{
name = top;
position = "{337, -15}";
}
);
layerId = "0CAF3BED-C4AC-4024-B3E1-4C69D1EF7EC0";
paths = (
{
closed = 1;
nodes = (
"238 711 OFFCURVE",
"145 678 OFFCURVE",
"76 629 CURVE",
"112 570 LINE",
"185 609 OFFCURVE",
"245 637 OFFCURVE",
"327 637 CURVE SMOOTH",
"537 637 OFFCURVE",
"550 443 OFFCURVE",
"550 370 CURVE SMOOTH",
"550 160 OFFCURVE",
"451 53 OFFCURVE",
"332 53 CURVE SMOOTH",
"221 53 OFFCURVE",
"132 144 OFFCURVE",
"132 272 CURVE SMOOTH",
"132 298 OFFCURVE",
"136 333 OFFCURVE",
"143 375 CURVE",
"63 375 LINE",
"60 338 OFFCURVE",
"56 307 OFFCURVE",
"56 276 CURVE SMOOTH",
"56 105 OFFCURVE",
"173 -15 OFFCURVE",
"331 -15 CURVE SMOOTH",
"526 -15 OFFCURVE",
"632 168 OFFCURVE",
"632 368 CURVE SMOOTH",
"632 568 OFFCURVE",
"525 711 OFFCURVE",
"332 711 CURVE SMOOTH"
);
},
{
closed = 1;
nodes = (
"87 375 LINE",
"87 300 LINE",
"605 300 LINE",
"605 375 LINE"
);
}
);
userData = {
RMXScaler = {
height = 140;
weight = -140;
width = 135;
};
};
width = 691;
}
);
leftKerningGroup = O;
rightKerningGroup = O;
unicode = 018F;
userData = {
RMXScaler = {
source = e.ss01;
};
};
},
{
glyphname = T;
lastChange = "2019-09-24 06:42:03 +0000";
layers = (
{
anchors = (
{
name = bottom;
position = "{315, 0}";
},
{
name = center;
position = "{321, 352}";
},
{
name = top;
position = "{320, 684}";
}
);
layerId = "873CAA12-270D-4223-A88E-AE8E101FDBE8";
paths = (
{
closed = 1;
nodes = (
"345 0 LINE",
"345 627 LINE",
"584 627 LINE",
"584 684 LINE",
"120 684 LINE SMOOTH",
"96 684 OFFCURVE",
"75 674 OFFCURVE",
"58 657 CURVE SMOOTH",
"41 640 OFFCURVE",
"32 618 OFFCURVE",
"32 594 CURVE",
"89 594 LINE",
"89 610 OFFCURVE",
"101 627 OFFCURVE",
"123 627 CURVE SMOOTH",
"284 627 LINE",
"284 0 LINE"
);
}
);
width = 618;
},
{
anchors = (
{
name = bottom;
position = "{321, 11}";
},
{
name = center;
position = "{319, 352}";
},
{
name = top;
position = "{326, 675}";
}
);
layerId = "0CAF3BED-C4AC-4024-B3E1-4C69D1EF7EC0";
paths = (
{
closed = 1;
nodes = (
"362 -1 LINE",
"362 608 LINE",
"593 608 LINE",
"593 686 LINE",
"132 686 LINE SMOOTH",
"106 686 OFFCURVE",
"81 675 OFFCURVE",
"63 657 CURVE SMOOTH",
"42 636 OFFCURVE",
"32 605 OFFCURVE",
"35 576 CURVE",
"119 576 LINE",
"115 579 OFFCURVE",
"113 583 OFFCURVE",
"113 587 CURVE SMOOTH",
"113 597 OFFCURVE",
"121 608 OFFCURVE",
"135 608 CURVE SMOOTH",
"279 608 LINE",
"279 -1 LINE"
);
}
);
width = 629;
},
{
anchors = (
{
name = bottom;
position = "{308, -6}";
},
{
name = center;
position = "{309, 352}";
},
{
name = top;
position = "{313, 684}";
}
);
layerId = "49C16FD3-6177-408B-A733-AEB3898BB77C";
paths = (
{
closed = 1;
nodes = (
"332 1 LINE",
"332 641 LINE",
"575 641 LINE",
"575 685 LINE",
"109 685 LINE SMOOTH",
"86 685 OFFCURVE",
"68 676 OFFCURVE",
"51 659 CURVE SMOOTH",
"36 644 OFFCURVE",
"28 627 OFFCURVE",
"27 607 CURVE",
"71 607 LINE",
"75 624 OFFCURVE",
"89 641 OFFCURVE",
"112 641 CURVE SMOOTH",
"284 641 LINE",
"284 1 LINE"
);
}
);
width = 603;
}
);
leftKerningGroup = T;
rightKerningGroup = T;
unicode = 0054;
userData = {
position = 277;
width = 61;
};
},
{
glyphname = T.ss01;
lastChange = "2019-09-24 12:31:56 +0000";
layers = (
{
anchors = (
{
name = bottom;
position = "{309, 0}";
},
{
name = center;
position = "{309, 361}";
},
{
name = top;
position = "{309, 684}";
}
);
layerId = "873CAA12-270D-4223-A88E-AE8E101FDBE8";
paths = (
{
closed = 1;
nodes = (
"334 0 LINE",
"334 627 LINE",
"573 627 LINE",
"573 684 LINE",
"34 684 LINE",
"34 627 LINE",
"273 627 LINE",
"273 0 LINE"
);
}
);
width = 607;
},
{
anchors = (
{
name = bottom;
position = "{308, 3}";
},
{
name = center;
position = "{315, 355}";
},
{
name = top;
position = "{306, 684}";
}
);
layerId = "0CAF3BED-C4AC-4024-B3E1-4C69D1EF7EC0";
paths = (
{
closed = 1;
nodes = (
"350 -1 LINE",
"350 608 LINE",
"582 608 LINE",
"582 686 LINE",
"36 686 LINE",
"36 608 LINE",
"268 608 LINE",
"268 -1 LINE"
);
}
);
width = 618;
},
{
anchors = (
{
name = bottom;
position = "{299, 0}";
},
{
name = center;
position = "{301, 383}";
},
{
name = top;
position = "{295, 684}";
}
);
layerId = "49C16FD3-6177-408B-A733-AEB3898BB77C";
paths = (
{
closed = 1;
nodes = (
"320 1 LINE",
"320 641 LINE",
"563 641 LINE",
"563 685 LINE",
"28 685 LINE",
"28 641 LINE",
"272 641 LINE",
"272 1 LINE"
);
}
);
width = 591;
}
);
leftKerningGroup = T;
rightKerningGroup = T;
userData = {
position = 254;
width = 61;
};
},
{
glyphname = T.swsh;
lastChange = "2019-09-24 12:31:56 +0000";
layers = (
{
anchors = (
{
name = bottom;
position = "{325, 0}";
},
{
name = center;
position = "{325, 342}";
},
{
name = top;
position = "{325, 684}";
}
);
layerId = "873CAA12-270D-4223-A88E-AE8E101FDBE8";
paths = (
{
closed = 1;
nodes = (
"350 0 LINE",
"350 627 LINE",
"589 627 LINE",
"589 684 LINE",
"125 684 LINE SMOOTH",
"88 684 OFFCURVE",
"37 653 OFFCURVE",
"37 594 CURVE SMOOTH",
"37 562 OFFCURVE",
"51 536 OFFCURVE",
"77 518 CURVE",
"109 565 LINE",
"101 570 OFFCURVE",
"94 580 OFFCURVE",
"94 593 CURVE SMOOTH",
"94 610 OFFCURVE",
"106 627 OFFCURVE",
"128 627 CURVE SMOOTH",
"289 627 LINE",
"289 0 LINE"
);
}
);
width = 623;
},
{
anchors = (
{
name = bottom;
position = "{328, 11}";
},
{
name = center;
position = "{328, 343}";
},
{
name = top;
position = "{322, 684}";
}
);
layerId = "0CAF3BED-C4AC-4024-B3E1-4C69D1EF7EC0";
paths = (
{
closed = 1;
nodes = (
"364 -1 LINE",
"364 608 LINE",
"595 608 LINE",
"595 686 LINE",
"134 686 LINE SMOOTH",
"94 686 OFFCURVE",
"37 651 OFFCURVE",
"37 587 CURVE SMOOTH",
"37 549 OFFCURVE",
"57 516 OFFCURVE",
"90 498 CURVE",
"134 562 LINE",
"124 569 LINE SMOOTH",
"119 573 OFFCURVE",
"115 577 OFFCURVE",
"115 586 CURVE SMOOTH",
"115 597 OFFCURVE",
"123 608 OFFCURVE",
"137 608 CURVE SMOOTH",
"281 608 LINE",
"281 -1 LINE"
);
}
);
width = 631;
},
{
anchors = (
{
name = bottom;
position = "{318, -6}";
},
{
name = center;
position = "{318, 343}";
},
{
name = top;
position = "{318, 692}";
}
);
layerId = "49C16FD3-6177-408B-A733-AEB3898BB77C";
paths = (
{
closed = 1;
nodes = (
"337 1 LINE",
"337 641 LINE",
"580 641 LINE",
"580 685 LINE",
"114 685 LINE SMOOTH",
"79 685 OFFCURVE",
"32 656 OFFCURVE",
"32 600 CURVE SMOOTH",
"32 571 OFFCURVE",
"42 549 OFFCURVE",
"64 532 CURVE",
"88 569 LINE",
"81 576 OFFCURVE",
"76 587 OFFCURVE",
"76 599 CURVE SMOOTH",
"76 618 OFFCURVE",
"91 641 OFFCURVE",
"117 641 CURVE SMOOTH",
"289 641 LINE",
"289 1 LINE"
);
}
);
width = 608;
}
);
leftKerningGroup = T;
rightKerningGroup = T;
userData = {
position = 277;
width = 61;
};
},
{
glyphname = U;
lastChange = "2019-09-24 06:42:00 +0000";
layers = (
{
anchors = (
{
name = bottom;
position = "{415, -10}";
},
{
name = center;
position = "{414, 342}";
},
{
name = horn;
position = "{653, 684}";
},
{
name = ogonek;
position = "{581, 43}";
},
{
name = top;
position = "{413, 684}";
},
{
name = topright;
position = "{731, 684}";
}
);
layerId = "873CAA12-270D-4223-A88E-AE8E101FDBE8";
paths = (
{
closed = 1;
nodes = (
"601 -10 OFFCURVE",
"681 132 OFFCURVE",
"681 267 CURVE SMOOTH",
"681 684 LINE",
"620 684 LINE",
"620 267 LINE SMOOTH",
"620 161 OFFCURVE",
"563 45 OFFCURVE",
"414 45 CURVE SMOOTH",
"276 45 OFFCURVE",
"207 145 OFFCURVE",
"207 267 CURVE SMOOTH",
"207 594 LINE SMOOTH",
"207 658 OFFCURVE",
"170 692 OFFCURVE",
"110 692 CURVE SMOOTH",
"79 692 OFFCURVE",
"46 675 OFFCURVE",
"28 649 CURVE",
"78 615 LINE",
"85 626 OFFCURVE",
"98 632 OFFCURVE",
"112 632 CURVE SMOOTH",
"126 632 OFFCURVE",
"146 626 OFFCURVE",
"146 594 CURVE SMOOTH",
"146 267 LINE SMOOTH",
"146 118 OFFCURVE",
"239 -10 OFFCURVE",
"415 -10 CURVE SMOOTH"
);
}
);
width = 764;
},
{
anchors = (
{
name = bottom;
position = "{420, 2}";
},
{
name = center;
position = "{419, 342}";
},
{
name = horn;
position = "{670, 683}";
},
{
name = ogonek;
position = "{575, 46}";
},
{
name = top;
position = "{418, 675}";
},
{
name = topright;
position = "{740, 684}";
}
);
layerId = "0CAF3BED-C4AC-4024-B3E1-4C69D1EF7EC0";
paths = (
{
closed = 1;
nodes = (
"607 -13 OFFCURVE",
"690 133 OFFCURVE",
"690 267 CURVE SMOOTH",
"690 683 LINE",
"607 683 LINE",
"607 267 LINE SMOOTH",
"607 169 OFFCURVE",
"554 60 OFFCURVE",
"419 60 CURVE SMOOTH",
"293 60 OFFCURVE",
"230 154 OFFCURVE",
"230 267 CURVE SMOOTH",
"230 584 LINE SMOOTH",
"230 651 OFFCURVE",
"187 691 OFFCURVE",
"124 691 CURVE SMOOTH",
"87 691 OFFCURVE",
"45 667 OFFCURVE",
"29 634 CURVE",
"98 587 LINE",
"103 603 OFFCURVE",
"111 609 OFFCURVE",
"126 609 CURVE SMOOTH",
"133 609 OFFCURVE",
"147 607 OFFCURVE",
"147 584 CURVE SMOOTH",
"147 267 LINE SMOOTH",
"147 119 OFFCURVE",
"243 -13 OFFCURVE",
"420 -13 CURVE SMOOTH"
);
}
);
width = 773;
},
{
anchors = (
{
name = bottom;
position = "{409, -16}";
},
{
name = center;
position = "{408, 342}";
},
{
name = horn;
position = "{663, 684}";
},
{
name = ogonek;
position = "{574, 38}";
},
{
name = top;
position = "{401, 684}";
},
{
name = topright;
position = "{720, 684}";
}
);
layerId = "49C16FD3-6177-408B-A733-AEB3898BB77C";
paths = (
{
closed = 1;
nodes = (
"595 -10 OFFCURVE",
"673 130 OFFCURVE",
"673 265 CURVE SMOOTH",
"673 684 LINE",
"625 684 LINE",
"625 265 LINE SMOOTH",
"625 156 OFFCURVE",
"564 32 OFFCURVE",
"408 32 CURVE SMOOTH",
"263 32 OFFCURVE",
"190 139 OFFCURVE",
"190 265 CURVE SMOOTH",
"190 599 LINE SMOOTH",
"190 661 OFFCURVE",
"156 692 OFFCURVE",
"98 692 CURVE SMOOTH",
"70 692 OFFCURVE",
"42 678 OFFCURVE",
"24 657 CURVE",
"64 630 LINE",
"73 639 OFFCURVE",
"87 645 OFFCURVE",
"100 645 CURVE SMOOTH",
"115 645 OFFCURVE",
"142 637 OFFCURVE",
"142 599 CURVE SMOOTH",
"142 265 LINE SMOOTH",
"142 116 OFFCURVE",
"233 -10 OFFCURVE",
"409 -10 CURVE SMOOTH"
);
}
);
width = 752;
}
);
leftKerningGroup = E;
rightKerningGroup = U;
unicode = 0055;
userData = {
position = 606;
width = 61;
};
},
{
glyphname = U.ss01;
lastChange = "2019-09-24 12:31:56 +0000";
layers = (
{
anchors = (
{
name = bottom;
position = "{350, -10}";
},
{
name = center;
position = "{352, 342}";
},
{
name = horn;
position = "{599, 684}";
},
{
name = ogonek;
position = "{546, 67}";
},
{
name = top;
position = "{357, 684}";
},
{
name = topright;
position = "{676, 684}";
}
);
layerId = "873CAA12-270D-4223-A88E-AE8E101FDBE8";
paths = (
{
closed = 1;
nodes = (
"509 -10 OFFCURVE",
"619 98 OFFCURVE",
"619 267 CURVE SMOOTH",
"619 684 LINE",
"558 684 LINE",
"558 267 LINE SMOOTH",
"558 133 OFFCURVE",
"477 45 OFFCURVE",
"352 45 CURVE SMOOTH",
"229 45 OFFCURVE",
"145 131 OFFCURVE",
"145 267 CURVE SMOOTH",
"145 684 LINE",
"84 684 LINE",
"84 267 LINE SMOOTH",
"84 108 OFFCURVE",
"185 -10 OFFCURVE",
"350 -10 CURVE SMOOTH"
);
}
);
width = 703;
},
{
anchors = (
{
name = bottom;
position = "{354, 0}";
},
{
name = center;
position = "{354, 342}";
},
{
name = horn;
position = "{615, 686}";
},
{
name = ogonek;
position = "{543, 63}";
},
{
name = top;
position = "{359, 675}";
},
{
name = topright;
position = "{679, 684}";
}
);
layerId = "0CAF3BED-C4AC-4024-B3E1-4C69D1EF7EC0";
paths = (
{
closed = 1;
nodes = (
"511 -10 OFFCURVE",
"625 101 OFFCURVE",
"625 270 CURVE SMOOTH",
"625 686 LINE",
"543 686 LINE",
"543 270 LINE SMOOTH",
"543 147 OFFCURVE",
"469 63 OFFCURVE",
"354 63 CURVE SMOOTH",
"242 63 OFFCURVE",
"165 145 OFFCURVE",
"165 270 CURVE SMOOTH",
"165 686 LINE",
"83 686 LINE",
"83 270 LINE SMOOTH",
"83 112 OFFCURVE",
"187 -10 OFFCURVE",
"352 -10 CURVE SMOOTH"
);
}
);
width = 708;
},
{
anchors = (
{
name = bottom;
position = "{343, -9}";
},
{
name = center;
position = "{345, 342}";
},
{
name = horn;
position = "{601, 685}";
},
{
name = ogonek;
position = "{543, 62}";
},
{
name = top;
position = "{351, 692}";
},
{
name = topright;
position = "{679, 686}";
}
);
layerId = "49C16FD3-6177-408B-A733-AEB3898BB77C";
paths = (
{
closed = 1;
nodes = (
"503 -9 OFFCURVE",
"611 97 OFFCURVE",
"611 266 CURVE SMOOTH",
"611 685 LINE",
"563 685 LINE",
"563 266 LINE SMOOTH",
"563 127 OFFCURVE",
"476 33 OFFCURVE",
"345 33 CURVE SMOOTH",
"217 33 OFFCURVE",
"127 125 OFFCURVE",
"127 266 CURVE SMOOTH",
"127 685 LINE",
"79 685 LINE",
"79 266 LINE SMOOTH",
"79 107 OFFCURVE",
"178 -9 OFFCURVE",
"343 -9 CURVE SMOOTH"
);
}
);
width = 690;
}
);
rightKerningGroup = U;
userData = {
position = 564;
width = 61;
};
},
{
glyphname = U.swsh;
lastChange = "2019-09-25 08:04:55 +0000";
layers = (
{
anchors = (
{
name = bottom;
position = "{422, -10}";
},
{
name = center;
position = "{424, 342}";
},
{
name = horn;
position = "{692, 500}";
},
{
name = ogonek;
position = "{618, 67}";
},
{
name = top;
position = "{429, 684}";
},
{
name = topright;
position = "{745, 684}";
}
);
components = (
{
name = top_swash;
transform = "{1, 0, 0, 1, -17, 0}";
}
);
layerId = "873CAA12-270D-4223-A88E-AE8E101FDBE8";
paths = (
{
closed = 1;
nodes = (
"581 -10 OFFCURVE",
"691 98 OFFCURVE",
"691 267 CURVE SMOOTH",
"691 684 LINE",
"630 684 LINE",
"630 267 LINE SMOOTH",
"630 133 OFFCURVE",
"549 45 OFFCURVE",
"424 45 CURVE SMOOTH",
"301 45 OFFCURVE",
"217 131 OFFCURVE",
"217 267 CURVE SMOOTH",
"217 534 LINE",
"156 534 LINE",
"156 267 LINE SMOOTH",
"156 108 OFFCURVE",
"257 -10 OFFCURVE",
"422 -10 CURVE SMOOTH"
);
}
);
width = 775;
},
{
anchors = (
{
name = bottom;
position = "{426, 0}";
},
{
name = center;
position = "{426, 342}";
},
{
name = horn;
position = "{691, 500}";
},
{
name = ogonek;
position = "{615, 63}";
},
{
name = top;
position = "{431, 675}";
},
{
name = topright;
position = "{751, 684}";
}
);
components = (
{
name = top_swash;
transform = "{1, 0, 0, 1, -22, 0}";
}
);
layerId = "0CAF3BED-C4AC-4024-B3E1-4C69D1EF7EC0";
paths = (
{
closed = 1;
nodes = (
"583 -10 OFFCURVE",
"697 101 OFFCURVE",
"697 270 CURVE SMOOTH",
"697 686 LINE",
"615 686 LINE",
"615 270 LINE SMOOTH",
"615 147 OFFCURVE",
"541 63 OFFCURVE",
"426 63 CURVE SMOOTH",
"314 63 OFFCURVE",
"237 145 OFFCURVE",
"237 270 CURVE SMOOTH",
"237 536 LINE",
"155 536 LINE",
"155 270 LINE SMOOTH",
"155 112 OFFCURVE",
"259 -10 OFFCURVE",
"424 -10 CURVE SMOOTH"
);
}
);
width = 780;
},
{
anchors = (
{
name = bottom;
position = "{415, -9}";
},
{
name = center;
position = "{417, 342}";
},
{
name = horn;
position = "{681, 542}";
},
{
name = ogonek;
position = "{615, 62}";
},
{
name = top;
position = "{423, 692}";
},
{
name = topright;
position = "{685, 684}";
}
);
components = (
{
name = top_swash;
transform = "{1, 0, 0, 1, 2, 0}";
}
);
layerId = "49C16FD3-6177-408B-A733-AEB3898BB77C";
paths = (
{
closed = 1;
nodes = (
"575 -9 OFFCURVE",
"683 97 OFFCURVE",
"683 266 CURVE SMOOTH",
"683 685 LINE",
"635 685 LINE",
"635 266 LINE SMOOTH",
"635 127 OFFCURVE",
"548 33 OFFCURVE",
"417 33 CURVE SMOOTH",
"289 33 OFFCURVE",
"199 125 OFFCURVE",
"199 266 CURVE SMOOTH",
"199 565 LINE",
"151 565 LINE",
"151 266 LINE SMOOTH",
"151 107 OFFCURVE",
"250 -9 OFFCURVE",
"415 -9 CURVE SMOOTH"
);
}
);
width = 762;
}
);
leftKerningGroup = Swash;
rightKerningGroup = U;
userData = {
position = 564;
width = 61;
};
},
{
glyphname = V;
lastChange = "2019-09-24 06:42:01 +0000";
layers = (
{
anchors = (
{
name = bottom;
position = "{338, 0}";
},
{
name = top;
position = "{338, 684}";
}
);
layerId = "873CAA12-270D-4223-A88E-AE8E101FDBE8";
paths = (
{
closed = 1;
nodes = (
"414 0 LINE",
"637 685 LINE",
"577 685 LINE",
"385 86 LINE",
"198 640 LINE SMOOTH",
"188 669 OFFCURVE",
"160 690 OFFCURVE",
"122 690 CURVE SMOOTH",
"81 690 OFFCURVE",
"44 665 OFFCURVE",
"31 623 CURVE",
"87 607 LINE",
"93 622 OFFCURVE",
"107 630 OFFCURVE",
"120 630 CURVE SMOOTH",
"133 630 OFFCURVE",
"145 623 OFFCURVE",
"150 610 CURVE SMOOTH",
"356 0 LINE"
);
}
);
width = 674;
},
{
anchors = (
{
name = bottom;
position = "{344, 0}";
},
{
name = top;
position = "{344, 684}";
}
);
layerId = "0CAF3BED-C4AC-4024-B3E1-4C69D1EF7EC0";
paths = (
{
closed = 1;
nodes = (
"426 -1 LINE",
"649 687 LINE",
"567 687 LINE",
"389 132 LINE",
"219 636 LINE SMOOTH",
"208 667 OFFCURVE",
"175 692 OFFCURVE",
"134 692 CURVE SMOOTH",
"87 692 OFFCURVE",
"41 659 OFFCURVE",
"32 607 CURVE",
"106 586 LINE",
"109 604 OFFCURVE",
"120 611 OFFCURVE",
"129 611 CURVE SMOOTH",
"141 611 OFFCURVE",
"147 607 OFFCURVE",
"150 599 CURVE SMOOTH",
"352 -1 LINE"
);
}
);
width = 686;
},
{
anchors = (
{
name = bottom;
position = "{330, 0}";
},
{
name = top;
position = "{330, 684}";
}
);
layerId = "49C16FD3-6177-408B-A733-AEB3898BB77C";
paths = (
{
closed = 1;
nodes = (
"401 1 LINE",
"624 686 LINE",
"577 686 LINE",
"377 59 LINE",
"179 644 LINE SMOOTH",
"169 672 OFFCURVE",
"144 691 OFFCURVE",
"108 691 CURVE SMOOTH",
"71 691 OFFCURVE",
"39 670 OFFCURVE",
"25 634 CURVE",
"69 622 LINE",
"77 636 OFFCURVE",
"93 644 OFFCURVE",
"106 644 CURVE SMOOTH",
"121 644 OFFCURVE",
"137 634 OFFCURVE",
"143 619 CURVE SMOOTH",
"352 1 LINE"
);
}
);
width = 656;
}
);
leftKerningGroup = V;
rightKerningGroup = V;
unicode = 0056;
userData = {
position = 631;
width = 59;
};
},
{
glyphname = V.ss01;
lastChange = "2019-09-24 12:31:56 +0000";
layers = (
{
anchors = (
{
name = bottom;
position = "{297, 0}";
},
{
name = top;
position = "{297, 684}";
}
);
layerId = "873CAA12-270D-4223-A88E-AE8E101FDBE8";
paths = (
{
closed = 1;
nodes = (
"333 0 LINE",
"556 685 LINE",
"496 685 LINE",
"304 86 LINE",
"124 625 LINE SMOOTH",
"115 652 OFFCURVE",
"87 690 OFFCURVE",
"36 690 CURVE",
"36 631 LINE",
"51 629 OFFCURVE",
"64 625 OFFCURVE",
"69 610 CURVE SMOOTH",
"275 0 LINE"
);
}
);
width = 593;
},
{
anchors = (
{
name = bottom;
position = "{304, 0}";
},
{
name = top;
position = "{304, 684}";
}
);
layerId = "0CAF3BED-C4AC-4024-B3E1-4C69D1EF7EC0";
paths = (
{
closed = 1;
nodes = (
"346 -1 LINE",
"570 687 LINE",
"487 687 LINE",
"309 132 LINE",
"146 621 LINE SMOOTH",
"137 649 OFFCURVE",
"105 692 OFFCURVE",
"50 692 CURVE SMOOTH",
"46 692 OFFCURVE",
"42 691 OFFCURVE",
"38 691 CURVE",
"38 613 LINE",
"58 610 OFFCURVE",
"67 610 OFFCURVE",
"70 599 CURVE SMOOTH",
"273 -1 LINE"
);
}
);
width = 607;
},
{
anchors = (
{
name = bottom;
position = "{288, 0}";
},
{
name = top;
position = "{288, 684}";
}
);
layerId = "49C16FD3-6177-408B-A733-AEB3898BB77C";
paths = (
{
closed = 1;
nodes = (
"320 1 LINE",
"543 686 LINE",
"497 686 LINE",
"296 59 LINE",
"106 629 LINE SMOOTH",
"97 654 OFFCURVE",
"74 687 OFFCURVE",
"30 690 CURVE",
"30 644 LINE",
"44 641 OFFCURVE",
"58 635 OFFCURVE",
"63 618 CURVE SMOOTH",
"271 1 LINE"
);
}
);
width = 575;
}
);
leftKerningGroup = V;
rightKerningGroup = V;
userData = {
position = 631;
width = 59;
};
},
{
glyphname = W;
lastChange = "2019-09-24 10:25:39 +0000";
layers = (
{
anchors = (
{
name = bottom;
position = "{563, 0}";
},
{
name = top;
position = "{603, 684}";
}
);
layerId = "873CAA12-270D-4223-A88E-AE8E101FDBE8";
paths = (
{
closed = 1;
nodes = (
"410 0 LINE",
"602 591 LINE",
"795 0 LINE",
"854 0 LINE",
"1077 685 LINE",
"1017 685 LINE",
"829 100 LINE",
"827 86 LINE",
"826 83 OFFCURVE",
"826 80 OFFCURVE",
"826 76 CURVE SMOOTH",
"826 72 LINE",
"820 100 LINE",
"632 685 LINE",
"573 685 LINE",
"385 100 LINE",
"380 79 LINE",
"376 100 LINE",
"205 631 LINE SMOOTH",
"194 668 OFFCURVE",
"159 694 OFFCURVE",
"119 694 CURVE SMOOTH",
"82 694 OFFCURVE",
"43 671 OFFCURVE",
"31 628 CURVE",
"86 612 LINE",
"92 629 OFFCURVE",
"105 637 OFFCURVE",
"118 637 CURVE SMOOTH",
"131 637 OFFCURVE",
"144 629 OFFCURVE",
"150 613 CURVE SMOOTH",
"351 0 LINE"
);
}
);
width = 1114;
},
{
anchors = (
{
name = bottom;
position = "{562, 0}";
},
{
name = top;
position = "{600, 675}";
}
);
layerId = "0CAF3BED-C4AC-4024-B3E1-4C69D1EF7EC0";
paths = (
{
closed = 1;
nodes = (
"422 -1 LINE",
"599 547 LINE",
"778 -1 LINE",
"852 -1 LINE",
"1076 687 LINE",
"994 687 LINE",
"820 126 LINE",
"815 84 LINE",
"808 126 LINE",
"637 687 LINE",
"563 687 LINE",
"389 126 LINE",
"384 87 LINE",
"380 126 LINE",
"225 627 LINE SMOOTH",
"211 672 OFFCURVE",
"174 696 OFFCURVE",
"131 696 CURVE SMOOTH",
"89 696 OFFCURVE",
"40 665 OFFCURVE",
"32 612 CURVE",
"104 592 LINE",
"108 613 OFFCURVE",
"119 619 OFFCURVE",
"130 619 CURVE SMOOTH",
"139 619 OFFCURVE",
"146 613 OFFCURVE",
"150 602 CURVE SMOOTH",
"348 -1 LINE"
);
}
);
width = 1113;
},
{
anchors = (
{
name = bottom;
position = "{559, 0}";
},
{
name = top;
position = "{600, 692}";
}
);
layerId = "49C16FD3-6177-408B-A733-AEB3898BB77C";
paths = (
{
closed = 1;
nodes = (
"814 94 LINE",
"624 686 LINE",
"574 686 LINE",
"384 94 LINE",
"372 41 LINE",
"363 83 LINE",
"361 95 LINE",
"361 94 LINE",
"187 635 LINE SMOOTH",
"176 671 OFFCURVE",
"144 695 OFFCURVE",
"106 695 CURVE SMOOTH",
"72 695 OFFCURVE",
"39 676 OFFCURVE",
"25 639 CURVE",
"68 627 LINE",
"76 643 OFFCURVE",
"91 653 OFFCURVE",
"105 653 CURVE SMOOTH",
"120 653 OFFCURVE",
"136 645 OFFCURVE",
"144 622 CURVE SMOOTH",
"348 1 LINE",
"398 1 LINE",
"599 620 LINE",
"801 1 LINE",
"851 1 LINE",
"1073 686 LINE",
"1027 686 LINE",
"837 94 LINE",
"826 38 LINE"
);
}
);
width = 1105;
}
);
leftKerningGroup = V;
rightKerningGroup = V;
unicode = 0057;
userData = {
position = 665;
width = 20;
};
},
{
glyphname = W.ss01;
lastChange = "2019-09-24 12:31:56 +0000";
layers = (
{
anchors = (
{
name = bottom;
position = "{516, 0}";
},
{
name = top;
position = "{521, 684}";
}
);
layerId = "873CAA12-270D-4223-A88E-AE8E101FDBE8";
paths = (
{
closed = 1;
nodes = (
"328 0 LINE",
"520 591 LINE",
"713 0 LINE",
"772 0 LINE",
"995 685 LINE",
"935 685 LINE",
"750 100 LINE",
"744 72 LINE",
"738 100 LINE",
"550 685 LINE",
"491 685 LINE",
"303 100 LINE",
"298 79 LINE",
"294 100 LINE",
"123 631 LINE SMOOTH",
"117 650 OFFCURVE",
"106 666 OFFCURVE",
"90 677 CURVE SMOOTH",
"77 686 OFFCURVE",
"57 694 OFFCURVE",
"36 694 CURVE",
"36 637 LINE",
"53 636 OFFCURVE",
"63 628 OFFCURVE",
"68 613 CURVE SMOOTH",
"269 0 LINE"
);
}
);
width = 1032;
},
{
anchors = (
{
name = bottom;
position = "{517, 0}";
},
{
name = top;
position = "{521, 675}";
}
);
layerId = "0CAF3BED-C4AC-4024-B3E1-4C69D1EF7EC0";
paths = (
{
closed = 1;
nodes = (
"342 -1 LINE",
"520 547 LINE",
"698 -1 LINE",
"772 -1 LINE",
"996 687 LINE",
"914 687 LINE",
"742 144 LINE",
"736 100 LINE",
"729 144 LINE",
"557 687 LINE",
"483 687 LINE",
"312 144 LINE",
"305 100 LINE",
"299 144 LINE",
"146 627 LINE SMOOTH",
"140 647 OFFCURVE",
"126 666 OFFCURVE",
"109 677 CURVE SMOOTH",
"93 687 OFFCURVE",
"60 696 OFFCURVE",
"38 692 CURVE",
"38 616 LINE",
"55 616 OFFCURVE",
"65 615 OFFCURVE",
"72 594 CURVE SMOOTH",
"268 -1 LINE"
);
}
);
width = 1033;
},
{
anchors = (
{
name = bottom;
position = "{512, 0}";
},
{
name = top;
position = "{517, 692}";
}
);
layerId = "49C16FD3-6177-408B-A733-AEB3898BB77C";
paths = (
{
closed = 1;
nodes = (
"315 1 LINE",
"516 620 LINE",
"718 1 LINE",
"768 1 LINE",
"991 686 LINE",
"945 686 LINE",
"755 94 LINE",
"743 41 LINE",
"732 94 LINE",
"542 686 LINE",
"492 686 LINE",
"302 94 LINE",
"290 41 LINE",
"279 95 LINE",
"105 635 LINE SMOOTH",
"99 654 OFFCURVE",
"89 668 OFFCURVE",
"74 679 CURVE SMOOTH",
"63 686 OFFCURVE",
"47 693 OFFCURVE",
"30 694 CURVE",
"30 649 LINE",
"46 647 OFFCURVE",
"57 637 OFFCURVE",
"62 621 CURVE SMOOTH",
"265 1 LINE"
);
}
);
width = 1023;
}
);
leftKerningGroup = V;
rightKerningGroup = V;
userData = {
position = 665;
width = 20;
};
},
{
glyphname = X;
lastChange = "2019-09-24 06:42:02 +0000";
layers = (
{
anchors = (
{
name = bottom;
position = "{327, 0}";
},
{
name = top;
position = "{327, 684}";
}
);
layerId = "873CAA12-270D-4223-A88E-AE8E101FDBE8";
paths = (
{
closed = 1;
nodes = (
"573 -7 OFFCURVE",
"618 24 OFFCURVE",
"621 80 CURVE",
"563 83 LINE",
"560 65 OFFCURVE",
"548 51 OFFCURVE",
"529 51 CURVE SMOOTH",
"517 51 OFFCURVE",
"508 57 OFFCURVE",
"503 65 CURVE SMOOTH",
"333 351 LINE",
"543 684 LINE",
"472 684 LINE",
"291 395 LINE",
"109 684 LINE",
"40 684 LINE",
"251 351 LINE",
"42 0 LINE",
"113 0 LINE",
"294 306 LINE",
"434 65 LINE SMOOTH",
"459 20 OFFCURVE",
"481 -7 OFFCURVE",
"525 -7 CURVE SMOOTH"
);
}
);
width = 654;
},
{
anchors = (
{
name = bottom;
position = "{334, 0}";
},
{
name = top;
position = "{334, 684}";
}
);
layerId = "0CAF3BED-C4AC-4024-B3E1-4C69D1EF7EC0";
paths = (
{
closed = 1;
nodes = (
"585 -7 OFFCURVE",
"639 33 OFFCURVE",
"636 100 CURVE",
"557 104 LINE",
"559 87 OFFCURVE",
"549 72 OFFCURVE",
"535 72 CURVE SMOOTH",
"527 72 OFFCURVE",
"523 75 OFFCURVE",
"520 80 CURVE SMOOTH",
"359 351 LINE",
"570 686 LINE",
"473 686 LINE",
"304 416 LINE",
"134 686 LINE",
"40 686 LINE",
"252 351 LINE",
"42 -1 LINE",
"138 -1 LINE",
"307 285 LINE",
"433 68 LINE SMOOTH",
"457 24 OFFCURVE",
"483 -7 OFFCURVE",
"531 -7 CURVE SMOOTH"
);
}
);
width = 669;
},
{
anchors = (
{
name = bottom;
position = "{314, 0}";
},
{
name = top;
position = "{314, 684}";
}
);
layerId = "49C16FD3-6177-408B-A733-AEB3898BB77C";
paths = (
{
closed = 1;
nodes = (
"561 -6 OFFCURVE",
"601 20 OFFCURVE",
"607 69 CURVE",
"561 71 LINE",
"556 54 OFFCURVE",
"541 39 OFFCURVE",
"521 39 CURVE SMOOTH",
"506 39 OFFCURVE",
"494 47 OFFCURVE",
"488 56 CURVE SMOOTH",
"312 352 LINE",
"522 685 LINE",
"466 685 LINE",
"278 383 LINE",
"88 685 LINE",
"35 685 LINE",
"245 352 LINE",
"36 1 LINE",
"92 1 LINE",
"281 320 LINE",
"430 64 LINE SMOOTH",
"455 18 OFFCURVE",
"475 -6 OFFCURVE",
"517 -6 CURVE SMOOTH"
);
}
);
width = 634;
}
);
leftKerningGroup = X;
rightKerningGroup = K;
unicode = 0058;
userData = {
position = 566;
width = 58;
};
},
{
glyphname = X.ss01;
lastChange = "2019-09-24 12:31:56 +0000";
layers = (
{
anchors = (
{
name = bottom;
position = "{288, 0}";
},
{
name = top;
position = "{288, 684}";
}
);
layerId = "873CAA12-270D-4223-A88E-AE8E101FDBE8";
paths = (
{
closed = 1;
nodes = (
"538 51 LINE",
"521 51 OFFCURVE",
"509 56 OFFCURVE",
"503 65 CURVE SMOOTH",
"333 351 LINE",
"543 684 LINE",
"472 684 LINE",
"291 395 LINE",
"109 684 LINE",
"40 684 LINE",
"251 351 LINE",
"42 0 LINE",
"113 0 LINE",
"294 306 LINE",
"434 65 LINE SMOOTH",
"463 16 OFFCURVE",
"480 -7 OFFCURVE",
"538 -7 CURVE"
);
}
);
width = 585;
},
{
anchors = (
{
name = bottom;
position = "{301, 0}";
},
{
name = top;
position = "{301, 684}";
}
);
layerId = "0CAF3BED-C4AC-4024-B3E1-4C69D1EF7EC0";
paths = (
{
closed = 1;
nodes = (
"555 73 LINE",
"549 73 OFFCURVE",
"545 72 OFFCURVE",
"541 72 CURVE SMOOTH",
"528 72 OFFCURVE",
"523 75 OFFCURVE",
"520 80 CURVE SMOOTH",
"359 351 LINE",
"570 686 LINE",
"473 686 LINE",
"304 416 LINE",
"134 686 LINE",
"40 686 LINE",
"252 351 LINE",
"42 -1 LINE",
"138 -1 LINE",
"307 285 LINE",
"433 68 LINE SMOOTH",
"463 17 OFFCURVE",
"484 -11 OFFCURVE",
"555 -7 CURVE"
);
}
);
width = 612;
},
{
anchors = (
{
name = bottom;
position = "{272, 0}";
},
{
name = top;
position = "{272, 684}";
}
);
layerId = "49C16FD3-6177-408B-A733-AEB3898BB77C";
paths = (
{
closed = 1;
nodes = (
"523 39 LINE",
"507 41 OFFCURVE",
"495 46 OFFCURVE",
"488 56 CURVE",
"312 352 LINE",
"522 685 LINE",
"466 685 LINE",
"278 383 LINE",
"88 685 LINE",
"35 685 LINE",
"245 352 LINE",
"36 1 LINE",
"92 1 LINE",
"281 320 LINE",
"430 64 LINE SMOOTH",
"458 16 OFFCURVE",
"473 -4 OFFCURVE",
"523 -6 CURVE"
);
}
);
width = 559;
}
);
leftKerningGroup = X;
rightKerningGroup = K;
userData = {
position = 566;
width = 58;
};
},
{
glyphname = X.swsh;
lastChange = "2019-09-24 12:31:56 +0000";
layers = (
{
anchors = (
{
name = bottom;
position = "{327, 0}";
},
{
name = top;
position = "{327, 684}";
}
);
layerId = "873CAA12-270D-4223-A88E-AE8E101FDBE8";
paths = (
{
closed = 1;
nodes = (
"573 -7 OFFCURVE",
"618 24 OFFCURVE",
"621 80 CURVE",
"563 83 LINE",
"560 65 OFFCURVE",
"548 51 OFFCURVE",
"529 51 CURVE SMOOTH",
"517 51 OFFCURVE",
"508 57 OFFCURVE",
"503 65 CURVE SMOOTH",
"333 351 LINE",
"543 684 LINE",
"472 684 LINE",
"291 395 LINE",
"109 684 LINE",
"40 684 LINE",
"251 351 LINE",
"42 0 LINE",
"113 0 LINE",
"294 306 LINE",
"434 65 LINE SMOOTH",
"459 20 OFFCURVE",
"481 -7 OFFCURVE",
"525 -7 CURVE SMOOTH"
);
}
);
width = 654;
},
{
anchors = (
{
name = bottom;
position = "{334, 0}";
},
{
name = top;
position = "{334, 684}";
}
);
layerId = "0CAF3BED-C4AC-4024-B3E1-4C69D1EF7EC0";
paths = (
{
closed = 1;
nodes = (
"585 -7 OFFCURVE",
"639 33 OFFCURVE",
"636 100 CURVE",
"557 104 LINE",
"559 87 OFFCURVE",
"549 72 OFFCURVE",
"535 72 CURVE SMOOTH",
"527 72 OFFCURVE",
"523 75 OFFCURVE",
"520 80 CURVE SMOOTH",
"359 351 LINE",
"570 686 LINE",
"473 686 LINE",
"304 416 LINE",
"134 686 LINE",
"40 686 LINE",
"252 351 LINE",
"42 -1 LINE",
"138 -1 LINE",
"307 285 LINE",
"433 68 LINE SMOOTH",
"457 24 OFFCURVE",
"483 -7 OFFCURVE",
"531 -7 CURVE SMOOTH"
);
}
);
width = 669;
},
{
anchors = (
{
name = bottom;
position = "{379, 0}";
},
{
name = top;
position = "{379, 684}";
}
);
layerId = "49C16FD3-6177-408B-A733-AEB3898BB77C";
paths = (
{
closed = 1;
nodes = (
"626 -6 OFFCURVE",
"666 20 OFFCURVE",
"672 69 CURVE",
"626 71 LINE",
"621 54 OFFCURVE",
"606 39 OFFCURVE",
"586 39 CURVE SMOOTH",
"571 39 OFFCURVE",
"559 47 OFFCURVE",
"553 56 CURVE SMOOTH",
"534 87 LINE",
"377 352 LINE",
"587 685 LINE",
"531 685 LINE",
"343 383 LINE",
"204 618 LINE",
"165 596 LINE",
"310 352 LINE",
"101 1 LINE",
"157 1 LINE",
"346 320 LINE",
"495 64 LINE SMOOTH",
"520 18 OFFCURVE",
"540 -6 OFFCURVE",
"582 -6 CURVE SMOOTH"
);
},
{
closed = 1;
nodes = (
"179 664 OFFCURVE",
"159 689 OFFCURVE",
"117 689 CURVE SMOOTH",
"73 689 OFFCURVE",
"33 663 OFFCURVE",
"27 614 CURVE",
"73 612 LINE",
"75 631 OFFCURVE",
"93 644 OFFCURVE",
"113 644 CURVE SMOOTH",
"128 644 OFFCURVE",
"140 636 OFFCURVE",
"146 627 CURVE SMOOTH",
"165 596 LINE",
"204 618 LINE"
);
}
);
width = 699;
}
);
leftKerningGroup = X;
rightKerningGroup = K;
userData = {
position = 566;
width = 58;
};
},
{
glyphname = Y;
lastChange = "2019-09-24 06:42:02 +0000";
layers = (
{
anchors = (
{
name = bottom;
position = "{356, 1}";
},
{
name = top;
position = "{355, 684}";
},
{
name = topleft;
position = "{31, 684}";
}
);
layerId = "873CAA12-270D-4223-A88E-AE8E101FDBE8";
paths = (
{
closed = 1;
nodes = (
"392 0 LINE",
"390 299 LINE",
"606 685 LINE",
"536 685 LINE",
"359 364 LINE",
"205 646 LINE SMOOTH",
"184 681 OFFCURVE",
"154 694 OFFCURVE",
"126 694 CURVE SMOOTH",
"83 694 OFFCURVE",
"37 665 OFFCURVE",
"32 611 CURVE",
"91 605 LINE",
"92 624 OFFCURVE",
"107 635 OFFCURVE",
"123 635 CURVE SMOOTH",
"134 635 OFFCURVE",
"145 630 OFFCURVE",
"153 618 CURVE",
"329 297 LINE",
"326 0 LINE"
);
}
);
width = 637;
},
{
anchors = (
{
name = bottom;
position = "{359, 12}";
},
{
name = top;
position = "{358, 675}";
},
{
name = topleft;
position = "{31, 684}";
}
);
layerId = "0CAF3BED-C4AC-4024-B3E1-4C69D1EF7EC0";
paths = (
{
closed = 1;
nodes = (
"405 -1 LINE",
"404 298 LINE",
"621 687 LINE",
"527 687 LINE",
"362 385 LINE",
"223 643 LINE",
"200 681 OFFCURVE",
"165 696 OFFCURVE",
"136 696 CURVE SMOOTH",
"88 696 OFFCURVE",
"32 659 OFFCURVE",
"33 593 CURVE",
"117 585 LINE",
"115 589 OFFCURVE",
"113 593 OFFCURVE",
"113 597 CURVE SMOOTH",
"113 608 OFFCURVE",
"123 615 OFFCURVE",
"133 615 CURVE SMOOTH",
"141 615 OFFCURVE",
"146 613 OFFCURVE",
"152 605 CURVE",
"321 296 LINE",
"318 -1 LINE"
);
}
);
width = 652;
},
{
anchors = (
{
name = bottom;
position = "{350, -5}";
},
{
name = top;
position = "{349, 692}";
},
{
name = topleft;
position = "{41, 684}";
}
);
layerId = "49C16FD3-6177-408B-A733-AEB3898BB77C";
paths = (
{
closed = 1;
nodes = (
"379 1 LINE",
"377 301 LINE",
"593 686 LINE",
"538 686 LINE",
"353 353 LINE",
"189 649 LINE SMOOTH",
"169 683 OFFCURVE",
"142 695 OFFCURVE",
"115 695 CURVE SMOOTH",
"75 695 OFFCURVE",
"35 671 OFFCURVE",
"27 624 CURVE",
"73 619 LINE",
"78 637 OFFCURVE",
"96 649 OFFCURVE",
"112 649 CURVE SMOOTH",
"125 649 OFFCURVE",
"139 642 OFFCURVE",
"149 628 CURVE",
"329 299 LINE",
"326 1 LINE"
);
}
);
width = 619;
}
);
leftKerningGroup = Y;
rightKerningGroup = Y;
unicode = 0059;
userData = {
position = 308;
width = 66;
};
},
{
glyphname = Y.ss01;
lastChange = "2019-09-24 12:31:56 +0000";
layers = (
{
anchors = (
{
name = bottom;
position = "{271, 1}";
},
{
name = top;
position = "{270, 684}";
},
{
name = topleft;
position = "{30, 684}";
}
);
layerId = "873CAA12-270D-4223-A88E-AE8E101FDBE8";
paths = (
{
closed = 1;
nodes = (
"307 0 LINE",
"305 299 LINE",
"521 685 LINE",
"453 685 LINE",
"274 362 LINE",
"118 646 LINE SMOOTH",
"100 679 OFFCURVE",
"74 694 OFFCURVE",
"34 694 CURVE",
"34 635 LINE",
"51 635 OFFCURVE",
"61 629 OFFCURVE",
"68 618 CURVE SMOOTH",
"244 297 LINE",
"241 0 LINE"
);
}
);
width = 552;
},
{
anchors = (
{
name = bottom;
position = "{277, 12}";
},
{
name = top;
position = "{276, 675}";
},
{
name = topleft;
position = "{30, 684}";
}
);
layerId = "0CAF3BED-C4AC-4024-B3E1-4C69D1EF7EC0";
paths = (
{
closed = 1;
nodes = (
"324 -1 LINE",
"322 298 LINE",
"539 687 LINE",
"445 687 LINE",
"280 385 LINE",
"141 643 LINE SMOOTH",
"120 681 OFFCURVE",
"83 699 OFFCURVE",
"36 695 CURVE",
"36 615 LINE",
"58 616 OFFCURVE",
"64 615 OFFCURVE",
"70 604 CURVE",
"70 605 LINE",
"239 296 LINE",
"236 -1 LINE"
);
}
);
width = 570;
},
{
anchors = (
{
name = bottom;
position = "{262, -5}";
},
{
name = top;
position = "{261, 692}";
},
{
name = topleft;
position = "{39, 684}";
}
);
layerId = "49C16FD3-6177-408B-A733-AEB3898BB77C";
paths = (
{
closed = 1;
nodes = (
"292 1 LINE",
"290 301 LINE",
"505 686 LINE",
"450 686 LINE",
"265 348 LINE",
"102 649 LINE SMOOTH",
"86 678 OFFCURVE",
"62 693 OFFCURVE",
"28 695 CURVE",
"28 648 LINE",
"43 647 OFFCURVE",
"54 639 OFFCURVE",
"61 628 CURVE SMOOTH",
"242 299 LINE",
"239 1 LINE"
);
}
);
width = 531;
}
);
leftKerningGroup = Y;
rightKerningGroup = Y;
userData = {
position = 308;
width = 66;
};
},
{
glyphname = Z;
lastChange = "2019-09-24 06:42:06 +0000";
layers = (
{
anchors = (
{
name = bottom;
position = "{281, 0}";
},
{
name = center;
position = "{281, 342}";
},
{
name = top;
position = "{302, 683}";
}
);
layerId = "873CAA12-270D-4223-A88E-AE8E101FDBE8";
paths = (
{
closed = 1;
nodes = (
"115 46 LINE",
"213 28 OFFCURVE",
"284 -14 OFFCURVE",
"372 -14 CURVE SMOOTH",
"429 -14 OFFCURVE",
"476 4 OFFCURVE",
"529 54 CURVE",
"491 91 LINE",
"457 59 OFFCURVE",
"419 39 OFFCURVE",
"372 39 CURVE SMOOTH",
"313 39 OFFCURVE",
"240 71 OFFCURVE",
"176 84 CURVE SMOOTH",
"142 90 LINE",
"495 681 LINE",
"89 681 LINE",
"89 628 LINE",
"402 628 LINE",
"34 12 LINE",
"79 -15 LINE"
);
}
);
width = 562;
},
{
anchors = (
{
name = bottom;
position = "{292, 0}";
},
{
name = center;
position = "{292, 342}";
},
{
name = top;
position = "{311, 674}";
}
);
layerId = "0CAF3BED-C4AC-4024-B3E1-4C69D1EF7EC0";
paths = (
{
closed = 1;
nodes = (
"136 43 LINE",
"225 25 OFFCURVE",
"293 -14 OFFCURVE",
"379 -14 CURVE SMOOTH",
"440 -14 OFFCURVE",
"492 7 OFFCURVE",
"548 63 CURVE",
"494 116 LINE",
"460 81 OFFCURVE",
"425 61 OFFCURVE",
"379 61 CURVE SMOOTH",
"324 61 OFFCURVE",
"255 91 OFFCURVE",
"191 104 CURVE SMOOTH",
"175 107 LINE",
"519 683 LINE",
"93 683 LINE",
"93 609 LINE",
"388 609 LINE",
"35 19 LINE",
"99 -19 LINE"
);
}
);
width = 582;
},
{
anchors = (
{
name = bottom;
position = "{271, 0}";
},
{
name = center;
position = "{271, 342}";
},
{
name = top;
position = "{293, 691}";
}
);
layerId = "49C16FD3-6177-408B-A733-AEB3898BB77C";
paths = (
{
closed = 1;
nodes = (
"419 -13 OFFCURVE",
"463 3 OFFCURVE",
"514 49 CURVE",
"486 77 LINE",
"451 46 OFFCURVE",
"412 27 OFFCURVE",
"364 27 CURVE SMOOTH",
"303 27 OFFCURVE",
"227 60 OFFCURVE",
"163 73 CURVE SMOOTH",
"118 81 LINE",
"477 684 LINE",
"83 684 LINE",
"83 645 LINE",
"407 645 LINE",
"29 9 LINE",
"63 -11 LINE",
"99 49 LINE",
"202 31 OFFCURVE",
"275 -13 OFFCURVE",
"364 -13 CURVE SMOOTH"
);
}
);
width = 542;
}
);
leftKerningGroup = S;
rightKerningGroup = S;
unicode = 005A;
userData = {
position = 628;
width = 53;
};
},
{
glyphname = Z.ss01;
lastChange = "2019-09-24 12:31:56 +0000";
layers = (
{
anchors = (
{
name = bottom;
position = "{276, 0}";
},
{
name = center;
position = "{275, 342}";
},
{
name = top;
position = "{276, 684}";
}
);
layerId = "873CAA12-270D-4223-A88E-AE8E101FDBE8";
paths = (
{
closed = 1;
nodes = (
"511 0 LINE",
"511 57 LINE",
"132 57 LINE",
"491 671 LINE",
"491 684 LINE",
"60 684 LINE",
"60 627 LINE",
"399 627 LINE",
"40 13 LINE",
"40 0 LINE"
);
}
);
width = 551;
},
{
anchors = (
{
name = bottom;
position = "{284, -10}";
},
{
name = center;
position = "{284, 342}";
},
{
name = top;
position = "{321, 684}";
}
);
layerId = "0CAF3BED-C4AC-4024-B3E1-4C69D1EF7EC0";
paths = (
{
closed = 1;
nodes = (
"524 -1 LINE",
"524 78 LINE",
"165 78 LINE",
"504 659 LINE",
"504 686 LINE",
"63 686 LINE",
"63 608 LINE",
"383 608 LINE",
"44 27 LINE",
"44 -1 LINE"
);
}
);
width = 568;
},
{
anchors = (
{
name = bottom;
position = "{267, 0}";
},
{
name = center;
position = "{266, 342}";
},
{
name = top;
position = "{267, 684}";
}
);
layerId = "49C16FD3-6177-408B-A733-AEB3898BB77C";
paths = (
{
closed = 1;
nodes = (
"500 1 LINE",
"500 45 LINE",
"108 45 LINE",
"479 680 LINE",
"479 685 LINE",
"54 685 LINE",
"54 641 LINE",
"405 641 LINE",
"34 5 LINE",
"34 1 LINE"
);
}
);
width = 533;
}
);
leftKerningGroup = S;
rightKerningGroup = S;
userData = {
position = 627;
width = 57;
};
},
{
glyphname = a;
lastChange = "2019-09-24 10:25:37 +0000";
layers = (
{
anchors = (
{
name = bottom;
position = "{256, -8}";
},
{
name = ogonek;
position = "{552, 10}";
},
{
name = top;
position = "{286, 500}";
}
);
layerId = "873CAA12-270D-4223-A88E-AE8E101FDBE8";
paths = (
{
closed = 1;
nodes = (
"320 -10 OFFCURVE",
"375 14 OFFCURVE",
"407 68 CURVE",
"413 24 OFFCURVE",
"451 -10 OFFCURVE",
"497 -10 CURVE SMOOTH",
"523 -10 OFFCURVE",
"552 1 OFFCURVE",
"570 30 CURVE",
"525 61 LINE",
"518 50 OFFCURVE",
"507 45 OFFCURVE",
"496 45 CURVE SMOOTH",
"479 45 OFFCURVE",
"461 58 OFFCURVE",
"461 80 CURVE SMOOTH",
"461 499 LINE",
"406 499 LINE",
"370 504 OFFCURVE",
"316 508 OFFCURVE",
"286 508 CURVE SMOOTH",
"133 508 OFFCURVE",
"42 400 OFFCURVE",
"42 246 CURVE SMOOTH",
"42 110 OFFCURVE",
"113 -10 OFFCURVE",
"256 -10 CURVE SMOOTH"
);
},
{
closed = 1;
nodes = (
"149 42 OFFCURVE",
"99 144 OFFCURVE",
"99 248 CURVE SMOOTH",
"99 364 OFFCURVE",
"161 456 OFFCURVE",
"280 456 CURVE SMOOTH",
"315 456 OFFCURVE",
"375 448 OFFCURVE",
"406 448 CURVE",
"406 188 LINE SMOOTH",
"406 163 OFFCURVE",
"401 142 OFFCURVE",
"392 124 CURVE SMOOTH",
"369 77 OFFCURVE",
"320 42 OFFCURVE",
"257 42 CURVE SMOOTH"
);
}
);
width = 583;
},
{
anchors = (
{
name = bottom;
position = "{260, 4}";
},
{
name = ogonek;
position = "{566, 23}";
},
{
name = top;
position = "{279, 504}";
}
);
layerId = "0CAF3BED-C4AC-4024-B3E1-4C69D1EF7EC0";
paths = (
{
closed = 1;
nodes = (
"316 -10 OFFCURVE",
"368 9 OFFCURVE",
"402 51 CURVE",
"418 16 OFFCURVE",
"454 -10 OFFCURVE",
"494 -10 CURVE SMOOTH",
"524 -10 OFFCURVE",
"562 5 OFFCURVE",
"580 44 CURVE",
"517 87 LINE",
"510 70 OFFCURVE",
"502 66 OFFCURVE",
"494 66 CURVE SMOOTH",
"482 66 OFFCURVE",
"471 75 OFFCURVE",
"471 89 CURVE SMOOTH",
"471 507 LINE",
"407 507 LINE",
"371 512 OFFCURVE",
"319 516 OFFCURVE",
"290 516 CURVE SMOOTH",
"136 516 OFFCURVE",
"41 403 OFFCURVE",
"41 250 CURVE SMOOTH",
"41 115 OFFCURVE",
"115 -10 OFFCURVE",
"260 -10 CURVE SMOOTH"
);
},
{
closed = 1;
nodes = (
"165 64 OFFCURVE",
"120 156 OFFCURVE",
"120 252 CURVE SMOOTH",
"120 359 OFFCURVE",
"176 442 OFFCURVE",
"284 442 CURVE SMOOTH",
"313 442 OFFCURVE",
"362 436 OFFCURVE",
"394 434 CURVE",
"394 193 LINE SMOOTH",
"394 171 OFFCURVE",
"390 153 OFFCURVE",
"382 137 CURVE SMOOTH",
"361 94 OFFCURVE",
"318 64 OFFCURVE",
"262 64 CURVE SMOOTH"
);
}
);
width = 593;
},
{
anchors = (
{
name = bottom;
position = "{249, -14}";
},
{
name = ogonek;
position = "{546, 11}";
},
{
name = top;
position = "{268, 512}";
}
);
layerId = "49C16FD3-6177-408B-A733-AEB3898BB77C";
paths = (
{
closed = 1;
nodes = (
"324 -9 OFFCURVE",
"383 22 OFFCURVE",
"411 96 CURVE",
"410 90 OFFCURVE",
"409 83 OFFCURVE",
"409 77 CURVE SMOOTH",
"409 29 OFFCURVE",
"446 -9 OFFCURVE",
"495 -9 CURVE SMOOTH",
"518 -9 OFFCURVE",
"542 -1 OFFCURVE",
"560 23 CURVE",
"525 46 LINE",
"517 37 OFFCURVE",
"505 33 OFFCURVE",
"494 33 CURVE SMOOTH",
"474 33 OFFCURVE",
"451 49 OFFCURVE",
"451 76 CURVE SMOOTH",
"451 496 LINE",
"401 496 LINE",
"365 501 OFFCURVE",
"310 505 OFFCURVE",
"280 505 CURVE SMOOTH",
"127 505 OFFCURVE",
"38 399 OFFCURVE",
"38 245 CURVE SMOOTH",
"38 108 OFFCURVE",
"107 -9 OFFCURVE",
"249 -9 CURVE SMOOTH"
);
},
{
closed = 1;
nodes = (
"136 30 OFFCURVE",
"82 139 OFFCURVE",
"82 247 CURVE SMOOTH",
"82 367 OFFCURVE",
"148 466 OFFCURVE",
"274 466 CURVE SMOOTH",
"313 466 OFFCURVE",
"381 457 OFFCURVE",
"409 458 CURVE",
"409 186 LINE SMOOTH",
"409 159 OFFCURVE",
"404 136 OFFCURVE",
"394 117 CURVE SMOOTH",
"370 68 OFFCURVE",
"317 30 OFFCURVE",
"250 30 CURVE SMOOTH"
);
}
);
width = 568;
}
);
leftKerningGroup = o;
rightKerningGroup = m;
unicode = 0061;
userData = {
position = 407;
width = 55;
};
},
